<?xml version="1.0" standalone="no"?>
<!DOCTYPE svg PUBLIC "-//W3C//DTD SVG 1.1//EN" "http://www.w3.org/Graphics/SVG/1.1/DTD/svg11.dtd" >
<svg xmlns="http://www.w3.org/2000/svg" xmlns:xlink="http://www.w3.org/1999/xlink" version="1.1">
<metadata>
Created by FontForge 20170731 at Fri May  5 14:19:05 2017
 By Aleksey,,,
Copyright (c) 2015 by Rosetta Type Foundry s.r.o. (info@rosettatype.com).
</metadata>
<defs>
<font id="Yrsa-Bold" horiz-adv-x="0" >
  <font-face 
    font-family="Yrsa"
    font-weight="700"
    font-stretch="normal"
    units-per-em="2750"
    panose-1="2 13 0 0 0 4 0 0 0 0"
    ascent="2000"
    descent="-750"
    x-height="1138"
    cap-height="1562"
    bbox="-466 -619 3145 2352"
    underline-thickness="150"
    underline-position="-415"
    unicode-range="U+000D-25CA"
  />
<missing-glyph horiz-adv-x="1770" 
d="M177 0v1416h1416v-1416h-1416zM440 387l119 -135l324 353l337 -353l113 113l-348 343l348 334l-119 116l-328 -351l-333 352l-114 -116l344 -338z" />
    <glyph glyph-name="f_b" unicode="fb" horiz-adv-x="2233" 
d="M1511 -23q-65 0 -132 7t-127 18.5t-110 25.5t-81 28v1429q-51 16 -108.5 24t-120.5 8q-43 0 -87 -9.5t-79.5 -34t-57.5 -66.5t-22 -105v-165h318v-194h-316v-725q0 -24 12.5 -37t36.5 -16l202 -23v-142h-759v142l107 20q23 4 35.5 17.5t12.5 37.5v722l-168 30v137l176 33
v62q0 107 52 214t137 191.5t194.5 138t222.5 53.5q66 0 133.5 -22.5t125.5 -58.5q67 28 135.5 50t125.5 33l48 -44v-712q59 60 139 92t171 32q90 0 167.5 -32t134.5 -98t89.5 -168.5t32.5 -242.5q0 -307 -164.5 -478.5t-475.5 -171.5zM1536 117q113 0 172 105.5t62 337.5
q1 113 -12 189.5t-39.5 122.5t-66 65t-90.5 19q-36 0 -73.5 -9t-71.5 -28v-773q24 -13 54 -21t65 -8z" />
    <glyph glyph-name="f_f" unicode="ff" horiz-adv-x="1783" 
d="M809 0h-729v142l107 20q23 4 35.5 17.5t12.5 37.5v722l-168 30v137l176 31l1 24q4 104 51.5 207.5t121.5 185t169 132t195 50.5q80 0 155.5 -31.5t137.5 -74.5l-75 -202q-57 13 -116 21t-91 7q-46 -1 -84 -9t-64.5 -31t-41 -64.5t-14.5 -109.5v-105h504v44
q0 106 45.5 216.5t119.5 199t169.5 145t195.5 56.5q82 0 160.5 -32.5t142.5 -75.5l-72 -202q-60 13 -123 21t-97 7q-46 -1 -83 -9t-62.5 -31t-39 -64.5t-13.5 -109.5v-165h318v-194h-316v-725q0 -24 12.5 -37t36.5 -16l205 -23v-142h-752v142l97 20q23 4 35.5 17.5
t12.5 37.5v726h-496v-725q0 -24 12.5 -37t36.5 -16l172 -23v-142z" />
    <glyph glyph-name="f_h" unicode="fh" horiz-adv-x="2338" 
d="M809 142v-142h-729v142l107 20q23 4 35.5 17.5t12.5 37.5v722l-168 30v137l176 33v62q0 107 53.5 214t139.5 191.5t197 138t224 53.5q66 0 137 -22.5t132 -59.5q67 29 136 51t126 33l49 -45v-726q69 67 159 100t196 33q201 0 275 -112.5t74 -317.5v-513q0 -23 12 -37.5
t34 -18.5l109 -20v-143h-628v142l67 20q22 8 33.5 21t11.5 36v473q0 140 -41 198.5t-130 58.5q-41 0 -85.5 -12t-86.5 -36v-682q0 -23 11 -36t33 -21l68 -20v-142h-620v143l108 20q22 4 34.5 18.5t12.5 37.5v1264q-55 16 -117 25t-128 9q-43 0 -88.5 -9.5t-81.5 -34
t-59.5 -66.5t-23.5 -105v-165h318v-194h-316v-725q0 -24 12.5 -37t36.5 -16z" />
    <glyph glyph-name="f_k" unicode="fk" horiz-adv-x="2298" 
d="M809 142v-142h-729v142l107 20q23 4 35.5 17.5t12.5 37.5v722l-168 30v137l176 33v62q0 107 53.5 214t139.5 191.5t197 138t224 53.5q66 0 137 -22.5t132 -59.5q67 29 136 51t126 33l49 -45v-1177l369 390l-183 33v136h597v-136l-117 -29q-40 -10 -60.5 -18t-44.5 -31
l-186 -182q35 -41 65.5 -91t64.5 -116l159 -307q13 -26 27.5 -37t41.5 -18l107 -29v-143h-414q-51 0 -84.5 59t-67.5 137l-88 199q-13 28 -26.5 55.5t-27.5 52.5l-132 -129v-155q0 -23 12 -37.5t34 -18.5l104 -20v-143h-658v143l108 20q22 4 34.5 19t12.5 38v1263
q-55 16 -117 25t-128 9q-43 0 -88.5 -9.5t-81.5 -34t-59.5 -66.5t-23.5 -105v-165h318v-194h-316v-725q0 -24 12.5 -37t36.5 -16z" />
    <glyph glyph-name="f_l" unicode="fl" horiz-adv-x="1649" 
d="M809 142v-142h-729v142l107 20q23 4 35.5 17.5t12.5 37.5v722l-168 30v137l176 33v62q0 107 53.5 214t139.5 191.5t197 138t224 53.5q66 0 137 -22.5t132 -59.5q67 29 136 51t126 33l49 -45v-1536q0 -24 12.5 -38t34.5 -18l121 -21v-142h-676v143l109 20q22 4 34 18
t12 37v1265q-55 16 -117 25t-128 9q-43 0 -88.5 -9.5t-81.5 -34t-59.5 -66.5t-23.5 -105v-165h318v-194h-316v-725q0 -24 12.5 -37t36.5 -16z" />
    <glyph glyph-name="f_f_b" unicode="ffb" horiz-adv-x="3082" 
d="M3000 627q0 -307 -164.5 -478.5t-475.5 -171.5q-65 0 -132 7t-127 18.5t-110 25.5t-81 28v1429q-51 16 -108.5 24t-120.5 8q-43 0 -87 -9.5t-79.5 -34t-57.5 -66.5t-22 -105v-165h318v-194h-316v-725q0 -24 12.5 -37t36.5 -16l202 -23v-142h-759v142l107 20
q23 4 35.5 17.5t12.5 37.5v726h-496v-725q0 -24 12.5 -37t36.5 -16l172 -23v-142h-729v142l107 20q23 4 35.5 17.5t12.5 37.5v722l-168 30v137l176 31l1 24q4 104 51.5 207.5t121.5 185t169 132t195 50.5q80 0 155.5 -31.5t137.5 -74.5l-75 -202q-57 13 -116 21t-91 7
q-46 -1 -84 -9t-64.5 -31t-41 -64.5t-14.5 -109.5v-105h504v64q0 107 52 214t137 191.5t194.5 138t222.5 53.5q66 0 133.5 -22.5t125.5 -58.5q67 28 135.5 50t125.5 33l48 -44v-712q59 60 139 92t171 32q90 0 167.5 -32t134.5 -98t89.5 -168.5t32.5 -242.5zM2385 117
q113 0 172 105.5t62 337.5q1 113 -12 189.5t-39.5 122.5t-66 65t-90.5 19q-36 0 -73.5 -9t-71.5 -28v-773q24 -13 54 -21t65 -8z" />
    <glyph glyph-name="f_f_h" unicode="ffh" horiz-adv-x="3187" 
d="M809 0h-729v142l107 20q23 4 35.5 17.5t12.5 37.5v722l-168 30v137l176 31l1 24q4 104 51.5 207.5t121.5 185t169 132t195 50.5q80 0 155.5 -31.5t137.5 -74.5l-75 -202q-57 13 -116 21t-91 7q-46 -1 -84 -9t-64.5 -31t-41 -64.5t-14.5 -109.5v-105h504v64
q0 107 53.5 214t139.5 191.5t197 138t224 53.5q66 0 137 -22.5t132 -59.5q67 29 136 51t126 33l49 -45v-726q69 67 159 100t196 33q201 0 275 -112.5t74 -317.5v-513q0 -23 12 -37.5t34 -18.5l109 -20v-143h-628v142l67 20q22 8 33.5 21t11.5 36v473q0 140 -41 198.5
t-130 58.5q-41 0 -85.5 -12t-86.5 -36v-682q0 -23 11 -36t33 -21l68 -20v-142h-620v143l108 20q22 4 34.5 18.5t12.5 37.5v1264q-55 16 -117 25t-128 9q-43 0 -88.5 -9.5t-81.5 -34t-59.5 -66.5t-23.5 -105v-165h318v-194h-316v-725q0 -24 12.5 -37t36.5 -16l172 -23v-142
h-729v142l107 20q23 4 35.5 17.5t12.5 37.5v726h-496v-725q0 -24 12.5 -37t36.5 -16l172 -23v-142z" />
    <glyph glyph-name="f_f_k" unicode="ffk" horiz-adv-x="3147" 
d="M809 0h-729v142l107 20q23 4 35.5 17.5t12.5 37.5v722l-168 30v137l176 31l1 24q4 104 51.5 207.5t121.5 185t169 132t195 50.5q80 0 155.5 -31.5t137.5 -74.5l-75 -202q-57 13 -116 21t-91 7q-46 -1 -84 -9t-64.5 -31t-41 -64.5t-14.5 -109.5v-105h504v64
q0 107 53.5 214t139.5 191.5t197 138t224 53.5q66 0 137 -22.5t132 -59.5q67 29 136 51t126 33l49 -45v-1177l369 390l-183 33v136h597v-136l-117 -29q-40 -10 -60.5 -18t-44.5 -31l-186 -182q35 -41 65.5 -91t64.5 -116l159 -307q13 -26 27.5 -37t41.5 -18l107 -29v-143
h-414q-51 0 -84.5 59t-67.5 137l-88 199q-13 28 -26.5 55.5t-27.5 52.5l-132 -129v-155q0 -23 12 -37.5t34 -18.5l104 -20v-143h-658v143l108 20q22 4 34.5 19t12.5 38v1263q-55 16 -117 25t-128 9q-43 0 -88.5 -9.5t-81.5 -34t-59.5 -66.5t-23.5 -105v-165h318v-194h-316
v-725q0 -24 12.5 -37t36.5 -16l172 -23v-142h-729v142l107 20q23 4 35.5 17.5t12.5 37.5v726h-496v-725q0 -24 12.5 -37t36.5 -16l172 -23v-142z" />
    <glyph glyph-name="f_f_l" unicode="ffl" horiz-adv-x="2498" 
d="M809 0h-729v142l107 20q23 4 35.5 17.5t12.5 37.5v722l-168 30v137l176 31l1 24q4 104 51.5 207.5t121.5 185t169 132t195 50.5q80 0 155.5 -31.5t137.5 -74.5l-75 -202q-57 13 -116 21t-91 7q-46 -1 -84 -9t-64.5 -31t-41 -64.5t-14.5 -109.5v-105h504v64
q0 107 53.5 214t139.5 191.5t197 138t224 53.5q66 0 137 -22.5t132 -59.5q67 29 136 51t126 33l49 -45v-1536q0 -24 12.5 -38t34.5 -18l121 -21v-142h-676v143l109 20q22 4 34 18t12 37v1265q-55 16 -117 25t-128 9q-43 0 -88.5 -9.5t-81.5 -34t-59.5 -66.5t-23.5 -105v-165
h318v-194h-316v-725q0 -24 12.5 -37t36.5 -16l172 -23v-142h-729v142l107 20q23 4 35.5 17.5t12.5 37.5v726h-496v-725q0 -24 12.5 -37t36.5 -16l172 -23v-142z" />
    <glyph glyph-name=".notdef" horiz-adv-x="1770" 
d="M177 0v1416h1416v-1416h-1416zM440 387l119 -135l324 353l337 -353l113 113l-348 343l348 334l-119 116l-328 -351l-333 352l-114 -116l344 -338z" />
    <glyph glyph-name=".null" 
 />
    <glyph glyph-name="uni000D" unicode="&#xd;" 
 />
    <glyph glyph-name="space" unicode=" " horiz-adv-x="517" 
 />
    <glyph glyph-name="exclam" unicode="!" horiz-adv-x="710" 
d="M156 1501v211h398v-211l-91 -993h-216zM556 163q0 -81 -55 -130t-146 -49t-146 49t-55 130q0 82 55 131t146 49t146 -49t55 -131z" />
    <glyph glyph-name="quotedbl" unicode="&#x22;" horiz-adv-x="1120" 
d="M741 852l-52 877h319l-53 -877h-214zM164 852l-52 877h319l-53 -877h-214z" />
    <glyph glyph-name="numbersign" unicode="#" horiz-adv-x="1504" 
d="M590 530h266l39 330h-270zM258 0l41 350h-206l-3 180h232l37 330h-235l1 180h261l35 333h268l-35 -333h269l36 333h269l-37 -333h227l-1 -180h-253l-33 -330h242l1 -180h-266l-39 -350h-268l37 350h-271l-39 -350h-270z" />
    <glyph glyph-name="dollar" unicode="$" horiz-adv-x="1232" 
d="M675 -209h-197v232q-110 11 -207.5 39t-166.5 59q-5 97 3 204.5t23 184.5h212l38 -214q4 -24 14 -38t25 -27q28 -23 79 -43.5t117 -20.5q87 0 137.5 40.5t50.5 106.5q0 47 -26 82.5t-69.5 66t-102.5 58t-124 57.5q-75 35 -142 73.5t-116.5 85t-79 106t-29.5 135.5
q0 73 28.5 139t85 117.5t143.5 85t202 41.5v230h197v-233q82 -8 161.5 -26t140.5 -41q7 -87 1 -183.5t-21 -182.5h-206l-42 191q-5 25 -13.5 40.5t-25.5 28.5q-24 18 -61.5 27t-80.5 9q-84 0 -127.5 -38t-43.5 -95q0 -45 25 -78t67.5 -61t101 -54.5t124.5 -57.5
q173 -82 281 -174t108 -240q0 -69 -27 -138t-85 -125t-150.5 -94.5t-221.5 -47.5v-227z" />
    <glyph glyph-name="percent" unicode="%" horiz-adv-x="2072" 
d="M903 1143q0 -113 -35 -199.5t-94 -143.5t-137 -86t-164 -29q-192 0 -298 118.5t-106 311.5q0 113 35 199.5t94 143.5t137.5 86t164.5 29q191 0 297 -118.5t106 -311.5zM671 0h-237l969 1562h237zM353 1146q0 -165 36.5 -244t104.5 -79q61 0 92.5 68.5t31.5 220.5
q0 164 -36 243.5t-105 79.5q-61 0 -92.5 -68.5t-31.5 -220.5zM2004 445q0 -114 -35 -200.5t-94 -143.5t-137 -86t-164 -29q-192 0 -298 118.5t-106 311.5q0 114 35 200t94 143t137.5 86t164.5 29q191 0 297 -118t106 -311zM1454 447q0 -164 36.5 -243.5t104.5 -79.5
q61 0 92.5 68.5t31.5 221.5q0 163 -36 242.5t-105 79.5q-61 0 -92.5 -68t-31.5 -221z" />
    <glyph glyph-name="ampersand" unicode="&#x26;" horiz-adv-x="1674" 
d="M570 1269q0 -71 27 -143.5t111 -189.5q75 73 104.5 163t29.5 171q0 108 -35.5 156t-91.5 48q-66 0 -105.5 -52t-39.5 -153zM710 126q42 0 94 10t104 38q-58 52 -117 114t-113.5 124.5t-103 122.5t-85.5 107q-34 -37 -58.5 -87.5t-24.5 -126.5q0 -134 80.5 -218t223.5 -84
zM1311 -20q-72 0 -141 22t-150 79q-78 -54 -185 -82.5t-222 -28.5t-213 23.5t-169 72.5t-111.5 126.5t-40.5 183.5q0 94 30 161.5t76 113t103 73t110 42.5q-75 109 -119 210.5t-44 206.5q0 92 35.5 168t99.5 129t155.5 82t203.5 29q204 0 310.5 -94t106.5 -253
q0 -141 -87.5 -249t-270.5 -163q38 -49 84.5 -105.5t96 -114t100.5 -114t100 -106.5q35 58 48.5 122t13.5 115q0 28 -6.5 43t-29.5 21l-152 33v151h556v-151l-104 -32q-22 -6 -28 -19.5t-10 -38.5q-19 -93 -64 -179.5t-127 -157.5q46 -41 84 -66.5t74 -38.5t75 -17.5
t88 -4.5v-146q-56 -19 -133 -32.5t-143 -13.5z" />
    <glyph glyph-name="quotesingle" unicode="'" horiz-adv-x="543" 
d="M164 852l-52 877h319l-53 -877h-214z" />
    <glyph glyph-name="parenleft" unicode="(" horiz-adv-x="747" 
d="M713 -353l-110 -113q-33 29 -119.5 117t-175.5 240t-158.5 374t-69.5 517q0 273 67 492t154.5 376t174.5 253t127 125l110 -115q-38 -61 -89.5 -157.5t-98.5 -231t-80 -313.5t-33 -403q-1 -243 32.5 -432.5t81 -330t99.5 -238.5t88 -160z" />
    <glyph glyph-name="parenright" unicode=")" horiz-adv-x="747" 
d="M668 779q0 -273 -67 -492t-154.5 -376t-174.5 -252.5t-127 -124.5l-110 114q38 61 89.5 157.5t98.5 231t80 313.5t33 403q1 243 -32.5 432.5t-81 330t-99.5 238.5t-88 160l110 114q33 -29 119.5 -117t175.5 -240t158.5 -374.5t69.5 -517.5z" />
    <glyph glyph-name="asterisk" unicode="*" horiz-adv-x="1218" 
d="M732 947l18 -154h-282l18 154l75 263l-189 -197l-124 -93l-141 244l143 61l264 66l-264 66l-143 61l141 244l124 -93l189 -196l-75 262l-18 154h282l-18 -154l-75 -262l189 196l124 93l141 -244l-143 -61l-264 -66l264 -66l143 -61l-141 -244l-124 93l-189 197z" />
    <glyph glyph-name="plus" unicode="+" horiz-adv-x="1103" 
d="M670 137h-237v221l7 150l-150 -6h-208v221h208l150 -7l-7 151v221h237v-221l-7 -151l150 7h208v-221h-208l-150 6l7 -150v-221z" />
    <glyph glyph-name="comma" unicode="," horiz-adv-x="621" 
d="M519 82q0 -92 -32.5 -176.5t-85 -155t-120 -128t-138.5 -95.5l-69 88q75 72 127.5 155.5t52.5 155.5q0 44 -20 57.5t-48 33.5q-32 23 -57.5 62t-25.5 97q0 84 53.5 136t137.5 52q99 0 162 -75t63 -207z" />
    <glyph glyph-name="hyphen" unicode="-" horiz-adv-x="1030" 
d="M129 480v232h773v-232h-773z" />
    <glyph glyph-name="period" unicode="." horiz-adv-x="624" 
d="M513 168q0 -84 -55 -134t-146 -50t-146 50t-55 134t55 134t146 50t146 -50t55 -134z" />
    <glyph glyph-name="slash" unicode="/" horiz-adv-x="1035" 
d="M338 -288h-283l645 2030h282z" />
    <glyph glyph-name="zero" unicode="0" horiz-adv-x="1395" 
d="M678 -31q-157 0 -265.5 53t-175.5 147t-96.5 224t-29.5 283q0 190 45 329.5t125 229.5t192 133.5t244 43.5q156 0 265 -52.5t175.5 -145.5t96.5 -222.5t30 -282.5q0 -191 -45 -331t-125 -230.5t-192 -134.5t-244 -44zM693 1257q-93 0 -139 -115.5t-46 -400.5
q0 -334 45 -475t149 -141q92 0 138.5 116.5t46.5 403.5q0 333 -45 472.5t-149 139.5z" />
    <glyph glyph-name="one" unicode="1" horiz-adv-x="997" 
d="M730 1383v-1154q0 -23 12 -37t34 -18l193 -33v-141h-876v141l238 34q23 3 35.5 17.5t12.5 37.5v838q-23 -4 -56 -8.5t-69 -8.5t-71.5 -6.5t-63.5 -2.5l-26 150q59 14 124.5 39t127 55t115 63t89.5 64z" />
    <glyph glyph-name="two" unicode="2" horiz-adv-x="1254" 
d="M1115 0h-987l-66 187q173 146 294.5 255.5t196.5 195t109.5 156.5t34.5 141q0 104 -62.5 157t-145.5 53q-75 0 -144.5 -43t-129.5 -123l-107 99q29 70 76 131.5t111.5 106t147 70.5t181.5 26q97 0 181 -29t145.5 -83t97 -132t35.5 -174q0 -97 -40 -188t-124.5 -182.5
t-219.5 -189.5t-323 -210h226q57 0 117 5.5t92 12.5q27 6 44 18t26 31l93 200l184 -21q0 -56 -3 -118t-8 -123t-13.5 -120t-18.5 -109z" />
    <glyph glyph-name="three" unicode="3" horiz-adv-x="1192" 
d="M1104 405q0 -100 -46 -181t-123.5 -137.5t-181 -87.5t-218.5 -31q-90 0 -163.5 17.5t-132 45.5t-104.5 63t-80 70l92 127q57 -44 134.5 -76.5t174.5 -32.5q104 0 179 57.5t76 178.5q1 89 -53 152t-144 74q-31 -7 -74 -17t-73 -15l-41 156q58 14 115 36.5t101.5 54.5
t72.5 76t28 101q0 63 -41.5 106t-107.5 43q-82 0 -155.5 -42t-113.5 -88l-108 101q34 50 80 96.5t106.5 81.5t137 56t170.5 21q80 0 155 -19t132 -58.5t91.5 -102t34.5 -148.5q0 -64 -29.5 -120.5t-76 -101t-105.5 -76.5t-117 -47q68 3 140.5 -15t131.5 -59t97.5 -106
t38.5 -153z" />
    <glyph glyph-name="four" unicode="4" horiz-adv-x="1272" 
d="M1226 241h-212v-241h-330v241h-600l-69 154q145 228 275 475.5t252 513.5h312l50 -63q-88 -172 -163.5 -312.5t-146 -252t-142.5 -197t-154 -148.5l389 21l36 306l291 15v-304l212 11v-219z" />
    <glyph glyph-name="five" unicode="5" horiz-adv-x="1197" 
d="M151 295q63 -51 139.5 -82t157.5 -31q120 0 196 71.5t76 191.5q0 108 -62 175.5t-170 67.5q-59 0 -110.5 -20t-103.5 -45l-116 77l53 681h823l-29 -259h-593l-44 -313q63 54 141 73t150 19q204 0 328.5 -116.5t124.5 -310.5q0 -115 -45 -209t-122.5 -159.5t-183 -101.5
t-224.5 -36q-148 0 -276 53.5t-203 146.5z" />
    <glyph glyph-name="six" unicode="6" horiz-adv-x="1295" 
d="M1215 473q0 -108 -37 -201t-106 -160t-170.5 -105.5t-229.5 -38.5q-130 0 -236.5 41.5t-181.5 122t-116.5 200.5t-41.5 274q0 181 55.5 330.5t151.5 254.5t228 163t283 58q83 0 168 -17t151 -57l-51 -150q-45 15 -89.5 22.5t-80.5 7.5q-163 0 -281.5 -111t-146.5 -322
q49 50 136.5 84.5t188.5 34.5q94 0 169.5 -32t128 -88.5t80.5 -136.5t28 -174zM687 127q77 0 125.5 73t48.5 213q0 146 -57 219.5t-147 73.5q-37 0 -89.5 -11.5t-91.5 -35.5v-92q0 -216 59 -328t152 -112z" />
    <glyph glyph-name="seven" unicode="7" horiz-adv-x="1166" 
d="M927 1167h-281q-64 0 -126 -6t-96 -16q-25 -6 -37.5 -17t-21.5 -36l-88 -237h-184q-12 127 -6.5 265.5t20.5 260.5h958l83 -178q-96 -128 -174.5 -260.5t-135.5 -276.5t-93 -308.5t-47 -357.5h-327l-52 54q9 159 61.5 315t135 298t189.5 269.5t222 230.5z" />
    <glyph glyph-name="eight" unicode="8" horiz-adv-x="1308" 
d="M640 -32q-124 0 -226 24.5t-173.5 71t-111 114.5t-39.5 154q0 122 75.5 215.5t200.5 136.5q-83 56 -144.5 138t-61.5 204q0 173 135.5 279t369.5 106q107 0 196 -23.5t151.5 -66t97.5 -103t35 -134.5q0 -107 -68.5 -188.5t-174.5 -124.5q61 -31 118 -68.5t100.5 -85
t70 -108t26.5 -138.5q0 -95 -40.5 -170t-115.5 -126.5t-182 -79t-239 -27.5zM488 1112q0 -92 75 -151.5t185 -113.5q51 47 68.5 105.5t17.5 104.5q0 101 -52 152.5t-133 51.5q-73 0 -117 -40t-44 -109zM655 120q95 0 143.5 53.5t48.5 122.5q0 52 -26 93t-70.5 75t-104.5 66
t-127 66h-0.5t-2.5 1q-50 -43 -77.5 -104.5t-27.5 -130.5q0 -60 20.5 -105.5t54.5 -76t78 -45.5t91 -15z" />
    <glyph glyph-name="nine" unicode="9" horiz-adv-x="1296" 
d="M639 675q37 0 89 11.5t90 34.5v85q0 205 -57 326t-156 121q-84 0 -128 -80t-44 -209q0 -141 56.5 -215t149.5 -74zM524 -32q-99 0 -199 27.5t-172 84.5l56 144q48 -25 111 -42t135 -17q63 0 124 24.5t110 77t82.5 135t43.5 197.5q-49 -50 -137 -86.5t-187 -36.5
q-97 0 -174 32t-129.5 88.5t-80.5 135t-28 171.5q0 109 36.5 203t105 161.5t170 106t229.5 38.5q129 0 236.5 -42t183 -124t117 -206.5t41.5 -288.5q0 -188 -52.5 -335t-143.5 -246t-214.5 -150.5t-263.5 -51.5z" />
    <glyph glyph-name="colon" unicode=":" horiz-adv-x="681" 
d="M541 994q0 -84 -55 -134t-146 -50t-146 50t-55 134t55 134t146 50t146 -50t55 -134zM541 168q0 -84 -55 -134t-146 -50t-146 50t-55 134t55 134t146 50t146 -50t55 -134z" />
    <glyph glyph-name="semicolon" unicode=";" horiz-adv-x="688" 
d="M543 998q0 -84 -55 -134t-146 -50t-146 50t-55 134t55 134t146 50t146 -50t55 -134zM556 82q0 -92 -32.5 -176.5t-85 -155t-120 -128t-138.5 -95.5l-69 88q75 72 127.5 155.5t52.5 155.5q0 44 -20 57.5t-48 33.5q-32 23 -57.5 62t-25.5 97q0 84 53.5 136t137.5 52
q99 0 162 -75t63 -207z" />
    <glyph glyph-name="less" unicode="&#x3c;" horiz-adv-x="1113" 
d="M908 86l-837 432v189l837 431l102 -222l-654 -301l654 -303z" />
    <glyph glyph-name="equal" unicode="=" horiz-adv-x="1207" 
d="M1064 726h-939v227h939v-227zM1064 272h-939v227h939v-227z" />
    <glyph glyph-name="greater" unicode="&#x3e;" horiz-adv-x="1113" 
d="M205 86l-102 226l654 302l-654 302l102 222l837 -431v-189z" />
    <glyph glyph-name="question" unicode="?" horiz-adv-x="1157" 
d="M614 508h-208q-28 49 -58 116.5t-30 129.5q0 90 60.5 150.5t145.5 138.5q100 93 149 171.5t49 172.5q0 84 -44.5 141t-116.5 57q-45 0 -78 -19.5t-52 -41.5q-18 -22 -26.5 -44t-12.5 -57l-29 -238h-214q-32 93 -53 200.5t-28 208.5q82 69 206 115.5t267 46.5
q125 0 227 -36t173.5 -99t111 -148.5t39.5 -184.5q0 -157 -93.5 -264t-241.5 -210q-38 -27 -60 -43t-34 -31t-17 -33.5t-10 -50.5zM712 163q0 -81 -55 -130t-146 -49t-146 49t-55 130q0 82 55 131t146 49t146 -49.5t55 -130.5z" />
    <glyph glyph-name="at" unicode="@" horiz-adv-x="2126" 
d="M920 -527q-193 0 -347.5 61t-261 172.5t-165 271t-61.5 354.5q-4 260 87.5 486.5t250 391t372 259.5t451.5 95q172 0 318 -51t251.5 -147.5t165 -238.5t59.5 -322q0 -210 -75 -369.5t-177.5 -264.5t-211 -158t-174.5 -53t-108 52.5t-42 152.5q0 40 7.5 106.5t23.5 161.5
q-33 -93 -76.5 -183t-96.5 -159.5t-116 -112.5t-135 -43q-59 0 -117 30.5t-103 88t-73 143t-28 194.5q0 125 39 250.5t111.5 224.5t177.5 161t235 62q55 0 115 -15t134 -54l65 69l196 -61q-4 -20 -23 -106t-39.5 -196.5t-37 -227.5t-16.5 -199q0 -68 13.5 -97.5t42.5 -29.5
q34 0 83 35.5t94 105t77 173.5t32 240q0 187 -63 314.5t-161.5 203.5t-220.5 108.5t-239 32.5q-184 0 -339 -70t-266.5 -195.5t-174 -303.5t-62.5 -393q0 -201 54 -347.5t145.5 -240t213.5 -138t256 -44.5q54 0 113.5 6.5t114 18.5t101.5 28.5t76 35.5l55 -119
q-87 -72 -227 -111t-293 -39zM933 201q32 0 72 33t81 93.5t81 148t72 195.5q10 33 18.5 64.5t15.5 60.5q-41 49 -100.5 79.5t-112.5 30.5q-61 0 -106.5 -38.5t-75 -99t-44.5 -136t-15 -148.5q0 -49 6.5 -99.5t20.5 -91t36 -66.5t51 -26z" />
    <glyph glyph-name="A" unicode="A" horiz-adv-x="1607" 
d="M918 628l-205 658l-199 -658h404zM567 144v-144h-584v144l136 33q20 5 32.5 16.5t19.5 31.5l455 1342h355l458 -1342q7 -20 20.5 -31t32.5 -17l125 -33v-144h-750v144l191 31l-87 282h-509l-86 -282z" />
    <glyph glyph-name="B" unicode="B" horiz-adv-x="1589" 
d="M840 -12q-56 0 -101 2t-85 4t-81 4t-90 2h-394v144l162 30q18 3 29 16.5t11 32.5v1107q0 19 -11 32t-29 17l-162 32v151h389q96 0 180.5 6t188.5 6q164 0 272 -23.5t171.5 -69.5t89 -115t25.5 -160q0 -154 -76.5 -248t-203.5 -126q82 -6 153 -31.5t122.5 -71.5t80.5 -113
t29 -154q0 -101 -32.5 -188t-109.5 -150.5t-206.5 -99.5t-321.5 -36zM820 883q110 0 160 75.5t50 215.5q0 138 -56.5 199t-173.5 61q-8 0 -26 -1t-38.5 -2.5t-39 -3t-27.5 -3.5v-539q45 -1 84 -1.5t67 -0.5zM820 134q145 0 208.5 84t63.5 234q0 151 -65 210.5t-190 59.5
q-34 0 -78 -1.5t-90 -2.5v-570q28 -5 69.5 -9.5t81.5 -4.5z" />
    <glyph glyph-name="C" unicode="C" horiz-adv-x="1459" 
d="M809 -35q-360 0 -537.5 202.5t-177.5 579.5q0 216 55.5 376t156.5 264t244.5 154.5t317.5 50.5q119 0 249.5 -22t238.5 -62q7 -99 2 -213t-24 -239h-223l-59 262q-4 19 -15 40.5t-38 39.5q-28 19 -71 31t-90 12q-150 0 -234 -151t-84 -504q0 -327 79 -497t248 -170
q49 0 96.5 14.5t78.5 44.5q13 12 23.5 29.5t20.5 48.5l71 232l219 -19q5 -92 2.5 -198.5t-18.5 -219.5q-54 -18 -119 -34t-134 -27.5t-140.5 -18t-137.5 -6.5z" />
    <glyph glyph-name="D" unicode="D" horiz-adv-x="1689" 
d="M475 1562q101 0 186 6t172 6q380 0 571 -178.5t191 -562.5q0 -207 -53.5 -367.5t-154 -268.5t-247 -162.5t-331.5 -50.5q-34 1 -79 3.5t-90.5 5.5t-88.5 5t-72 2h-390v144l160 30q19 3 30.5 17t11.5 33v1106q0 19 -11 32t-29 17l-162 32v151h386zM671 161q25 -11 66 -16
t77 -5q86 1 154.5 33t115.5 105.5t72 196t25 301.5q0 304 -86.5 477t-288.5 173q-51 0 -88.5 -8t-46.5 -9v-1248z" />
    <glyph glyph-name="E" unicode="E" horiz-adv-x="1452" 
d="M1297 1135h-178l-54 185q-7 26 -22 41t-37 24q-25 10 -71 16t-95 6h-169v-525l430 16v-205l-430 11v-541h211q49 0 102.5 6t78.5 16q22 9 33 23.5t21 41.5l86 248l177 -28q0 -120 -9 -234t-28 -236h-1254v144l156 29q23 4 34.5 18.5t11.5 37.5v1095q0 23 -11.5 37.5
t-34.5 19.5l-156 30v151h1202q13 -105 14 -211.5t-8 -215.5z" />
    <glyph glyph-name="F" unicode="F" horiz-adv-x="1348" 
d="M1101 667l-430 12v-455q0 -19 12.5 -33t32.5 -16l256 -31v-144h-883v144l159 30q19 4 31 18t12 33v1099q0 23 -11.5 37.5t-34.5 19.5l-156 30v151h1202q13 -105 14 -211.5t-8 -215.5h-178l-54 185q-7 26 -22 41t-37 24q-25 10 -71 16t-95 6h-169v-550l430 16v-206z" />
    <glyph glyph-name="G" unicode="G" horiz-adv-x="1595" 
d="M1359 -16l-196 146q-66 -69 -172.5 -115.5t-251.5 -46.5q-156 0 -276.5 54.5t-202 156.5t-123.5 250.5t-42 335.5q0 422 208 624.5t586 202.5q137 0 271 -26.5t235 -66.5q7 -98 1 -203.5t-22 -210.5h-230l-55 229q-8 31 -19 47t-30 31q-26 20 -67 34.5t-96 14.5
q-171 0 -256.5 -162.5t-85.5 -521.5q0 -287 68 -440.5t255 -153.5q64 0 117.5 16.5t95.5 45.5v408l-190 21v155h650v-155l-102 -17v-613z" />
    <glyph glyph-name="H" unicode="H" horiz-adv-x="1889" 
d="M1800 1562v-151l-157 -30q-22 -5 -34 -20.5t-12 -37.5v-1094q0 -23 12 -37t35 -19l156 -29v-144h-739v144l111 29q22 6 34 19.5t12 36.5v473h-547v-473q0 -23 11.5 -37t33.5 -19l125 -29v-144h-752v144l156 29q23 5 34.5 19t11.5 37v1094q0 25 -11.5 39t-33.5 19l-157 30
v151h752v-151l-126 -30q-22 -5 -33 -19t-11 -39v-438h547v438q0 22 -11.5 37t-33.5 21l-113 30v151h740z" />
    <glyph glyph-name="I" unicode="I" horiz-adv-x="962" 
d="M873 1562v-151l-156 -30q-23 -5 -34.5 -19.5t-11.5 -37.5v-1094q0 -23 11.5 -37.5t34.5 -18.5l156 -30v-144h-784v144l156 29q23 4 34.5 18.5t11.5 37.5v1095q0 23 -11.5 37.5t-34.5 19.5l-156 30v151h784z" />
    <glyph glyph-name="J" unicode="J" horiz-adv-x="904" 
d="M693 1381q-23 -6 -34.5 -20t-11.5 -37v-973q0 -174 -26.5 -298.5t-95.5 -213.5t-191 -151t-311 -111l-64 152q100 52 161 102.5t93.5 114t43 149.5t10.5 209v1020q0 23 -12 37.5t-34 19.5l-156 30v151h764v-151z" />
    <glyph glyph-name="K" unicode="K" horiz-adv-x="1675" 
d="M872 143v-143h-783v144l155 29q22 5 34.5 18.5t12.5 36.5v1096q0 23 -12 37.5t-34 19.5l-156 30v151h782v-151l-156 -30q-22 -5 -34 -19.5t-12 -37.5v-572l515 629l-176 30l-1 151h616v-150l-160 -31q-19 -4 -33 -11.5t-27 -20.5l-333 -378q58 -69 102 -143.5t100 -178.5
l221 -413q11 -20 27 -39.5t50 -28.5l95 -25v-143h-439q-43 0 -79.5 54.5t-77.5 142.5l-129 280q-34 75 -60.5 126.5t-50.5 90.5l-160 -187v-283q0 -23 12.5 -36.5t35.5 -17.5z" />
    <glyph glyph-name="L" unicode="L" horiz-adv-x="1417" 
d="M1083 255l99 323l189 -26q0 -127 -5 -268t-35 -284h-1242v144l155 29q23 4 35 18.5t12 37.5v1096q0 23 -12 37.5t-34 18.5l-156 30v151h834v-151l-205 -33q-23 -4 -35 -18t-12 -37v-1158h173q62 0 108.5 7.5t72.5 17.5q22 9 36.5 24t21.5 41z" />
    <glyph glyph-name="M" unicode="M" horiz-adv-x="2296" 
d="M664 144v-144h-624v144l155 33q22 4 33.5 17.5t14.5 36.5l131 1090q3 24 -8.5 40t-34.5 20l-171 30v151h725l270 -1039l244 1039h728v-151l-181 -30q-24 -4 -35 -20t-7 -40l162 -1091q3 -22 15.5 -35.5t33.5 -17.5l149 -33v-144h-753v144l180 30l-156 1150l-299 -1269
h-305l-359 1260l-127 -1141z" />
    <glyph glyph-name="N" unicode="N" horiz-adv-x="1807" 
d="M729 144v-144h-640v144l156 28q23 4 34.5 18.5t11.5 37.5v1096q0 23 -11.5 37.5t-34.5 19.5l-156 30v151h592l655 -1065v827q0 23 -12 38t-34 19l-166 30v151h613v-151l-145 -30q-23 -5 -34.5 -19.5t-11.5 -37.5v-1324h-343l-702 1152v-923q0 -23 12 -37.5t34 -18.5z" />
    <glyph glyph-name="O" unicode="O" horiz-adv-x="1599" 
d="M773 -34q-176 0 -304.5 55t-211.5 156t-123 247t-40 327q0 199 47 356t139 265t229.5 165t315.5 57q176 0 305 -55t212 -156.5t123 -247.5t40 -327q0 -198 -47 -355.5t-139 -265t-229.5 -164.5t-316.5 -57zM804 1438q-146 0 -220 -156t-74 -512q0 -346 70.5 -497.5
t213.5 -151.5q144 0 219 158t75 515q0 346 -70.5 495t-213.5 149z" />
    <glyph glyph-name="P" unicode="P" horiz-adv-x="1466" 
d="M792 698q52 0 96.5 20t77 66.5t51 124.5t18.5 194q0 171 -63 249.5t-183 78.5q-53 0 -75.5 -4.5t-42.5 -7.5v-713q28 -3 55 -5.5t66 -2.5zM962 144v-144h-873v144l159 30q19 4 31 17.5t12 32.5v1106q0 17 -11 31t-29 18l-162 32v151h399q66 0 147 6t195 5
q171 -1 285 -31.5t181.5 -89t95.5 -144t28 -195.5q0 -261 -157.5 -410t-460.5 -149q-34 0 -67 1.5t-64 3.5v-335q0 -19 12.5 -33t32.5 -16z" />
    <glyph glyph-name="Q" unicode="Q" horiz-adv-x="1598" 
d="M1361 -423q-115 0 -193.5 43.5t-143 104.5t-129.5 128t-154 113q-167 5 -290 63.5t-201.5 160t-117 244.5t-38.5 317q0 195 47 352t139 265.5t229.5 167t315.5 58.5q176 0 305 -56t212 -158t123 -248t40 -324q0 -310 -124 -519t-349 -284q54 -16 102 -38.5t101 -51.5
q80 -45 151 -66.5t145 -21.5q35 0 64.5 3.5t54.5 8.5l34 -120q-41 -49 -130.5 -95.5t-192.5 -46.5zM803 1438q-145 0 -219.5 -156t-74.5 -512q0 -346 70.5 -497.5t213.5 -151.5q145 0 220 158t75 515q0 346 -71 495t-214 149z" />
    <glyph glyph-name="R" unicode="R" horiz-adv-x="1655" 
d="M669 1423v-617q42 -5 86 -5h67q98 1 164.5 81t66.5 256q0 161 -64.5 228t-196.5 67q-34 0 -66 -3t-57 -7zM872 143v-143h-783v144l155 29q22 5 34.5 18.5t12.5 36.5v1097q0 23 -12 37t-34 19l-156 30v151h381q87 0 167.5 6t186.5 6q336 0 482.5 -96.5t146.5 -322.5
q0 -110 -29.5 -185t-76.5 -123.5t-107 -77t-120 -45.5q79 -34 135 -92t99 -155l108 -242q16 -34 31 -47t41 -20l95 -25v-143h-429q-44 0 -78.5 56t-70.5 146l-101 262q-27 67 -53.5 117t-54.5 81h-173v-438q0 -23 12.5 -36.5t35.5 -17.5z" />
    <glyph glyph-name="S" unicode="S" horiz-adv-x="1322" 
d="M1237 442q0 -84 -32 -169.5t-102.5 -153t-185 -110t-276.5 -42.5q-155 0 -292 36t-236 83q-3 54 -1.5 113.5t5 117t10 111t14.5 97.5h215l39 -259q4 -23 13 -42t29 -35q30 -27 87 -52t126 -25q99 0 154.5 55t55.5 144q0 63 -26.5 112t-72 89t-107 75.5t-129.5 70.5
q-78 41 -151 83.5t-128 96t-88.5 125t-33.5 169.5t35.5 182.5t106 146t177.5 96.5t249 35q119 0 241 -23t212 -60q8 -99 1.5 -207.5t-22.5 -204.5h-209l-42 227q-6 29 -15.5 48t-27.5 32q-27 20 -70.5 32t-86.5 12q-90 0 -140.5 -50.5t-50.5 -132.5q0 -57 23 -100t65.5 -79
t104.5 -70t139 -74q86 -44 163 -93t134.5 -108t91.5 -132.5t34 -166.5z" />
    <glyph glyph-name="T" unicode="T" horiz-adv-x="1610" 
d="M1280 0h-943v143l234 38q23 4 35.5 17.5t12.5 36.5v1172h-85q-40 0 -77 -5t-60 -14q-21 -8 -32 -21t-15 -32l-85 -345h-185q-17 154 -20.5 286t12.5 286h1472q16 -154 12.5 -288t-19.5 -284h-185l-89 346q-5 19 -16 31.5t-31 20.5q-23 10 -60 14.5t-77 4.5h-81v-1172
q0 -23 12.5 -36.5t35.5 -17.5l234 -38v-143z" />
    <glyph glyph-name="U" unicode="U" horiz-adv-x="1729" 
d="M1046 1562h599v-151l-110 -28q-22 -6 -33.5 -21t-11.5 -37v-747q0 -164 -43.5 -279.5t-123.5 -187t-194 -104t-254 -32.5q-325 0 -486 144.5t-161 471.5v734q0 22 -11 36.5t-33 21.5l-100 28v151h741v-151l-159 -34q-22 -4 -34 -19t-12 -37v-762q0 -204 70 -320t245 -116
q92 0 154 32t99.5 89.5t53.5 137.5t16 175v767q0 23 -12 37.5t-34 18.5l-166 31v151z" />
    <glyph glyph-name="V" unicode="V" horiz-adv-x="1610" 
d="M988 -5h-338l-490 1338q-7 20 -20.5 31.5t-32.5 16.5l-127 30v151h754v-151l-193 -36l360 -1061l323 1061l-193 36v151h583v-151l-136 -30q-20 -5 -33 -16.5t-20 -31.5z" />
    <glyph glyph-name="W" unicode="W" horiz-adv-x="2323" 
d="M1424 -6l-260 910l-245 -910h-340l-409 1337q-7 19 -19 32.5t-31 17.5l-132 30v151h732v-151l-172 -36l279 -1066l245 894l-43 128q-6 19 -18.5 31t-30.5 19l-91 30v151h711v-151l-198 -36l270 -1042l271 1042l-172 36v151h557v-151l-140 -30q-20 -4 -32.5 -16.5
t-18.5 -34.5l-373 -1336h-340z" />
    <glyph glyph-name="X" unicode="X" horiz-adv-x="1554" 
d="M603 144v-144h-587v144l148 28q19 4 31.5 13t24.5 26l373 532l-385 597q-10 16 -23 25.5t-31 15.5l-112 30v151h733v-151l-153 -35l237 -389l257 389l-171 35v151h555v-151l-136 -30q-19 -4 -33 -13t-25 -25l-348 -488l418 -643q10 -16 23.5 -25.5t32.5 -14.5l114 -28
v-144h-744v144l155 33l-263 429l-278 -429z" />
    <glyph glyph-name="Y" unicode="Y" horiz-adv-x="1511" 
d="M1198 0h-866v143l190 38q23 4 35 17.5t12 36.5v377l-413 727q-10 17 -23.5 27t-32.5 14l-124 31v151h761v-151l-157 -40l279 -540l260 541l-175 39v151h558v-151l-115 -29q-19 -4 -33 -13.5t-23 -27.5l-370 -729v-377q0 -23 12 -36.5t35 -17.5l190 -38v-143z" />
    <glyph glyph-name="Z" unicode="Z" horiz-adv-x="1426" 
d="M1283 0h-1161l-73 125l835 1289h-189q-62 0 -108.5 -6t-72.5 -16q-22 -9 -36 -24.5t-23 -40.5l-91 -278h-211q-4 126 4 261t30 255h1091l52 -128l-812 -1272h260q63 0 109.5 6t71.5 16q21 8 35.5 23.5t23.5 41.5l102 293l203 -27q1 -52 -1 -118.5t-7 -136t-13.5 -138
t-18.5 -125.5z" />
    <glyph glyph-name="bracketleft" unicode="[" horiz-adv-x="835" 
d="M796 -387q-67 -9 -140.5 -15.5t-146 -10.5t-142.5 -6t-130 -1l-48 44v2312l48 44q60 1 130 -1t142.5 -6t146 -10.5t140.5 -15.5v-142l-240 -29q-25 -3 -38.5 -18t-13.5 -40v-1876q0 -25 13.5 -40t38.5 -18l240 -28v-143z" />
    <glyph glyph-name="backslash" unicode="\" horiz-adv-x="1035" 
d="M977 -288h-282l-645 2030h283z" />
    <glyph glyph-name="bracketright" unicode="]" horiz-adv-x="835" 
d="M646 -376l-48 -44q-60 -1 -130 1t-142.5 6t-146 10.5t-140.5 15.5v143l240 28q25 3 38.5 18t13.5 40v1876q0 25 -13.5 40t-38.5 18l-240 29v142q67 9 140.5 15.5t146 10.5t142.5 6t130 1l48 -44v-2312z" />
    <glyph glyph-name="asciicircum" unicode="^" horiz-adv-x="1299" 
d="M1080 746l-447 502l-431 -502l-128 102l423 686l267 23l464 -709z" />
    <glyph glyph-name="underscore" unicode="_" horiz-adv-x="1751" 
d="M0 -250h1751v-162h-1751v162z" />
    <glyph glyph-name="grave" unicode="`" horiz-adv-x="1000" 
d="M358 1813l382 -446l-97 -116q-149 82 -277.5 181.5t-204.5 196.5z" />
    <glyph glyph-name="a" unicode="a" horiz-adv-x="1251" 
d="M552 176q45 0 85.5 13t74.5 37v247l-110 -7q-97 -5 -132 -53t-35 -112q0 -63 27 -94t90 -31zM975 -19q-86 0 -147 29.5t-93 104.5q-58 -66 -144.5 -102t-192.5 -36q-152 0 -242.5 77.5t-90.5 203.5q0 80 36.5 141t97.5 102.5t141.5 64.5t167.5 28l204 11v112
q0 122 -56 169t-161 47q-91 0 -169.5 -29.5t-144.5 -88.5l-82 71q49 129 175 204.5t328 75.5q242 0 351 -112.5t109 -330.5v-495q0 -31 13 -44.5t38 -16.5l99 -12v-135q-40 -11 -108.5 -25t-128.5 -14z" />
    <glyph glyph-name="b" unicode="b" horiz-adv-x="1327" 
d="M605 -23q-66 0 -133.5 7t-128 18.5t-111 25.5t-82.5 28v1462q0 23 -12 37.5t-34 18.5l-130 21v143q53 14 116.5 25t128.5 19.5t128.5 13t115.5 4.5l48 -44v-712q59 60 139 92t171 32q90 0 167.5 -32t134.5 -98t89.5 -168.5t32.5 -242.5q0 -307 -164.5 -478.5
t-475.5 -171.5zM630 117q113 0 172 105.5t62 337.5q1 113 -12 189.5t-39.5 122.5t-66 65t-90.5 19q-36 0 -73.5 -9t-71.5 -28v-773q24 -13 54 -21t65 -8z" />
    <glyph glyph-name="c" unicode="c" horiz-adv-x="1139" 
d="M79 556q0 150 44 265t121.5 191.5t185.5 116t234 39.5q106 0 211 -25t174 -63q7 -101 0.5 -200.5t-24.5 -191.5h-175l-57 201q-10 35 -19.5 53.5t-22.5 31.5q-16 15 -41 25t-55 10q-79 0 -133 -93t-54 -312q0 -202 60 -305.5t203 -103.5q88 0 153.5 31.5t101.5 63.5
l77 -62q-37 -108 -153.5 -181t-297.5 -73q-138 0 -239 45t-166 123t-96.5 185t-31.5 229z" />
    <glyph glyph-name="d" unicode="d" horiz-adv-x="1384" 
d="M660 172q40 0 82.5 10.5t78.5 29.5v777q-25 12 -56.5 18.5t-63.5 6.5q-54 0 -98.5 -21.5t-75 -71.5t-47.5 -134t-17 -209q-1 -218 50 -312t147 -94zM1090 -19q-87 0 -147 33t-93 100q-57 -63 -136.5 -100t-179.5 -37q-98 0 -181 33t-143 101t-94 174t-34 251
q0 307 154.5 469.5t438.5 162.5q37 0 75 -4t71 -11v366q0 23 -12 37.5t-34 18.5l-131 20v141q54 14 117 25.5t127.5 20t128 13.5t117.5 5l48 -45v-1527q0 -32 13.5 -45t37.5 -16l99 -12v-135q-37 -11 -107 -25t-135 -14z" />
    <glyph glyph-name="e" unicode="e" horiz-adv-x="1184" 
d="M623 1019q-67 0 -110.5 -58.5t-55.5 -208.5h317q1 9 1 20.5v25.5q0 96 -36.5 158.5t-115.5 62.5zM1095 249q-40 -134 -168 -204.5t-307 -70.5q-138 0 -240 41t-168 117t-98 185t-32 243q0 296 148 451.5t418 155.5q119 0 206 -29t142 -80.5t81.5 -123t26.5 -154.5
q0 -38 -5 -82.5t-12 -79.5h-635q1 -220 61 -321.5t217 -101.5q82 0 159.5 28t127.5 84z" />
    <glyph glyph-name="f" unicode="f" horiz-adv-x="942" 
d="M243 1181q0 106 46.5 216.5t122 199t172.5 145t197 56.5q82 0 160.5 -34t142.5 -80l-72 -196q-60 13 -123 21t-97 7q-46 -1 -83 -9t-62.5 -31t-39 -64.5t-13.5 -109.5v-165h318v-194h-316v-725q0 -24 12.5 -37t36.5 -16l205 -23v-142h-770v142l107 20q23 4 35.5 17.5
t12.5 37.5v722l-168 30v137l176 33v42z" />
    <glyph glyph-name="g" unicode="g" horiz-adv-x="1335" 
d="M460 776q0 -136 39 -196.5t117 -60.5q82 0 115 66t33 191q0 138 -35 196t-112 58q-78 0 -117.5 -60.5t-39.5 -193.5zM1263 -93q0 -105 -48.5 -190t-137.5 -144.5t-216.5 -92t-284.5 -32.5q-136 0 -233.5 24t-159 65.5t-90.5 99t-29 123.5q0 101 61 162.5t166 96.5
q-69 30 -98.5 80t-29.5 111q0 78 40.5 130t108.5 82q-117 49 -165.5 138t-48.5 197q0 193 137 302t397 109q126 0 222 -27.5t157 -83.5q39 54 90 84.5t102 30.5q26 0 54.5 -6.5t47.5 -12.5v-245h-204q7 -28 11 -58t4 -64q0 -90 -29.5 -166t-92.5 -130t-162.5 -84t-237.5 -30
q-43 0 -82 3t-73 9q-14 -20 -20 -40t-6 -38q0 -54 49.5 -74t168.5 -20h202q208 0 319 -76t111 -233zM635 -390q122 0 189.5 58.5t67.5 168.5q0 79 -40 112.5t-137 33.5h-206q-15 0 -29.5 0.5t-27.5 1.5q-20 -31 -33 -72t-13 -90q0 -92 52 -152.5t177 -60.5z" />
    <glyph glyph-name="h" unicode="h" horiz-adv-x="1467" 
d="M678 142v-142h-628v143l108 20q22 4 34.5 18.5t12.5 37.5v1310q0 23 -12 37.5t-34 18.5l-130 21v140q54 14 117 24.5t127 17t127 9.5t117 3l49 -47v-724q69 67 159 100t196 33q201 0 275 -112.5t74 -317.5v-513q0 -23 12 -37.5t34 -18.5l109 -20v-143h-628v142l67 20
q22 8 33.5 21t11.5 36v473q0 140 -41 198.5t-130 58.5q-41 0 -85.5 -12t-86.5 -36v-682q0 -23 11 -36t33 -21z" />
    <glyph glyph-name="i" unicode="i" horiz-adv-x="801" 
d="M596 1121v-902q0 -23 12.5 -37.5t34.5 -18.5l108 -20v-143h-671v143l108 20q22 4 34.5 18.5t12.5 37.5v659q0 22 -11 38t-33 20l-122 25v147q54 14 115.5 25t124 18t124 10.5t115.5 3.5zM594 1480q0 -83 -53 -132.5t-142 -49.5q-90 0 -143.5 49.5t-53.5 132.5
q0 81 53.5 129.5t143.5 48.5q89 0 142 -48.5t53 -129.5z" />
    <glyph glyph-name="j" unicode="j" horiz-adv-x="737" 
d="M525 1165l48 -44v-1021q0 -181 -44 -285.5t-128 -172.5q-80 -66 -190.5 -108t-229.5 -73l-63 150q174 87 235 191t61 279l1 797q0 22 -11 38t-33 20l-124 25v147q54 14 115.5 25t123.5 18t123.5 10.5t115.5 3.5zM555 1480q0 -83 -53 -132.5t-142 -49.5q-90 0 -143.5 49.5
t-53.5 132.5q0 81 53.5 129.5t143.5 48.5q89 0 142 -48.5t53 -129.5z" />
    <glyph glyph-name="k" unicode="k" horiz-adv-x="1426" 
d="M715 143v-143h-665v143l108 20q22 4 34.5 19t12.5 38v1299q0 23 -12 37.5t-34 18.5l-130 20v141q54 14 117 25.5t127 20t127 13.5t117 5l48 -44v-1178l369 390l-183 33v136h597v-136l-117 -29q-40 -10 -60.5 -18t-44.5 -31l-186 -182q35 -41 65.5 -91t64.5 -116l159 -307
q13 -26 27.5 -37t41.5 -18l107 -29v-143h-414q-51 0 -84.5 59t-67.5 137l-88 199q-13 28 -26.5 55.5t-27.5 52.5l-132 -129v-155q0 -23 12 -37.5t34 -18.5z" />
    <glyph glyph-name="l" unicode="l" horiz-adv-x="784" 
d="M573 1755v-1536q0 -24 12 -38t35 -18l120 -21v-142h-696v143l121 20q22 4 34.5 18t12.5 37v1301q0 23 -12 37.5t-34 18.5l-131 20v141q54 14 117 25.5t127.5 20t128 13.5t117.5 5z" />
    <glyph glyph-name="m" unicode="m" horiz-adv-x="2170" 
d="M703 142v-142h-623v142l109 21q22 4 34 18.5t12 37.5v658q0 22 -11 38t-33 20l-122 25v148q105 28 221 42.5t217 15.5l50 -45l20 -105q66 74 157.5 110t201.5 36q119 0 191.5 -40t109.5 -116q73 80 172 118t214 38q101 0 169 -29.5t107.5 -85.5t56 -138.5t16.5 -186.5
v-503q0 -23 12 -37.5t34 -18.5l110 -21v-142h-624v142l62 20q23 8 34 21t11 36v464q0 142 -41.5 204t-132.5 62q-38 0 -81 -11.5t-86 -36.5q7 -37 10.5 -79.5t3.5 -89.5v-513q0 -23 11 -35.5t33 -21.5l64 -20v-142h-576v142l62 20q22 8 33.5 21t11.5 36v473
q0 140 -39.5 198.5t-129.5 58.5q-37 0 -78.5 -10.5t-79.5 -32.5v-687q0 -23 10 -36t31 -20z" />
    <glyph glyph-name="n" unicode="n" horiz-adv-x="1496" 
d="M708 142v-142h-628v142l109 21q22 4 34 18.5t12 37.5v659q0 22 -11 38t-33 20l-122 25v147q105 28 221 42.5t217 15.5l50 -45l21 -109q71 75 165 112.5t207 37.5q201 0 275 -112.5t74 -317.5v-513q0 -23 12 -37.5t34 -18.5l109 -20v-143h-628v142l67 20q22 8 33.5 21
t11.5 36v473q0 140 -41 198.5t-130 58.5q-41 0 -85 -12t-86 -36v-682q0 -23 11.5 -36.5t32.5 -20.5z" />
    <glyph glyph-name="o" unicode="o" horiz-adv-x="1315" 
d="M81 558q0 167 45.5 284t124.5 189t188 104.5t234 32.5q262 0 411 -143t149 -442q0 -168 -45.5 -285t-124.5 -188.5t-187.5 -103.5t-234.5 -32q-261 0 -410.5 143t-149.5 441zM844 556q0 251 -40.5 356t-150.5 105q-91 0 -136.5 -94.5t-45.5 -337.5q0 -251 40.5 -356
t150.5 -105q91 0 136.5 95t45.5 337z" />
    <glyph glyph-name="p" unicode="p" horiz-adv-x="1389" 
d="M690 117q53 0 97 22.5t74.5 74.5t48 139t18.5 215q1 209 -50 298.5t-157 89.5q-43 0 -81 -10t-66 -26v-781q26 -13 56 -17.5t60 -4.5zM777 -354v-142h-719v142l109 21q22 4 34 18.5t12 37.5v1154q0 22 -10.5 38t-31.5 20l-124 26v147q49 12 105 23t113.5 18.5t114 12
t105.5 4.5l50 -45l20 -98q59 65 140 105t188 40q90 0 168.5 -32.5t135 -99t89 -169.5t32.5 -243q0 -157 -43.5 -278.5t-124 -203t-195 -123.5t-254.5 -42q-27 0 -56.5 2.5t-60.5 7.5v-264q0 -24 12.5 -38.5t35.5 -17.5z" />
    <glyph glyph-name="q" unicode="q" horiz-adv-x="1345" 
d="M1322 -496h-720v142l170 21q23 3 35.5 17t12.5 38v368q-51 -52 -122 -82.5t-164 -30.5q-98 0 -181.5 33t-143 101t-93.5 174t-34 252t39 263.5t113 198.5t183 125t248 44q79 0 161.5 -20t148.5 -52l150 62l56 -45v-1390q0 -24 12.5 -37.5t34.5 -18.5l94 -21v-142z
M660 172q42 0 84 12t76 32v759q-24 19 -56 29t-74 10q-104 0 -165.5 -98.5t-62.5 -324.5q0 -228 50.5 -323.5t147.5 -95.5z" />
    <glyph glyph-name="r" unicode="r" horiz-adv-x="1127" 
d="M814 142v-142h-734v143l108 20q22 4 34.5 18.5t12.5 37.5v658q0 23 -11 39t-33 20l-122 25v147q96 28 207 42.5t206 15.5l56 -44l38 -199q67 114 155 179.5t184 65.5q34 0 84 -9.5t75 -22.5q6 -43 7 -96.5t-3 -111t-12 -117.5t-21 -116h-158l-35 117q-12 37 -29.5 48
t-51.5 11q-35 1 -82 -14.5t-93 -53.5v-584q0 -24 12.5 -38.5t36.5 -17.5z" />
    <glyph glyph-name="s" unicode="s" horiz-adv-x="1119" 
d="M107 54q-10 80 -7.5 166t13.5 162h180l42 -148q10 -31 18.5 -48t27.5 -31q22 -15 61.5 -31t90.5 -16q75 0 115 39.5t40 90.5q0 41 -24 70.5t-65 55t-97.5 50.5t-120.5 56q-124 61 -201.5 137.5t-77.5 207.5q0 154 117 252.5t362 98.5q99 0 207.5 -18.5t186.5 -49.5
q7 -72 3 -154.5t-19 -157.5l-167 1l-44 139q-10 29 -20.5 44.5t-30.5 28.5q-25 16 -54 23t-60 8q-65 0 -105.5 -33t-40.5 -90q0 -38 20 -66.5t53 -51t77.5 -42t92.5 -40.5q72 -31 139 -65t117.5 -78t80.5 -102.5t30 -138.5q0 -89 -38 -156t-105 -111t-159.5 -66t-199.5 -22
q-128 0 -241.5 26.5t-196.5 59.5z" />
    <glyph glyph-name="t" unicode="t" horiz-adv-x="949" 
d="M201 335v613l-154 28v131l125 26q27 5 40.5 18t22.5 38l111 316h200l13 -367h313v-185h-309v-537q0 -114 34 -157t101 -43q40 0 85.5 14.5t85.5 48.5l70 -79q-51 -111 -158.5 -164t-245.5 -53q-154 0 -244 74t-90 278z" />
    <glyph glyph-name="u" unicode="u" horiz-adv-x="1447" 
d="M1154 -19q-87 0 -147 32.5t-93 100.5q-63 -66 -146.5 -101.5t-208.5 -35.5q-178 0 -268 96.5t-90 296.5v511q0 22 -11 37.5t-33 20.5l-107 27v148q52 12 111.5 22t120 16.5t120.5 9.5t112 3l48 -44v-704q0 -142 39 -192.5t121 -50.5q41 0 82 12.5t81 35.5v660
q0 22 -11 38t-33 21l-114 27v148q53 12 113.5 21.5t122 15.5t122 9t113.5 3l48 -44v-893q0 -32 13.5 -45t38.5 -16l98 -12v-135q-37 -11 -107 -25t-135 -14z" />
    <glyph glyph-name="v" unicode="v" horiz-adv-x="1299" 
d="M503 -16l-371 942q-8 19 -20.5 30t-31.5 17l-75 24v141h659v-144l-145 -31l228 -684l226 684l-143 31v144h451v-141l-75 -24q-19 -6 -33 -16.5t-21 -29.5l-335 -943h-314z" />
    <glyph glyph-name="w" unicode="w" horiz-adv-x="1882" 
d="M446 -16l-310 942q-7 20 -19 30.5t-33 17.5l-73 23v141h608v-144l-139 -31l177 -636l214 811h290l225 -810l169 635l-146 31v144h453v-141l-73 -23q-20 -6 -33 -17t-20 -32l-286 -941h-280l-233 759l-205 -759h-286z" />
    <glyph glyph-name="x" unicode="x" horiz-adv-x="1332" 
d="M544 141v-141h-504v141l102 19q19 4 33 12.5t26 22.5l287 352l-304 398q-11 16 -24.5 24t-31.5 12l-82 20v137h654v-138l-124 -31l166 -241l182 241l-113 31v138h458v-138l-92 -19q-18 -4 -31.5 -12t-26.5 -23l-274 -334l320 -417q11 -16 25 -24t33 -12l82 -18v-141h-646
v141l113 30l-175 256l-191 -256z" />
    <glyph glyph-name="y" unicode="y" horiz-adv-x="1299" 
d="M325 -518q-69 0 -142.5 8.5t-133.5 19.5v169q115 18 206.5 38.5t164 54.5t129.5 88.5t103 139.5h-146l-356 920q-8 22 -22.5 34t-36.5 19l-76 24v141l666 -1v-144l-148 -32l229 -673l215 674l-142 32v144h455v-141l-76 -24q-24 -7 -37 -18.5t-21 -34.5l-331 -938
q-89 -251 -206.5 -375.5t-293.5 -124.5z" />
    <glyph glyph-name="z" unicode="z" horiz-adv-x="1191" 
d="M1081 0h-964l-59 129l633 867h-133q-37 0 -77 -2.5t-68 -7.5q-24 -4 -39 -13.5t-22 -38.5l-49 -200h-164q-14 99 -18.5 206t2.5 198h932l55 -128l-620 -866h122q46 0 95.5 2.5t87.5 9.5q24 4 39 14.5t22 31.5l71 220l159 -18q11 -101 9 -203.5t-14 -200.5z" />
    <glyph glyph-name="braceleft" unicode="{" horiz-adv-x="917" 
d="M891 -268l-23 -156q-55 0 -130.5 4.5t-137.5 11.5q-199 19 -289.5 115.5t-90.5 249.5q0 130 21.5 259t21.5 233q0 50 -8 89.5t-34 68.5t-75 47.5t-130 26.5v199q81 7 130 25.5t75 47.5t34 68.5t8 89.5q0 104 -21.5 233t-21.5 259q0 153 90.5 250t289.5 116q62 6 137.5 11
t130.5 5l23 -157l-128 -31q-115 -28 -162.5 -84.5t-47.5 -169.5q0 -49 4 -106.5t9 -117.5t9 -120t4 -113q0 -73 -25 -125t-68.5 -87t-102.5 -56t-127 -33q68 -12 127 -34.5t102.5 -59t68.5 -90.5t25 -127q0 -53 -4 -113t-9 -120t-9 -117.5t-4 -106.5q0 -112 47.5 -169
t162.5 -85z" />
    <glyph glyph-name="bar" unicode="|" horiz-adv-x="652" 
d="M192 -320v2226h269l-1 -2226h-268z" />
    <glyph glyph-name="braceright" unicode="}" horiz-adv-x="917" 
d="M317 -411q-62 -6 -137.5 -9.5t-130.5 -3.5l-23 156l128 28q115 27 162.5 84.5t47.5 169.5q0 49 -4 107.5t-9.5 119t-9.5 120.5t-4 113q0 73 25.5 126.5t68.5 90.5t102.5 59t126.5 34q-67 12 -126.5 33t-102.5 56t-68.5 87.5t-25.5 125.5q0 53 4 113t9.5 120.5t9.5 119
t4 107.5q0 112 -47.5 170t-162.5 84l-128 28l23 157q55 0 130.5 -4t137.5 -10q199 -19 289.5 -115.5t90.5 -250.5q0 -130 -21.5 -260t-21.5 -234q0 -50 8 -89.5t33.5 -68.5t75 -47.5t130.5 -25.5v-199q-81 -8 -130.5 -26.5t-75 -47.5t-33.5 -68.5t-8 -89.5q0 -104 21.5 -234
t21.5 -260q0 -154 -90.5 -250.5t-289.5 -115.5z" />
    <glyph glyph-name="asciitilde" unicode="~" horiz-adv-x="1301" 
d="M1180 709q-57 -136 -152 -211.5t-198 -75.5q-59 0 -115 21.5t-108 47t-101 47t-96 21.5q-60 0 -111.5 -36.5t-94.5 -86.5l-100 79q57 137 152 212t199 75q59 0 114.5 -21.5t107.5 -46.5t101 -46.5t96 -21.5q60 0 112 36t95 86z" />
    <glyph glyph-name="uni00A0" unicode="&#xa0;" horiz-adv-x="517" 
 />
    <glyph glyph-name="exclamdown" unicode="&#xa1;" horiz-adv-x="679" 
d="M540 989q0 -81 -55 -130t-145 -49q-92 0 -147 49t-55 130q0 82 55 131t147 49q90 0 145 -49t55 -131zM539 -559h-398v211l91 992h216l91 -992v-211z" />
    <glyph glyph-name="cent" unicode="&#xa2;" horiz-adv-x="1181" 
d="M1090 258q-41 -95 -145 -162.5t-246 -83.5v-221h-197v225q-107 18 -186 70t-130.5 127.5t-76.5 172.5t-25 203q0 138 38.5 246t106.5 183.5t162 120.5t204 58v217h197v-219q87 -10 163.5 -35.5t127.5 -54.5q7 -101 0.5 -196t-25.5 -188h-184l-48 202q-7 34 -17 52.5
t-25 31.5q-17 16 -44.5 26t-60.5 10q-86 0 -146 -98.5t-60 -294.5q0 -205 67.5 -314.5t202.5 -109.5q99 0 161 36.5t100 74.5z" />
    <glyph glyph-name="sterling" unicode="&#xa3;" horiz-adv-x="1398" 
d="M1315 275q0 -84 -25 -143.5t-67 -96t-98 -53t-118 -16.5q-79 0 -149.5 23.5t-136 51t-129 51t-128.5 23.5q-63 -49 -141 -84t-162 -50l-89 180q92 47 160.5 126t68.5 228v100h-191v155h191v64q0 130 31.5 237.5t95.5 182.5t161 116.5t227 41.5q113 0 207 -25t163 -54
q7 -94 1 -186t-22 -190h-202l-47 203q-4 19 -13 38.5t-31 37.5q-18 13 -40 21.5t-47 8.5q-21 0 -42 -11.5t-38 -41t-27.5 -82t-10.5 -133.5v-228h291v-155h-291v-24q0 -132 -29.5 -217.5t-63.5 -133.5q65 0 139 -16t139 -16q72 0 112 26.5t59 87.5q12 37 19.5 83.5
t11.5 95.5h229q10 -47 21 -106.5t11 -119.5z" />
    <glyph glyph-name="currency" unicode="&#xa4;" horiz-adv-x="1405" 
d="M701 562q98 0 147.5 61t49.5 146q0 49 -17 89t-45 68t-65 43t-75 15q-46 0 -82 -18t-60.5 -47.5t-37 -68.5t-12.5 -81q0 -86 59.5 -146.5t137.5 -60.5zM699 313q-66 0 -127 16.5t-112 46.5l-232 -232l-133 133l228 225q-38 54 -59 120.5t-21 139.5q0 76 22.5 146.5
t62.5 128.5l-233 229l131 134l235 -235q51 33 111.5 51t126.5 18q67 0 129 -17.5t115 -48.5l235 234l133 -133l-231 -227q38 -54 59.5 -120t21.5 -138q0 -75 -23 -145.5t-63 -127.5l232 -230l-133 -133l-234 234q-52 -33 -113.5 -51t-127.5 -18z" />
    <glyph glyph-name="yen" unicode="&#xa5;" horiz-adv-x="1529" 
d="M1178 127v-127h-789v127l178 35q21 4 32 15.5t11 33.5v97h-372v143h372v141h-372v142h308l-309 461q-10 14 -22 22t-29 12l-114 26v126h694v-126l-144 -34l245 -421l233 424l-162 33v125h511v-125l-105 -24q-18 -4 -30 -12t-22 -24l-278 -463h314v-142h-372v-141h372
v-143h-372v-97q0 -22 11.5 -33.5t32.5 -15.5z" />
    <glyph glyph-name="brokenbar" unicode="&#xa6;" horiz-adv-x="649" 
d="M190 950v956h269v-956h-269zM190 -320v956h269v-956h-269z" />
    <glyph glyph-name="section" unicode="&#xa7;" horiz-adv-x="1271" 
d="M706 504q51 -23 96.5 -45t84.5 -43q20 34 34 74.5t14 74.5q0 91 -89.5 154t-278.5 150q-51 25 -96 48t-83 45q-21 -34 -35.5 -76.5t-14.5 -77.5q0 -91 89.5 -155.5t278.5 -148.5zM618 -287q-80 0 -155 12t-137 29t-108.5 36t-70.5 33q-6 81 -1.5 164t18.5 164h204
l35 -168q4 -15 12.5 -33t32.5 -36q34 -25 86 -40t106 -15q92 0 142 38t50 98q0 39 -22 69.5t-69 60t-120.5 63.5t-175.5 79q-157 69 -256 164.5t-99 245.5q0 126 60 219t138 134q-67 53 -99.5 116t-32.5 150q0 68 27.5 133.5t87 116.5t155 82.5t230.5 31.5q74 0 143.5 -10
t127 -25t101.5 -32t68 -31q6 -82 1.5 -164.5t-18.5 -163.5h-204l-35 168q-4 15 -12.5 33t-32.5 35q-28 20 -71.5 32t-89.5 12q-84 0 -129 -37.5t-45 -97.5q0 -39 21.5 -69.5t66.5 -60.5t115 -64t166 -80q155 -71 254.5 -165t99.5 -244q0 -122 -56.5 -213t-132.5 -134
q73 -54 108 -118t35 -153q0 -68 -28.5 -134t-90.5 -117t-161 -82.5t-239 -31.5z" />
    <glyph glyph-name="dieresis" unicode="&#xa8;" horiz-adv-x="1000" 
d="M908 1483q0 -78 -45.5 -125t-121.5 -47t-122 47t-46 125t46 124.5t122 46.5t121.5 -46.5t45.5 -124.5zM427 1483q0 -78 -46 -125t-121 -47q-77 0 -123 47t-46 125t46 124.5t123 46.5q75 0 121 -46.5t46 -124.5z" />
    <glyph glyph-name="copyright" unicode="&#xa9;" horiz-adv-x="2004" 
d="M84 781q0 199 69.5 368t191.5 290.5t291.5 190.5t367.5 69q199 0 367.5 -69t290 -190.5t190 -290.5t68.5 -367t-69 -367t-190 -291t-290 -191t-368 -69q-198 0 -367.5 69t-291.5 190.5t-191 290.5t-69 367zM244 782q0 -172 56 -316.5t156 -247.5t240.5 -160.5
t306.5 -57.5q167 0 307 57.5t239.5 160.5t155 247.5t55.5 316.5t-55.5 316.5t-155 247t-239 160.5t-306.5 58q-166 0 -306.5 -58t-240.5 -160.5t-156.5 -247t-56.5 -316.5zM999 259q-216 0 -339 138.5t-123 373.5q0 131 38 230.5t105 165.5t158.5 100t197.5 34
q99 0 190.5 -26t146.5 -64q10 -82 6 -168.5t-20 -173.5h-154l-44 171q-5 20 -12.5 35t-22.5 28q-17 15 -44.5 27t-61.5 12q-77 0 -128 -77t-51 -247q0 -182 63.5 -273t182.5 -91q64 0 128.5 24.5t104.5 63.5l71 -63q-37 -96 -140.5 -158t-251.5 -62z" />
    <glyph glyph-name="ordfeminine" unicode="&#xaa;" horiz-adv-x="1111" 
d="M499 845q31 0 58 7.5t49 20.5v179l-73 -3q-73 -3 -95 -39.5t-22 -77.5q0 -45 18.5 -66t64.5 -21zM831 680q-71 0 -123 21.5t-80 78.5q-46 -51 -114 -76.5t-153 -25.5q-125 0 -197 60t-72 155q0 59 28.5 105.5t76.5 80t113 52.5t137 22l159 7v78q0 83 -43.5 114t-124.5 31
q-72 0 -133.5 -21.5t-112.5 -64.5l-72 60q41 103 142 164t272 61q201 0 290 -89t89 -257v-356q0 -24 10.5 -34t29.5 -12l76 -10v-114q-34 -9 -90.5 -19.5t-107.5 -10.5z" />
    <glyph glyph-name="guillemotleft" unicode="&#xab;" horiz-adv-x="1501" 
d="M1318 74l-596 456v160l596 464l101 -125l-315 -420l316 -413zM667 74l-596 456v160l596 464l101 -125l-315 -420l316 -413z" />
    <glyph glyph-name="logicalnot" unicode="&#xac;" horiz-adv-x="1260" 
d="M128 499v227h991v-625h-243v398h-748z" />
    <glyph glyph-name="uni00AD" unicode="&#xad;" horiz-adv-x="1053" 
d="M129 480v232h796v-232h-796z" />
    <glyph glyph-name="registered" unicode="&#xae;" horiz-adv-x="1729" 
d="M89 1091q0 167 58.5 309.5t162 245.5t246.5 161t310 58t309.5 -58t245 -161t160.5 -245.5t58 -309.5t-58 -310t-160.5 -245.5t-245 -161t-309.5 -58.5t-310 58.5t-246.5 161t-162 245.5t-58.5 310zM233 1091q0 -143 47 -263t130.5 -206t200.5 -134t256 -48
q138 0 254.5 48t199 133.5t129 206t46.5 263.5t-46 263t-129 206t-199.5 134t-255.5 48t-256 -48t-200 -134t-130 -206t-47 -263zM875 1109q44 0 77 39t33 116q0 80 -31.5 114.5t-98.5 34.5q-17 0 -36 -2.5t-38 -6.5v-292q28 -2 50.5 -2.5t43.5 -0.5zM871 762v-87h-392v87
l54 16q14 4 21 14t7 25v549q0 16 -7.5 26t-21.5 13l-53 13v99h193q53 -1 99.5 1t100.5 2q186 0 265 -57t79 -186q0 -73 -37 -137.5t-144 -92.5q40 -13 63.5 -37t38.5 -61l49 -116q13 -29 31.5 -39.5t64.5 -23.5v-95h-223q-29 0 -48.5 29t-34.5 73l-44 128q-11 33 -23 57
t-25 41l-103 -1v-188q0 -16 7.5 -26t22.5 -13z" />
    <glyph glyph-name="macron" unicode="&#xaf;" horiz-adv-x="1000" 
d="M132 1355v206h735v-206h-735z" />
    <glyph glyph-name="degree" unicode="&#xb0;" horiz-adv-x="920" 
d="M459 914q-78 0 -148 30t-122 81.5t-82.5 121t-30.5 146.5q0 81 30.5 150.5t82.5 119.5t122 79t148 29q84 0 155 -30t121.5 -81.5t79.5 -120.5t29 -146q0 -81 -30 -150.5t-82 -120t-122.5 -79.5t-150.5 -29zM460 1101q78 0 126.5 55t48.5 137q0 76 -51.5 134t-126.5 58
q-77 0 -126 -56t-49 -136q0 -75 53 -133.5t125 -58.5z" />
    <glyph glyph-name="plusminus" unicode="&#xb1;" horiz-adv-x="1166" 
d="M702 329h-237v179l7 150l-150 -7h-208v213h208l150 -7l-7 151v195h237v-195l-7 -151l150 7h208v-213h-208l-150 7l7 -150v-179zM1043 0h-919v210h919v-210z" />
    <glyph glyph-name="twosuperior" unicode="&#xb2;" horiz-adv-x="1038" 
d="M903 624h-770l-36 118q104 71 191.5 139t150 134.5t98 133.5t35.5 134q0 74 -44 122.5t-130 48.5q-59 0 -116.5 -26t-105.5 -72l-66 66q14 40 44.5 79t76.5 69.5t110.5 49.5t145.5 19q93 0 164 -25.5t118 -68t70.5 -99.5t23.5 -120q0 -87 -41 -165.5t-106 -145.5
t-147 -122t-162 -96h154q105 0 143 17.5t48 40.5l56 118l141 -16q-2 -36 -5.5 -79t-9.5 -87.5t-13.5 -87.5t-17.5 -79z" />
    <glyph glyph-name="threesuperior" unicode="&#xb3;" horiz-adv-x="966" 
d="M79 740l64 107q46 -28 114 -48t137 -20q91 0 145 39t54 108q0 66 -52 98t-154 32h-102l1 125h21q125 0 182.5 43t57.5 109q0 69 -51 98t-117 29q-54 0 -107 -17.5t-99 -53.5l-62 75q22 46 61 79t87 54t102 31t107 10q74 0 138.5 -18t111.5 -50.5t74.5 -79.5t27.5 -104
q0 -49 -20.5 -89t-54 -69.5t-76 -49t-85.5 -27.5q56 0 111 -14.5t97.5 -44.5t69 -76t26.5 -108q0 -61 -29 -115.5t-83.5 -95.5t-135.5 -65t-184 -24q-122 0 -218 34.5t-159 97.5z" />
    <glyph glyph-name="acute" unicode="&#xb4;" horiz-adv-x="1000" 
d="M401 1251l-91 109l396 453l197 -184q-38 -47 -92.5 -97t-120 -98t-139.5 -95t-150 -88z" />
    <glyph glyph-name="uni00B5" unicode="&#xb5;" horiz-adv-x="1515" 
d="M505 -440l-265 -100l-49 44q1 97 2.5 212.5t2.5 229.5t1.5 220t0.5 184q0 116 -1.5 213.5t-3.5 188t-4 182t-4 195.5l286 37l48 -44l-11 -558q0 -81 20 -138t51 -92.5t69 -52t74 -16.5q62 0 124 46.5t95 146.5l-8 671l274 37l48 -44l-30 -770q-4 -96 27 -128t75 -32h124
v-125q-50 -37 -121.5 -65t-131.5 -28q-90 0 -154 68t-81 199q-39 -127 -118 -197t-174 -70q-60 0 -121.5 33t-103.5 107z" />
    <glyph glyph-name="paragraph" unicode="&#xb6;" horiz-adv-x="1588" 
d="M294 -398l-63 152q85 43 140 89.5t86.5 109t44 148t12.5 206.5l1 358q-83 10 -164 42t-144 90.5t-102 145.5t-39 206q0 96 30.5 177.5t93 140t160 91.5t229.5 33q139 0 309.5 -14.5t369.5 -14.5h224v-151l-145 -30q-22 -5 -34.5 -18.5t-12.5 -36.5v-1097q0 -22 12 -36.5
t34 -18.5l156 -30v-144h-482v1394q-43 3 -105.5 7t-112.5 4v-1198q0 -142 -26.5 -242t-85 -169t-154 -114.5t-232.5 -79.5z" />
    <glyph glyph-name="periodcentered" unicode="&#xb7;" horiz-adv-x="650" 
d="M526 668q0 -84 -55 -134t-146 -50t-146 50t-55 134t55 134t146 50t146 -50t55 -134z" />
    <glyph glyph-name="cedilla" unicode="&#xb8;" horiz-adv-x="1000" 
d="M445 51h117l-40 -140h31q89 -2 144 -51t55 -133q0 -114 -110 -184.5t-286 -70.5q-16 0 -32 0.5t-32 1.5l-19 115q101 10 152.5 44.5t51.5 83.5q0 43 -32.5 65t-84.5 24z" />
    <glyph glyph-name="onesuperior" unicode="&#xb9;" horiz-adv-x="972" 
d="M660 1611v-765q0 -23 9.5 -34t33.5 -15l203 -32v-141h-777v141l220 32q24 4 35 15t11 35l1 507q-57 -20 -125.5 -30.5t-135.5 -13.5l-30 133q96 24 197.5 75.5t188.5 122.5z" />
    <glyph glyph-name="ordmasculine" unicode="&#xba;" horiz-adv-x="1111" 
d="M86 1112q0 130 36.5 219.5t101 144t153 78.5t191.5 24q209 0 333 -103.5t124 -340.5q0 -131 -36.5 -220.5t-100.5 -143.5t-153 -77.5t-192 -23.5q-207 0 -332 103t-125 340zM683 1112q0 100 -6.5 165.5t-21.5 104t-40 54t-63 15.5q-62 0 -93.5 -66.5t-31.5 -250.5
q0 -99 6.5 -165t21.5 -104t40 -53.5t63 -15.5q62 0 93.5 66t31.5 250z" />
    <glyph glyph-name="guillemotright" unicode="&#xbb;" horiz-adv-x="1492" 
d="M184 74l-102 122l316 413l-315 420l101 125l596 -464v-160zM825 74l-102 122l316 413l-315 420l101 125l596 -464v-160z" />
    <glyph glyph-name="onequarter" unicode="&#xbc;" horiz-adv-x="2491" 
d="M648 1611v-765q0 -23 9.5 -34t33.5 -15l203 -32v-141h-777v141l220 32q24 4 35 15t11 35l1 507q-57 -20 -125.5 -30.5t-135.5 -13.5l-30 133q96 24 197.5 75.5t188.5 122.5zM859 0h-238l969 1562h237zM2428 188h-169v-188h-251l-1 188h-426l-83 109q115 176 213 354
t177 354h243l38 -49q-71 -136 -130.5 -236.5t-111.5 -173.5t-99.5 -125t-94.5 -93l280 17l44 236h202v-221l169 11v-183z" />
    <glyph glyph-name="onehalf" unicode="&#xbd;" horiz-adv-x="2463" 
d="M643 1611v-765q0 -23 9.5 -34t33.5 -15l203 -32v-141h-777v141l220 32q24 4 35 15t11 35l1 507q-57 -20 -125.5 -30.5t-135.5 -13.5l-30 133q96 24 197.5 75.5t188.5 122.5zM853 0h-238l969 1562h237zM2350 0h-770l-36 118q104 71 191.5 139t150 134.5t98 133.5t35.5 134
q0 74 -44 122.5t-130 48.5q-59 0 -116.5 -26t-105.5 -72l-66 66q14 40 44.5 79t76.5 69.5t110.5 49.5t145.5 19q93 0 164 -25.5t118 -68t70.5 -99.5t23.5 -120q0 -87 -41 -165.5t-106 -145.5t-147 -122t-162 -96h154q105 0 143 17.5t48 40.5l56 118l141 -16q-2 -36 -5.5 -79
t-9.5 -87.5t-13.5 -87.5t-17.5 -79z" />
    <glyph glyph-name="threequarters" unicode="&#xbe;" horiz-adv-x="2466" 
d="M75 740l64 107q46 -28 114 -48t137 -20q91 0 145 39t54 108q0 66 -52 98t-154 32h-102l1 125h21q125 0 182.5 43t57.5 109q0 69 -51 98t-117 29q-54 0 -107 -17.5t-99 -53.5l-62 75q22 46 61 79t87 54t102 31t107 10q74 0 138.5 -18t111.5 -50.5t74.5 -79.5t27.5 -104
q0 -49 -20.5 -89t-54 -69.5t-76 -49t-85.5 -27.5q56 0 111 -14.5t97.5 -44.5t69 -76t26.5 -108q0 -61 -29 -115.5t-83.5 -95.5t-135.5 -65t-184 -24q-122 0 -218 34.5t-159 97.5zM833 0h-238l969 1562h237zM2403 188h-169v-188h-251l-1 188h-426l-83 109q115 176 213 354
t177 354h243l38 -49q-71 -136 -130.5 -236.5t-111.5 -173.5t-99.5 -125t-94.5 -93l280 17l44 236h202v-221l169 11v-183z" />
    <glyph glyph-name="questiondown" unicode="&#xbf;" horiz-adv-x="1142" 
d="M438 990q0 81 55 130t146 49t146 -49t55 -130q0 -82 -55 -131t-146 -49t-146 49.5t-55 130.5zM536 645h208q28 -49 58 -116.5t30 -129.5q0 -90 -60.5 -150.5t-145.5 -138.5q-100 -93 -149 -171.5t-49 -172.5q0 -84 44.5 -141t116.5 -57q45 0 78 19.5t52 41.5
q18 22 26.5 44t12.5 57l29 238h214q32 -93 53 -200.5t28 -208.5q-82 -69 -206 -115.5t-267 -46.5q-125 0 -227 36t-173.5 99t-111 148.5t-39.5 184.5q0 157 93.5 264t241.5 210q38 27 60 43t34 31t17 33.5t10 50.5z" />
    <glyph glyph-name="Agrave" unicode="&#xc0;" horiz-adv-x="1607" 
d="M918 628l-205 658l-199 -658h404zM567 144v-144h-584v144l136 33q20 5 32.5 16.5t19.5 31.5l455 1342h355l458 -1342q7 -20 20.5 -31t32.5 -17l125 -33v-144h-750v144l191 31l-87 282h-509l-86 -282zM575 2143l510 -353l-72 -130q-74 24 -157 53t-162.5 62t-152.5 70.5
t-126 77.5z" />
    <glyph glyph-name="Aacute" unicode="&#xc1;" horiz-adv-x="1607" 
d="M918 628l-205 658l-199 -658h404zM567 144v-144h-584v144l136 33q20 5 32.5 16.5t19.5 31.5l455 1342h355l458 -1342q7 -20 20.5 -31t32.5 -17l125 -33v-144h-750v144l191 31l-87 282h-509l-86 -282zM1219 1909q-54 -38 -129.5 -73t-158.5 -65.5t-169 -56.5t-161 -47
l-63 126l530 340z" />
    <glyph glyph-name="Acircumflex" unicode="&#xc2;" horiz-adv-x="1607" 
d="M918 628l-205 658l-199 -658h404zM567 144v-144h-584v144l136 33q20 5 32.5 16.5t19.5 31.5l455 1342h355l458 -1342q7 -20 20.5 -31t32.5 -17l125 -33v-144h-750v144l191 31l-87 282h-509l-86 -282zM459 1655l-97 111l320 326l221 10l344 -328l-102 -117l-355 201z" />
    <glyph glyph-name="Atilde" unicode="&#xc3;" horiz-adv-x="1607" 
d="M918 628l-205 658l-199 -658h404zM567 144v-144h-584v144l136 33q20 5 32.5 16.5t19.5 31.5l455 1342h355l458 -1342q7 -20 20.5 -31t32.5 -17l125 -33v-144h-750v144l191 31l-87 282h-509l-86 -282zM1270 1985q-15 -58 -43.5 -112t-67.5 -95t-89.5 -65.5t-109.5 -24.5
t-107.5 21t-89.5 45.5t-78 45.5t-75 21q-49 0 -90 -35t-75 -87l-106 59q16 58 44 112t67.5 94.5t90 65t109.5 24.5t107 -20.5t89 -45.5t78.5 -45.5t75.5 -20.5q48 0 89.5 34.5t75.5 86.5z" />
    <glyph glyph-name="Adieresis" unicode="&#xc4;" horiz-adv-x="1607" 
d="M918 628l-205 658l-199 -658h404zM567 144v-144h-584v144l136 33q20 5 32.5 16.5t19.5 31.5l455 1342h355l458 -1342q7 -20 20.5 -31t32.5 -17l125 -33v-144h-750v144l191 31l-87 282h-509l-86 -282zM1241 1858q0 -78 -45.5 -125.5t-121.5 -47.5t-122 47.5t-46 125.5
t46 124.5t122 46.5t121.5 -46.5t45.5 -124.5zM703 1858q0 -78 -46 -125.5t-121 -47.5q-77 0 -123 47.5t-46 125.5t46 124.5t123 46.5q75 0 121 -46.5t46 -124.5z" />
    <glyph glyph-name="Aring" unicode="&#xc5;" horiz-adv-x="1607" 
d="M918 628l-205 658l-199 -658h404zM567 144v-144h-584v144l136 33q20 5 32.5 16.5t19.5 31.5l455 1342h355l458 -1342q7 -20 20.5 -31t32.5 -17l125 -33v-144h-750v144l191 31l-87 282h-509l-86 -282zM1125 1792q0 -62 -25.5 -111.5t-69 -84t-102.5 -53.5t-127 -19
q-153 0 -235 73t-82 200q0 61 26 110.5t70.5 84t105 53t129.5 18.5q157 0 233.5 -76.5t76.5 -194.5zM677 1798q0 -57 31.5 -98.5t96.5 -41.5q61 0 94 31.5t33 97.5q0 61 -30.5 101t-95.5 40q-62 0 -95.5 -32t-33.5 -98z" />
    <glyph glyph-name="AE" unicode="&#xc6;" horiz-adv-x="2144" 
d="M906 1392l-284 -674h378v674h-94zM591 144v-144h-611v144l152 33q19 4 31.5 16t19.5 31l498 1147l-255 41v150h1556q13 -105 14 -211.5t-8 -215.5h-178l-54 185q-7 26 -21.5 41t-36.5 24q-26 10 -72 16t-95 6h-169v-535l430 16v-204l-430 11v-532h211q49 0 102.5 6
t78.5 16q22 9 33 23.5t21 41.5l86 248l178 -28q-1 -120 -10 -234t-28 -236h-1236v144l156 29q23 4 34.5 18.5t11.5 37.5v319h-450l-158 -375z" />
    <glyph glyph-name="Ccedilla" unicode="&#xc7;" horiz-adv-x="1459" 
d="M809 -35q-360 0 -537.5 202.5t-177.5 579.5q0 216 55.5 376t156.5 264t244.5 154.5t317.5 50.5q119 0 249.5 -22t238.5 -62q7 -99 2 -213t-24 -239h-223l-59 262q-4 19 -15 40.5t-38 39.5q-28 19 -71 31t-90 12q-150 0 -234 -151t-84 -504q0 -327 79 -497t248 -170
q49 0 96.5 14.5t78.5 44.5q13 12 23.5 29.5t20.5 48.5l71 232l219 -19q5 -92 2.5 -198.5t-18.5 -219.5q-54 -18 -119 -34t-134 -27.5t-140.5 -18t-137.5 -6.5zM736 51h117l-40 -140h31q89 -2 144 -51t55 -133q0 -114 -110 -184.5t-286 -70.5q-16 0 -32 0.5t-32 1.5l-19 115
q101 10 152.5 44.5t51.5 83.5q0 43 -32.5 65t-84.5 24z" />
    <glyph glyph-name="Egrave" unicode="&#xc8;" horiz-adv-x="1452" 
d="M1297 1135h-178l-54 185q-7 26 -22 41t-37 24q-25 10 -71 16t-95 6h-169v-525l430 16v-205l-430 11v-541h211q49 0 102.5 6t78.5 16q22 9 33 23.5t21 41.5l86 248l177 -28q0 -120 -9 -234t-28 -236h-1254v144l156 29q23 4 34.5 18.5t11.5 37.5v1095q0 23 -11.5 37.5
t-34.5 19.5l-156 30v151h1202q13 -105 14 -211.5t-8 -215.5zM514 2143l510 -353l-72 -130q-74 24 -157 53t-162.5 62t-152.5 70.5t-126 77.5z" />
    <glyph glyph-name="Eacute" unicode="&#xc9;" horiz-adv-x="1452" 
d="M1297 1135h-178l-54 185q-7 26 -22 41t-37 24q-25 10 -71 16t-95 6h-169v-525l430 16v-205l-430 11v-541h211q49 0 102.5 6t78.5 16q22 9 33 23.5t21 41.5l86 248l177 -28q0 -120 -9 -234t-28 -236h-1254v144l156 29q23 4 34.5 18.5t11.5 37.5v1095q0 23 -11.5 37.5
t-34.5 19.5l-156 30v151h1202q13 -105 14 -211.5t-8 -215.5zM1158 1909q-54 -38 -129.5 -73t-158.5 -65.5t-169 -56.5t-161 -47l-63 126l530 340z" />
    <glyph glyph-name="Ecircumflex" unicode="&#xca;" horiz-adv-x="1452" 
d="M1297 1135h-178l-54 185q-7 26 -22 41t-37 24q-25 10 -71 16t-95 6h-169v-525l430 16v-205l-430 11v-541h211q49 0 102.5 6t78.5 16q22 9 33 23.5t21 41.5l86 248l177 -28q0 -120 -9 -234t-28 -236h-1254v144l156 29q23 4 34.5 18.5t11.5 37.5v1095q0 23 -11.5 37.5
t-34.5 19.5l-156 30v151h1202q13 -105 14 -211.5t-8 -215.5zM398 1655l-97 111l320 326l221 10l344 -328l-102 -117l-355 201z" />
    <glyph glyph-name="Edieresis" unicode="&#xcb;" horiz-adv-x="1452" 
d="M1297 1135h-178l-54 185q-7 26 -22 41t-37 24q-25 10 -71 16t-95 6h-169v-525l430 16v-205l-430 11v-541h211q49 0 102.5 6t78.5 16q22 9 33 23.5t21 41.5l86 248l177 -28q0 -120 -9 -234t-28 -236h-1254v144l156 29q23 4 34.5 18.5t11.5 37.5v1095q0 23 -11.5 37.5
t-34.5 19.5l-156 30v151h1202q13 -105 14 -211.5t-8 -215.5zM1180 1858q0 -78 -45.5 -125.5t-121.5 -47.5t-122 47.5t-46 125.5t46 124.5t122 46.5t121.5 -46.5t45.5 -124.5zM642 1858q0 -78 -46 -125.5t-121 -47.5q-77 0 -123 47.5t-46 125.5t46 124.5t123 46.5
q75 0 121 -46.5t46 -124.5z" />
    <glyph glyph-name="Igrave" unicode="&#xcc;" horiz-adv-x="962" 
d="M873 1562v-151l-156 -30q-23 -5 -34.5 -19.5t-11.5 -37.5v-1094q0 -23 11.5 -37.5t34.5 -18.5l156 -30v-144h-784v144l156 29q23 4 34.5 18.5t11.5 37.5v1095q0 23 -11.5 37.5t-34.5 19.5l-156 30v151h784zM251 2143l510 -353l-72 -130q-74 24 -157 53t-162.5 62
t-152.5 70.5t-126 77.5z" />
    <glyph glyph-name="Iacute" unicode="&#xcd;" horiz-adv-x="962" 
d="M873 1562v-151l-156 -30q-23 -5 -34.5 -19.5t-11.5 -37.5v-1094q0 -23 11.5 -37.5t34.5 -18.5l156 -30v-144h-784v144l156 29q23 4 34.5 18.5t11.5 37.5v1095q0 23 -11.5 37.5t-34.5 19.5l-156 30v151h784zM895 1909q-54 -38 -129.5 -73t-158.5 -65.5t-169 -56.5
t-161 -47l-63 126l530 340z" />
    <glyph glyph-name="Icircumflex" unicode="&#xce;" horiz-adv-x="962" 
d="M873 1562v-151l-156 -30q-23 -5 -34.5 -19.5t-11.5 -37.5v-1094q0 -23 11.5 -37.5t34.5 -18.5l156 -30v-144h-784v144l156 29q23 4 34.5 18.5t11.5 37.5v1095q0 23 -11.5 37.5t-34.5 19.5l-156 30v151h784zM135 1655l-97 111l320 326l221 10l344 -328l-102 -117l-355 201
z" />
    <glyph glyph-name="Idieresis" unicode="&#xcf;" horiz-adv-x="962" 
d="M873 1562v-151l-156 -30q-23 -5 -34.5 -19.5t-11.5 -37.5v-1094q0 -23 11.5 -37.5t34.5 -18.5l156 -30v-144h-784v144l156 29q23 4 34.5 18.5t11.5 37.5v1095q0 23 -11.5 37.5t-34.5 19.5l-156 30v151h784zM917 1858q0 -78 -45.5 -125.5t-121.5 -47.5t-122 47.5
t-46 125.5t46 124.5t122 46.5t121.5 -46.5t45.5 -124.5zM379 1858q0 -78 -46 -125.5t-121 -47.5q-77 0 -123 47.5t-46 125.5t46 124.5t123 46.5q75 0 121 -46.5t46 -124.5z" />
    <glyph glyph-name="Eth" unicode="&#xd0;" horiz-adv-x="1690" 
d="M1596 833q0 -207 -53.5 -367.5t-154 -268.5t-247 -162.5t-331.5 -50.5q-34 1 -79 3.5t-90.5 5.5t-88.5 5t-72 2h-390v144l160 30q19 3 30.5 17t11.5 33v489h-191v166h191v451q0 19 -11 32t-29 17l-162 32v151h386q101 0 186 6t172 6q380 0 571 -178.5t191 -562.5z
M815 140q86 1 154.5 33t115.5 105.5t72 196t25 301.5q0 304 -86.5 477t-288.5 173q-51 0 -88.5 -8t-46.5 -9v-530h254v-166h-254v-552q25 -11 66 -16t77 -5z" />
    <glyph glyph-name="Ntilde" unicode="&#xd1;" horiz-adv-x="1807" 
d="M729 144v-144h-640v144l156 28q23 4 34.5 18.5t11.5 37.5v1096q0 23 -11.5 37.5t-34.5 19.5l-156 30v151h592l655 -1065v827q0 23 -12 38t-34 19l-166 30v151h613v-151l-145 -30q-23 -5 -34.5 -19.5t-11.5 -37.5v-1324h-343l-702 1152v-923q0 -23 12 -37.5t34 -18.5z
M1382 1985q-15 -58 -43.5 -112t-67.5 -95t-89.5 -65.5t-109.5 -24.5t-107.5 21t-89.5 45.5t-78 45.5t-75 21q-49 0 -90 -35t-75 -87l-106 59q16 58 44 112t67.5 94.5t90 65t109.5 24.5t107 -20.5t89 -45.5t78.5 -45.5t75.5 -20.5q48 0 89.5 34.5t75.5 86.5z" />
    <glyph glyph-name="Ograve" unicode="&#xd2;" horiz-adv-x="1599" 
d="M773 -34q-176 0 -304.5 55t-211.5 156t-123 247t-40 327q0 199 47 356t139 265t229.5 165t315.5 57q176 0 305 -55t212 -156.5t123 -247.5t40 -327q0 -198 -47 -355.5t-139 -265t-229.5 -164.5t-316.5 -57zM804 1438q-146 0 -220 -156t-74 -512q0 -346 70.5 -497.5
t213.5 -151.5q144 0 219 158t75 515q0 346 -70.5 495t-213.5 149zM569 2143l510 -353l-72 -130q-74 24 -157 53t-162.5 62t-152.5 70.5t-126 77.5z" />
    <glyph glyph-name="Oacute" unicode="&#xd3;" horiz-adv-x="1599" 
d="M773 -34q-176 0 -304.5 55t-211.5 156t-123 247t-40 327q0 199 47 356t139 265t229.5 165t315.5 57q176 0 305 -55t212 -156.5t123 -247.5t40 -327q0 -198 -47 -355.5t-139 -265t-229.5 -164.5t-316.5 -57zM804 1438q-146 0 -220 -156t-74 -512q0 -346 70.5 -497.5
t213.5 -151.5q144 0 219 158t75 515q0 346 -70.5 495t-213.5 149zM1213 1909q-54 -38 -129.5 -73t-158.5 -65.5t-169 -56.5t-161 -47l-63 126l530 340z" />
    <glyph glyph-name="Ocircumflex" unicode="&#xd4;" horiz-adv-x="1599" 
d="M773 -34q-176 0 -304.5 55t-211.5 156t-123 247t-40 327q0 199 47 356t139 265t229.5 165t315.5 57q176 0 305 -55t212 -156.5t123 -247.5t40 -327q0 -198 -47 -355.5t-139 -265t-229.5 -164.5t-316.5 -57zM804 1438q-146 0 -220 -156t-74 -512q0 -346 70.5 -497.5
t213.5 -151.5q144 0 219 158t75 515q0 346 -70.5 495t-213.5 149zM453 1655l-97 111l320 326l221 10l344 -328l-102 -117l-355 201z" />
    <glyph glyph-name="Otilde" unicode="&#xd5;" horiz-adv-x="1599" 
d="M773 -34q-176 0 -304.5 55t-211.5 156t-123 247t-40 327q0 199 47 356t139 265t229.5 165t315.5 57q176 0 305 -55t212 -156.5t123 -247.5t40 -327q0 -198 -47 -355.5t-139 -265t-229.5 -164.5t-316.5 -57zM804 1438q-146 0 -220 -156t-74 -512q0 -346 70.5 -497.5
t213.5 -151.5q144 0 219 158t75 515q0 346 -70.5 495t-213.5 149zM1264 1985q-15 -58 -43.5 -112t-67.5 -95t-89.5 -65.5t-109.5 -24.5t-107.5 21t-89.5 45.5t-78 45.5t-75 21q-49 0 -90 -35t-75 -87l-106 59q16 58 44 112t67.5 94.5t90 65t109.5 24.5t107 -20.5t89 -45.5
t78.5 -45.5t75.5 -20.5q48 0 89.5 34.5t75.5 86.5z" />
    <glyph glyph-name="Odieresis" unicode="&#xd6;" horiz-adv-x="1599" 
d="M773 -34q-176 0 -304.5 55t-211.5 156t-123 247t-40 327q0 199 47 356t139 265t229.5 165t315.5 57q176 0 305 -55t212 -156.5t123 -247.5t40 -327q0 -198 -47 -355.5t-139 -265t-229.5 -164.5t-316.5 -57zM804 1438q-146 0 -220 -156t-74 -512q0 -346 70.5 -497.5
t213.5 -151.5q144 0 219 158t75 515q0 346 -70.5 495t-213.5 149zM1235 1858q0 -78 -45.5 -125.5t-121.5 -47.5t-122 47.5t-46 125.5t46 124.5t122 46.5t121.5 -46.5t45.5 -124.5zM697 1858q0 -78 -46 -125.5t-121 -47.5q-77 0 -123 47.5t-46 125.5t46 124.5t123 46.5
q75 0 121 -46.5t46 -124.5z" />
    <glyph glyph-name="multiply" unicode="&#xd7;" horiz-adv-x="1109" 
d="M270 154l-171 177l296 286l-296 286l173 177l282 -310l283 310l172 -177l-296 -286l296 -286l-171 -177l-284 310z" />
    <glyph glyph-name="Oslash" unicode="&#xd8;" horiz-adv-x="1599" 
d="M479 770q0 -137 11.5 -243t34.5 -182l459 1015q-35 43 -82.5 62.5t-105.5 19.5q-157 0 -237 -154.5t-80 -517.5zM784 118q157 0 237 156.5t80 519.5q0 128 -10 229t-30 175l-457 -1006q35 -38 80.5 -56t99.5 -18zM764 -34q-64 0 -123 7.5t-110 22.5l-112 -229l-162 83
l109 220q-143 95 -212 270t-69 411q0 199 47 356t139 265t229.5 165t315.5 57q69 0 130.5 -8.5t115.5 -24.5l98 201l161 -84l-96 -195q138 -96 204.5 -269.5t66.5 -405.5q0 -198 -47 -355.5t-139 -265t-229.5 -164.5t-316.5 -57z" />
    <glyph glyph-name="Ugrave" unicode="&#xd9;" horiz-adv-x="1723" 
d="M1046 1562h599v-151l-110 -28q-22 -6 -33.5 -21t-11.5 -37v-747q0 -164 -43.5 -279.5t-123.5 -187t-194 -104t-254 -32.5q-325 0 -486 144.5t-161 471.5v734q0 22 -11 36.5t-33 21.5l-100 28v151h741v-151l-159 -34q-22 -4 -34 -19t-12 -37v-762q0 -204 70 -320t245 -116
q92 0 154 32t99.5 89.5t53.5 137.5t16 175v767q0 23 -12 37.5t-34 18.5l-166 31v151zM658 2143l510 -353l-72 -130q-74 24 -157 53t-162.5 62t-152.5 70.5t-126 77.5z" />
    <glyph glyph-name="Uacute" unicode="&#xda;" horiz-adv-x="1723" 
d="M1046 1562h599v-151l-110 -28q-22 -6 -33.5 -21t-11.5 -37v-747q0 -164 -43.5 -279.5t-123.5 -187t-194 -104t-254 -32.5q-325 0 -486 144.5t-161 471.5v734q0 22 -11 36.5t-33 21.5l-100 28v151h741v-151l-159 -34q-22 -4 -34 -19t-12 -37v-762q0 -204 70 -320t245 -116
q92 0 154 32t99.5 89.5t53.5 137.5t16 175v767q0 23 -12 37.5t-34 18.5l-166 31v151zM1302 1909q-54 -38 -129.5 -73t-158.5 -65.5t-169 -56.5t-161 -47l-63 126l530 340z" />
    <glyph glyph-name="Ucircumflex" unicode="&#xdb;" horiz-adv-x="1723" 
d="M1046 1562h599v-151l-110 -28q-22 -6 -33.5 -21t-11.5 -37v-747q0 -164 -43.5 -279.5t-123.5 -187t-194 -104t-254 -32.5q-325 0 -486 144.5t-161 471.5v734q0 22 -11 36.5t-33 21.5l-100 28v151h741v-151l-159 -34q-22 -4 -34 -19t-12 -37v-762q0 -204 70 -320t245 -116
q92 0 154 32t99.5 89.5t53.5 137.5t16 175v767q0 23 -12 37.5t-34 18.5l-166 31v151zM542 1655l-97 111l320 326l221 10l344 -328l-102 -117l-355 201z" />
    <glyph glyph-name="Udieresis" unicode="&#xdc;" horiz-adv-x="1723" 
d="M1046 1562h599v-151l-110 -28q-22 -6 -33.5 -21t-11.5 -37v-747q0 -164 -43.5 -279.5t-123.5 -187t-194 -104t-254 -32.5q-325 0 -486 144.5t-161 471.5v734q0 22 -11 36.5t-33 21.5l-100 28v151h741v-151l-159 -34q-22 -4 -34 -19t-12 -37v-762q0 -204 70 -320t245 -116
q92 0 154 32t99.5 89.5t53.5 137.5t16 175v767q0 23 -12 37.5t-34 18.5l-166 31v151zM1324 1858q0 -78 -45.5 -125.5t-121.5 -47.5t-122 47.5t-46 125.5t46 124.5t122 46.5t121.5 -46.5t45.5 -124.5zM786 1858q0 -78 -46 -125.5t-121 -47.5q-77 0 -123 47.5t-46 125.5
t46 124.5t123 46.5q75 0 121 -46.5t46 -124.5z" />
    <glyph glyph-name="Yacute" unicode="&#xdd;" horiz-adv-x="1511" 
d="M1198 0h-866v143l190 38q23 4 35 17.5t12 36.5v377l-413 727q-10 17 -23.5 27t-32.5 14l-124 31v151h761v-151l-157 -40l279 -540l260 541l-175 39v151h558v-151l-115 -29q-19 -4 -33 -13.5t-23 -27.5l-370 -729v-377q0 -23 12 -36.5t35 -17.5l190 -38v-143zM1204 1909
q-54 -38 -129.5 -73t-158.5 -65.5t-169 -56.5t-161 -47l-63 126l530 340z" />
    <glyph glyph-name="Thorn" unicode="&#xde;" horiz-adv-x="1467" 
d="M796 467q96 0 151.5 77.5t55.5 251.5q0 57 -11 109t-36 90.5t-66.5 61t-101.5 22.5q-31 0 -65 -2t-71 -7v-591q40 -6 76.5 -9t67.5 -3zM864 144v-144h-771v144l138 29q23 4 35 18.5t12 37.5v1095q0 23 -12 37.5t-35 19.5l-138 30v151h771v-151l-166 -30q-22 -5 -34 -19.5
t-12 -37.5v-112q73 7 148 13t144 6q228 0 342.5 -103t114.5 -319q0 -249 -139 -366.5t-396 -117.5q-63 0 -114 2.5t-100 6.5v-104q0 -23 11.5 -37.5t34.5 -18.5z" />
    <glyph glyph-name="germandbls" unicode="&#xdf;" horiz-adv-x="1669" 
d="M1144 -29q-112 0 -220 24t-186 58q-4 32 -6 67.5t-2 68.5q0 52 3.5 102.5t10.5 95.5h180l42 -150q10 -36 18 -52t27 -32q22 -17 52.5 -29.5t66.5 -12.5q57 0 97.5 32.5t40.5 91.5q0 83 -69.5 139t-170.5 115q-104 62 -169.5 136.5t-65.5 187.5q0 116 68.5 197.5
t169.5 132.5q10 43 16.5 83t6.5 80q0 128 -62.5 203t-177.5 75q-100 0 -159.5 -66t-59.5 -217v-1301h-516v142l108 20q23 4 35 18.5t12 37.5v720l-167 31v137l167 34v59q0 113 54.5 221t147 192t216 135.5t259.5 51.5q93 0 183 -26.5t160.5 -80t115 -135t45.5 -190.5
q1 -62 -13.5 -129t-41.5 -137q-99 -24 -160.5 -70t-61.5 -112q0 -60 54 -105.5t159 -108.5q137 -82 206.5 -163t69.5 -207q0 -91 -37 -159.5t-101.5 -113.5t-153 -68t-191.5 -23z" />
    <glyph glyph-name="agrave" unicode="&#xe0;" horiz-adv-x="1251" 
d="M552 176q45 0 85.5 13t74.5 37v247l-110 -7q-97 -5 -132 -53t-35 -112q0 -63 27 -94t90 -31zM975 -19q-86 0 -147 29.5t-93 104.5q-58 -66 -144.5 -102t-192.5 -36q-152 0 -242.5 77.5t-90.5 203.5q0 80 36.5 141t97.5 102.5t141.5 64.5t167.5 28l204 11v112
q0 122 -56 169t-161 47q-91 0 -169.5 -29.5t-144.5 -88.5l-82 71q49 129 175 204.5t328 75.5q242 0 351 -112.5t109 -330.5v-495q0 -31 13 -44.5t38 -16.5l99 -12v-135q-40 -11 -108.5 -25t-128.5 -14zM464 1813l382 -446l-97 -116q-149 82 -277.5 181.5t-204.5 196.5z" />
    <glyph glyph-name="aacute" unicode="&#xe1;" horiz-adv-x="1251" 
d="M552 176q45 0 85.5 13t74.5 37v247l-110 -7q-97 -5 -132 -53t-35 -112q0 -63 27 -94t90 -31zM975 -19q-86 0 -147 29.5t-93 104.5q-58 -66 -144.5 -102t-192.5 -36q-152 0 -242.5 77.5t-90.5 203.5q0 80 36.5 141t97.5 102.5t141.5 64.5t167.5 28l204 11v112
q0 122 -56 169t-161 47q-91 0 -169.5 -29.5t-144.5 -88.5l-82 71q49 129 175 204.5t328 75.5q242 0 351 -112.5t109 -330.5v-495q0 -31 13 -44.5t38 -16.5l99 -12v-135q-40 -11 -108.5 -25t-128.5 -14zM507 1251l-91 109l396 453l197 -184q-38 -47 -92.5 -97t-120 -98
t-139.5 -95t-150 -88z" />
    <glyph glyph-name="acircumflex" unicode="&#xe2;" horiz-adv-x="1251" 
d="M552 176q45 0 85.5 13t74.5 37v247l-110 -7q-97 -5 -132 -53t-35 -112q0 -63 27 -94t90 -31zM975 -19q-86 0 -147 29.5t-93 104.5q-58 -66 -144.5 -102t-192.5 -36q-152 0 -242.5 77.5t-90.5 203.5q0 80 36.5 141t97.5 102.5t141.5 64.5t167.5 28l204 11v112
q0 122 -56 169t-161 47q-91 0 -169.5 -29.5t-144.5 -88.5l-82 71q49 129 175 204.5t328 75.5q242 0 351 -112.5t109 -330.5v-495q0 -31 13 -44.5t38 -16.5l99 -12v-135q-40 -11 -108.5 -25t-128.5 -14zM291 1263l-110 104l301 392l217 19l330 -404l-116 -109l-323 252z" />
    <glyph glyph-name="atilde" unicode="&#xe3;" horiz-adv-x="1251" 
d="M552 176q45 0 85.5 13t74.5 37v247l-110 -7q-97 -5 -132 -53t-35 -112q0 -63 27 -94t90 -31zM975 -19q-86 0 -147 29.5t-93 104.5q-58 -66 -144.5 -102t-192.5 -36q-152 0 -242.5 77.5t-90.5 203.5q0 80 36.5 141t97.5 102.5t141.5 64.5t167.5 28l204 11v112
q0 122 -56 169t-161 47q-91 0 -169.5 -29.5t-144.5 -88.5l-82 71q49 129 175 204.5t328 75.5q242 0 351 -112.5t109 -330.5v-495q0 -31 13 -44.5t38 -16.5l99 -12v-135q-40 -11 -108.5 -25t-128.5 -14zM1055 1597q-15 -60 -42.5 -115.5t-65.5 -97.5t-87 -67.5t-107 -25.5
q-56 0 -102 22t-85 48.5t-75 48.5t-72 22q-46 0 -86 -38t-72 -92l-104 60q15 61 42 117t65 98t87 67.5t107 25.5q56 0 102 -22t85 -48.5t75 -48.5t72 -22q46 0 86 37.5t72 92.5z" />
    <glyph glyph-name="adieresis" unicode="&#xe4;" horiz-adv-x="1251" 
d="M552 176q45 0 85.5 13t74.5 37v247l-110 -7q-97 -5 -132 -53t-35 -112q0 -63 27 -94t90 -31zM975 -19q-86 0 -147 29.5t-93 104.5q-58 -66 -144.5 -102t-192.5 -36q-152 0 -242.5 77.5t-90.5 203.5q0 80 36.5 141t97.5 102.5t141.5 64.5t167.5 28l204 11v112
q0 122 -56 169t-161 47q-91 0 -169.5 -29.5t-144.5 -88.5l-82 71q49 129 175 204.5t328 75.5q242 0 351 -112.5t109 -330.5v-495q0 -31 13 -44.5t38 -16.5l99 -12v-135q-40 -11 -108.5 -25t-128.5 -14zM1014 1483q0 -78 -45.5 -125t-121.5 -47t-122 47t-46 125t46 124.5
t122 46.5t121.5 -46.5t45.5 -124.5zM533 1483q0 -78 -46 -125t-121 -47q-77 0 -123 47t-46 125t46 124.5t123 46.5q75 0 121 -46.5t46 -124.5z" />
    <glyph glyph-name="aring" unicode="&#xe5;" horiz-adv-x="1251" 
d="M552 176q45 0 85.5 13t74.5 37v247l-110 -7q-97 -5 -132 -53t-35 -112q0 -63 27 -94t90 -31zM975 -19q-86 0 -147 29.5t-93 104.5q-58 -66 -144.5 -102t-192.5 -36q-152 0 -242.5 77.5t-90.5 203.5q0 80 36.5 141t97.5 102.5t141.5 64.5t167.5 28l204 11v112
q0 122 -56 169t-161 47q-91 0 -169.5 -29.5t-144.5 -88.5l-82 71q49 129 175 204.5t328 75.5q242 0 351 -112.5t109 -330.5v-495q0 -31 13 -44.5t38 -16.5l99 -12v-135q-40 -11 -108.5 -25t-128.5 -14zM916 1531q0 -59 -24.5 -107t-67 -81.5t-100 -51.5t-122.5 -18
q-149 0 -228 70.5t-79 192.5q0 59 25.5 106.5t68.5 80.5t101.5 51t125.5 18q152 0 226 -74t74 -187zM488 1537q0 -53 29.5 -91.5t88.5 -38.5q57 0 87 29.5t30 89.5q0 57 -28 94t-88 37q-57 0 -88 -29.5t-31 -90.5z" />
    <glyph glyph-name="ae" unicode="&#xe6;" horiz-adv-x="1793" 
d="M1236 1019q-64 0 -110.5 -59t-59.5 -208h317q1 9 1 20.5v25.5q0 95 -36.5 158t-111.5 63zM1704 249q-21 -71 -67 -123t-108 -85.5t-138.5 -50t-157.5 -16.5q-149 0 -253 50.5t-167 140.5q-63 -88 -167.5 -138t-235.5 -50q-165 0 -255 77t-90 202q0 81 36.5 142.5
t97.5 103.5t141.5 65.5t167.5 27.5l204 12v110q0 118 -60.5 167t-163.5 49q-83 0 -162.5 -29.5t-144.5 -88.5l-82 71q49 134 176.5 207t299.5 73q113 0 190.5 -32t126.5 -90q67 59 160.5 91t212.5 32q115 0 200 -29.5t140 -80.5t81.5 -122.5t26.5 -155.5q0 -37 -5 -81.5
t-12 -79.5h-635q1 -227 69 -325t212 -98q78 0 156 28t128 84zM552 176q56 0 109.5 22.5t101.5 60.5q-19 47 -31 101t-16 113l-114 -7q-98 -6 -132.5 -54t-34.5 -111t27 -94t90 -31z" />
    <glyph glyph-name="ccedilla" unicode="&#xe7;" horiz-adv-x="1139" 
d="M79 556q0 150 44 265t121.5 191.5t185.5 116t234 39.5q106 0 211 -25t174 -63q7 -101 0.5 -200.5t-24.5 -191.5h-175l-57 201q-10 35 -19.5 53.5t-22.5 31.5q-16 15 -41 25t-55 10q-79 0 -133 -93t-54 -312q0 -202 60 -305.5t203 -103.5q88 0 153.5 31.5t101.5 63.5
l77 -62q-37 -108 -153.5 -181t-297.5 -73q-138 0 -239 45t-166 123t-96.5 185t-31.5 229zM536 51h117l-40 -140h31q89 -2 144 -51t55 -133q0 -114 -110 -184.5t-286 -70.5q-16 0 -32 0.5t-32 1.5l-19 115q101 10 152.5 44.5t51.5 83.5q0 43 -32.5 65t-84.5 24z" />
    <glyph glyph-name="egrave" unicode="&#xe8;" horiz-adv-x="1184" 
d="M623 1019q-67 0 -110.5 -58.5t-55.5 -208.5h317q1 9 1 20.5v25.5q0 96 -36.5 158.5t-115.5 62.5zM1095 249q-40 -134 -168 -204.5t-307 -70.5q-138 0 -240 41t-168 117t-98 185t-32 243q0 296 148 451.5t418 155.5q119 0 206 -29t142 -80.5t81.5 -123t26.5 -154.5
q0 -38 -5 -82.5t-12 -79.5h-635q1 -220 61 -321.5t217 -101.5q82 0 159.5 28t127.5 84zM475 1813l382 -446l-97 -116q-149 82 -277.5 181.5t-204.5 196.5z" />
    <glyph glyph-name="eacute" unicode="&#xe9;" horiz-adv-x="1184" 
d="M623 1019q-67 0 -110.5 -58.5t-55.5 -208.5h317q1 9 1 20.5v25.5q0 96 -36.5 158.5t-115.5 62.5zM1095 249q-40 -134 -168 -204.5t-307 -70.5q-138 0 -240 41t-168 117t-98 185t-32 243q0 296 148 451.5t418 155.5q119 0 206 -29t142 -80.5t81.5 -123t26.5 -154.5
q0 -38 -5 -82.5t-12 -79.5h-635q1 -220 61 -321.5t217 -101.5q82 0 159.5 28t127.5 84zM518 1251l-91 109l396 453l197 -184q-38 -47 -92.5 -97t-120 -98t-139.5 -95t-150 -88z" />
    <glyph glyph-name="ecircumflex" unicode="&#xea;" horiz-adv-x="1184" 
d="M623 1019q-67 0 -110.5 -58.5t-55.5 -208.5h317q1 9 1 20.5v25.5q0 96 -36.5 158.5t-115.5 62.5zM1095 249q-40 -134 -168 -204.5t-307 -70.5q-138 0 -240 41t-168 117t-98 185t-32 243q0 296 148 451.5t418 155.5q119 0 206 -29t142 -80.5t81.5 -123t26.5 -154.5
q0 -38 -5 -82.5t-12 -79.5h-635q1 -220 61 -321.5t217 -101.5q82 0 159.5 28t127.5 84zM302 1263l-110 104l301 392l217 19l330 -404l-116 -109l-323 252z" />
    <glyph glyph-name="edieresis" unicode="&#xeb;" horiz-adv-x="1184" 
d="M623 1019q-67 0 -110.5 -58.5t-55.5 -208.5h317q1 9 1 20.5v25.5q0 96 -36.5 158.5t-115.5 62.5zM1095 249q-40 -134 -168 -204.5t-307 -70.5q-138 0 -240 41t-168 117t-98 185t-32 243q0 296 148 451.5t418 155.5q119 0 206 -29t142 -80.5t81.5 -123t26.5 -154.5
q0 -38 -5 -82.5t-12 -79.5h-635q1 -220 61 -321.5t217 -101.5q82 0 159.5 28t127.5 84zM1025 1483q0 -78 -45.5 -125t-121.5 -47t-122 47t-46 125t46 124.5t122 46.5t121.5 -46.5t45.5 -124.5zM544 1483q0 -78 -46 -125t-121 -47q-77 0 -123 47t-46 125t46 124.5t123 46.5
q75 0 121 -46.5t46 -124.5z" />
    <glyph glyph-name="igrave" unicode="&#xec;" horiz-adv-x="801" 
d="M596 1121v-902q0 -23 12.5 -37.5t34.5 -18.5l108 -20v-143h-671v143l108 20q22 4 34.5 18.5t12.5 37.5v659q0 22 -11 38t-33 20l-122 25v147q54 14 115.5 25t124 18t124 10.5t115.5 3.5zM232 1813l382 -446l-97 -116q-149 82 -277.5 181.5t-204.5 196.5z" />
    <glyph glyph-name="iacute" unicode="&#xed;" horiz-adv-x="801" 
d="M596 1121v-902q0 -23 12.5 -37.5t34.5 -18.5l108 -20v-143h-671v143l108 20q22 4 34.5 18.5t12.5 37.5v659q0 22 -11 38t-33 20l-122 25v147q54 14 115.5 25t124 18t124 10.5t115.5 3.5zM275 1251l-91 109l396 453l197 -184q-38 -47 -92.5 -97t-120 -98t-139.5 -95
t-150 -88z" />
    <glyph glyph-name="icircumflex" unicode="&#xee;" horiz-adv-x="801" 
d="M596 1121v-902q0 -23 12.5 -37.5t34.5 -18.5l108 -20v-143h-671v143l108 20q22 4 34.5 18.5t12.5 37.5v659q0 22 -11 38t-33 20l-122 25v147q54 14 115.5 25t124 18t124 10.5t115.5 3.5zM99 1264l-110 98l261 392l217 19l290 -404l-116 -103l-283 256z" />
    <glyph glyph-name="idieresis" unicode="&#xef;" horiz-adv-x="801" 
d="M596 1121v-902q0 -23 12.5 -37.5t34.5 -18.5l108 -20v-143h-671v143l108 20q22 4 34.5 18.5t12.5 37.5v659q0 22 -11 38t-33 20l-122 25v147q54 14 115.5 25t124 18t124 10.5t115.5 3.5zM782 1483q0 -78 -45.5 -125t-121.5 -47t-122 47t-46 125t46 124.5t122 46.5
t121.5 -46.5t45.5 -124.5zM301 1483q0 -78 -46 -125t-121 -47q-77 0 -123 47t-46 125t46 124.5t123 46.5q75 0 121 -46.5t46 -124.5z" />
    <glyph glyph-name="eth" unicode="&#xf0;" horiz-adv-x="1311" 
d="M620 -23q-250 0 -394 145t-144 427q0 160 44 271t112 178.5t150.5 98t158.5 30.5q61 0 122.5 -18.5t110.5 -58.5q-28 95 -73 176.5t-109 153.5l-282 -190l-96 160l253 146q-57 46 -126.5 89t-150.5 86l62 128q122 -27 229.5 -71t198.5 -101l258 170l97 -157l-212 -120
q94 -82 165.5 -182t118.5 -210t71 -230t24 -243q0 -129 -28.5 -251.5t-96 -217t-181 -152t-282.5 -57.5zM651 131q98 0 139.5 104.5t41.5 363.5q0 73 -4 140.5t-11 127.5q-31 32 -72 50t-91 18q-44 0 -78 -18t-56.5 -62t-34.5 -119t-12 -188q0 -194 39.5 -305.5
t138.5 -111.5z" />
    <glyph glyph-name="ntilde" unicode="&#xf1;" horiz-adv-x="1496" 
d="M708 142v-142h-628v142l109 21q22 4 34 18.5t12 37.5v659q0 22 -11 38t-33 20l-122 25v147q105 28 221 42.5t217 15.5l50 -45l21 -109q71 75 165 112.5t207 37.5q201 0 275 -112.5t74 -317.5v-513q0 -23 12 -37.5t34 -18.5l109 -20v-143h-628v142l67 20q22 8 33.5 21
t11.5 36v473q0 140 -41 198.5t-130 58.5q-41 0 -85 -12t-86 -36v-682q0 -23 11.5 -36.5t32.5 -20.5zM1202 1597q-15 -60 -42.5 -115.5t-65.5 -97.5t-87 -67.5t-107 -25.5q-56 0 -102 22t-85 48.5t-75 48.5t-72 22q-46 0 -86 -38t-72 -92l-104 60q15 61 42 117t65 98t87 67.5
t107 25.5q56 0 102 -22t85 -48.5t75 -48.5t72 -22q46 0 86 37.5t72 92.5z" />
    <glyph glyph-name="ograve" unicode="&#xf2;" horiz-adv-x="1315" 
d="M81 558q0 167 45.5 284t124.5 189t188 104.5t234 32.5q262 0 411 -143t149 -442q0 -168 -45.5 -285t-124.5 -188.5t-187.5 -103.5t-234.5 -32q-261 0 -410.5 143t-149.5 441zM844 556q0 251 -40.5 356t-150.5 105q-91 0 -136.5 -94.5t-45.5 -337.5q0 -251 40.5 -356
t150.5 -105q91 0 136.5 95t45.5 337zM516 1813l382 -446l-97 -116q-149 82 -277.5 181.5t-204.5 196.5z" />
    <glyph glyph-name="oacute" unicode="&#xf3;" horiz-adv-x="1315" 
d="M81 558q0 167 45.5 284t124.5 189t188 104.5t234 32.5q262 0 411 -143t149 -442q0 -168 -45.5 -285t-124.5 -188.5t-187.5 -103.5t-234.5 -32q-261 0 -410.5 143t-149.5 441zM844 556q0 251 -40.5 356t-150.5 105q-91 0 -136.5 -94.5t-45.5 -337.5q0 -251 40.5 -356
t150.5 -105q91 0 136.5 95t45.5 337zM559 1251l-91 109l396 453l197 -184q-38 -47 -92.5 -97t-120 -98t-139.5 -95t-150 -88z" />
    <glyph glyph-name="ocircumflex" unicode="&#xf4;" horiz-adv-x="1315" 
d="M81 558q0 167 45.5 284t124.5 189t188 104.5t234 32.5q262 0 411 -143t149 -442q0 -168 -45.5 -285t-124.5 -188.5t-187.5 -103.5t-234.5 -32q-261 0 -410.5 143t-149.5 441zM844 556q0 251 -40.5 356t-150.5 105q-91 0 -136.5 -94.5t-45.5 -337.5q0 -251 40.5 -356
t150.5 -105q91 0 136.5 95t45.5 337zM343 1263l-110 104l301 392l217 19l330 -404l-116 -109l-323 252z" />
    <glyph glyph-name="otilde" unicode="&#xf5;" horiz-adv-x="1315" 
d="M81 558q0 167 45.5 284t124.5 189t188 104.5t234 32.5q262 0 411 -143t149 -442q0 -168 -45.5 -285t-124.5 -188.5t-187.5 -103.5t-234.5 -32q-261 0 -410.5 143t-149.5 441zM844 556q0 251 -40.5 356t-150.5 105q-91 0 -136.5 -94.5t-45.5 -337.5q0 -251 40.5 -356
t150.5 -105q91 0 136.5 95t45.5 337zM1107 1597q-15 -60 -42.5 -115.5t-65.5 -97.5t-87 -67.5t-107 -25.5q-56 0 -102 22t-85 48.5t-75 48.5t-72 22q-46 0 -86 -38t-72 -92l-104 60q15 61 42 117t65 98t87 67.5t107 25.5q56 0 102 -22t85 -48.5t75 -48.5t72 -22
q46 0 86 37.5t72 92.5z" />
    <glyph glyph-name="odieresis" unicode="&#xf6;" horiz-adv-x="1315" 
d="M81 558q0 167 45.5 284t124.5 189t188 104.5t234 32.5q262 0 411 -143t149 -442q0 -168 -45.5 -285t-124.5 -188.5t-187.5 -103.5t-234.5 -32q-261 0 -410.5 143t-149.5 441zM844 556q0 251 -40.5 356t-150.5 105q-91 0 -136.5 -94.5t-45.5 -337.5q0 -251 40.5 -356
t150.5 -105q91 0 136.5 95t45.5 337zM1066 1483q0 -78 -45.5 -125t-121.5 -47t-122 47t-46 125t46 124.5t122 46.5t121.5 -46.5t45.5 -124.5zM585 1483q0 -78 -46 -125t-121 -47q-77 0 -123 47t-46 125t46 124.5t123 46.5q75 0 121 -46.5t46 -124.5z" />
    <glyph glyph-name="divide" unicode="&#xf7;" horiz-adv-x="1123" 
d="M743 998q0 -73 -50 -117t-132 -44q-81 0 -131 44t-50 117t50 117.5t131 44.5q82 0 132 -44.5t50 -117.5zM1031 516h-939v210h939v-210zM743 243q0 -73 -50 -117.5t-132 -44.5q-81 0 -131 44.5t-50 117.5t50 117.5t131 44.5q82 0 132 -44.5t50 -117.5z" />
    <glyph glyph-name="oslash" unicode="&#xf8;" horiz-adv-x="1315" 
d="M437 585q0 -97 6.5 -172.5t21.5 -129.5l312 701q-24 20 -55 29.5t-70 9.5q-102 0 -158.5 -95.5t-56.5 -342.5zM662 118q102 0 158.5 96t56.5 342q0 91 -6 163t-19 125l-308 -693q23 -17 52.5 -25t65.5 -8zM641 -26q-42 0 -81 3.5t-76 10.5l-103 -212l-150 77l95 192
q-117 64 -181 192t-64 321q0 167 45.5 284t124.5 189t188 104.5t234 32.5q45 0 86.5 -4t80.5 -12l94 194l150 -77l-87 -176q113 -66 174.5 -193t61.5 -317q0 -168 -45.5 -285t-124.5 -188.5t-187.5 -103.5t-234.5 -32z" />
    <glyph glyph-name="ugrave" unicode="&#xf9;" horiz-adv-x="1447" 
d="M1154 -19q-87 0 -147 32.5t-93 100.5q-63 -66 -146.5 -101.5t-208.5 -35.5q-178 0 -268 96.5t-90 296.5v511q0 22 -11 37.5t-33 20.5l-107 27v148q52 12 111.5 22t120 16.5t120.5 9.5t112 3l48 -44v-704q0 -142 39 -192.5t121 -50.5q41 0 82 12.5t81 35.5v660
q0 22 -11 38t-33 21l-114 27v148q53 12 113.5 21.5t122 15.5t122 9t113.5 3l48 -44v-893q0 -32 13.5 -45t38.5 -16l98 -12v-135q-37 -11 -107 -25t-135 -14zM560 1813l382 -446l-97 -116q-149 82 -277.5 181.5t-204.5 196.5z" />
    <glyph glyph-name="uacute" unicode="&#xfa;" horiz-adv-x="1447" 
d="M1154 -19q-87 0 -147 32.5t-93 100.5q-63 -66 -146.5 -101.5t-208.5 -35.5q-178 0 -268 96.5t-90 296.5v511q0 22 -11 37.5t-33 20.5l-107 27v148q52 12 111.5 22t120 16.5t120.5 9.5t112 3l48 -44v-704q0 -142 39 -192.5t121 -50.5q41 0 82 12.5t81 35.5v660
q0 22 -11 38t-33 21l-114 27v148q53 12 113.5 21.5t122 15.5t122 9t113.5 3l48 -44v-893q0 -32 13.5 -45t38.5 -16l98 -12v-135q-37 -11 -107 -25t-135 -14zM603 1251l-91 109l396 453l197 -184q-38 -47 -92.5 -97t-120 -98t-139.5 -95t-150 -88z" />
    <glyph glyph-name="ucircumflex" unicode="&#xfb;" horiz-adv-x="1447" 
d="M1154 -19q-87 0 -147 32.5t-93 100.5q-63 -66 -146.5 -101.5t-208.5 -35.5q-178 0 -268 96.5t-90 296.5v511q0 22 -11 37.5t-33 20.5l-107 27v148q52 12 111.5 22t120 16.5t120.5 9.5t112 3l48 -44v-704q0 -142 39 -192.5t121 -50.5q41 0 82 12.5t81 35.5v660
q0 22 -11 38t-33 21l-114 27v148q53 12 113.5 21.5t122 15.5t122 9t113.5 3l48 -44v-893q0 -32 13.5 -45t38.5 -16l98 -12v-135q-37 -11 -107 -25t-135 -14zM387 1263l-110 104l301 392l217 19l330 -404l-116 -109l-323 252z" />
    <glyph glyph-name="udieresis" unicode="&#xfc;" horiz-adv-x="1447" 
d="M1154 -19q-87 0 -147 32.5t-93 100.5q-63 -66 -146.5 -101.5t-208.5 -35.5q-178 0 -268 96.5t-90 296.5v511q0 22 -11 37.5t-33 20.5l-107 27v148q52 12 111.5 22t120 16.5t120.5 9.5t112 3l48 -44v-704q0 -142 39 -192.5t121 -50.5q41 0 82 12.5t81 35.5v660
q0 22 -11 38t-33 21l-114 27v148q53 12 113.5 21.5t122 15.5t122 9t113.5 3l48 -44v-893q0 -32 13.5 -45t38.5 -16l98 -12v-135q-37 -11 -107 -25t-135 -14zM1110 1483q0 -78 -45.5 -125t-121.5 -47t-122 47t-46 125t46 124.5t122 46.5t121.5 -46.5t45.5 -124.5zM629 1483
q0 -78 -46 -125t-121 -47q-77 0 -123 47t-46 125t46 124.5t123 46.5q75 0 121 -46.5t46 -124.5z" />
    <glyph glyph-name="yacute" unicode="&#xfd;" horiz-adv-x="1299" 
d="M325 -518q-69 0 -142.5 8.5t-133.5 19.5v169q115 18 206.5 38.5t164 54.5t129.5 88.5t103 139.5h-146l-356 920q-8 22 -22.5 34t-36.5 19l-76 24v141l666 -1v-144l-148 -32l229 -673l215 674l-142 32v144h455v-141l-76 -24q-24 -7 -37 -18.5t-21 -34.5l-331 -938
q-89 -251 -206.5 -375.5t-293.5 -124.5zM601 1251l-91 109l396 453l197 -184q-38 -47 -92.5 -97t-120 -98t-139.5 -95t-150 -88z" />
    <glyph glyph-name="thorn" unicode="&#xfe;" horiz-adv-x="1336" 
d="M636 117q53 0 97 22.5t75 74.5t48 139t18 215q1 211 -50.5 299.5t-156.5 88.5q-42 0 -80.5 -10t-66.5 -25v-782q26 -13 56 -17.5t60 -4.5zM723 -354v-142h-719v142l109 21q22 4 34 18.5t12 37.5v1795q0 23 -12 37.5t-34 18.5l-130 21v143q53 14 116.5 25t128.5 19.5
t128.5 13t115.5 4.5l48 -44v-713q57 57 133.5 91t175.5 34q90 0 168.5 -32.5t135 -98.5t89 -169.5t32.5 -243.5q0 -157 -43.5 -278.5t-124 -203t-195 -123.5t-254.5 -42q-27 0 -56.5 2.5t-60.5 7.5v-264q0 -24 12.5 -38.5t35.5 -17.5z" />
    <glyph glyph-name="ydieresis" unicode="&#xff;" horiz-adv-x="1299" 
d="M325 -518q-69 0 -142.5 8.5t-133.5 19.5v169q115 18 206.5 38.5t164 54.5t129.5 88.5t103 139.5h-146l-356 920q-8 22 -22.5 34t-36.5 19l-76 24v141l666 -1v-144l-148 -32l229 -673l215 674l-142 32v144h455v-141l-76 -24q-24 -7 -37 -18.5t-21 -34.5l-331 -938
q-89 -251 -206.5 -375.5t-293.5 -124.5zM1108 1483q0 -78 -45.5 -125t-121.5 -47t-122 47t-46 125t46 124.5t122 46.5t121.5 -46.5t45.5 -124.5zM627 1483q0 -78 -46 -125t-121 -47q-77 0 -123 47t-46 125t46 124.5t123 46.5q75 0 121 -46.5t46 -124.5z" />
    <glyph glyph-name="Amacron" unicode="&#x100;" horiz-adv-x="1607" 
d="M918 628l-205 658l-199 -658h404zM567 144v-144h-584v144l136 33q20 5 32.5 16.5t19.5 31.5l455 1342h355l458 -1342q7 -20 20.5 -31t32.5 -17l125 -33v-144h-750v144l191 31l-87 282h-509l-86 -282zM420 1746v206h769v-206h-769z" />
    <glyph glyph-name="amacron" unicode="&#x101;" horiz-adv-x="1251" 
d="M552 176q45 0 85.5 13t74.5 37v247l-110 -7q-97 -5 -132 -53t-35 -112q0 -63 27 -94t90 -31zM975 -19q-86 0 -147 29.5t-93 104.5q-58 -66 -144.5 -102t-192.5 -36q-152 0 -242.5 77.5t-90.5 203.5q0 80 36.5 141t97.5 102.5t141.5 64.5t167.5 28l204 11v112
q0 122 -56 169t-161 47q-91 0 -169.5 -29.5t-144.5 -88.5l-82 71q49 129 175 204.5t328 75.5q242 0 351 -112.5t109 -330.5v-495q0 -31 13 -44.5t38 -16.5l99 -12v-135q-40 -11 -108.5 -25t-128.5 -14zM238 1355v206h735v-206h-735z" />
    <glyph glyph-name="Abreve" unicode="&#x102;" horiz-adv-x="1607" 
d="M918 628l-205 658l-199 -658h404zM567 144v-144h-584v144l136 33q20 5 32.5 16.5t19.5 31.5l455 1342h355l458 -1342q7 -20 20.5 -31t32.5 -17l125 -33v-144h-750v144l191 31l-87 282h-509l-86 -282zM1229 2013q-38 -142 -153 -234.5t-275 -92.5q-82 0 -153 25.5
t-125.5 69t-91 103.5t-50.5 129l142 75q53 -89 129 -127t160 -38q85 0 161 38.5t132 126.5z" />
    <glyph glyph-name="abreve" unicode="&#x103;" horiz-adv-x="1251" 
d="M552 176q45 0 85.5 13t74.5 37v247l-110 -7q-97 -5 -132 -53t-35 -112q0 -63 27 -94t90 -31zM975 -19q-86 0 -147 29.5t-93 104.5q-58 -66 -144.5 -102t-192.5 -36q-152 0 -242.5 77.5t-90.5 203.5q0 80 36.5 141t97.5 102.5t141.5 64.5t167.5 28l204 11v112
q0 122 -56 169t-161 47q-91 0 -169.5 -29.5t-144.5 -88.5l-82 71q49 129 175 204.5t328 75.5q242 0 351 -112.5t109 -330.5v-495q0 -31 13 -44.5t38 -16.5l99 -12v-135q-40 -11 -108.5 -25t-128.5 -14zM1021 1634q-34 -149 -149 -242.5t-274 -93.5q-80 0 -150 25.5t-123 70
t-88 106.5t-46 134l142 73q50 -90 120.5 -131t155.5 -41q86 0 158 41t129 131z" />
    <glyph glyph-name="Aogonek" unicode="&#x104;" horiz-adv-x="1607" 
d="M918 628l-205 658l-199 -658h404zM1550 -442q-59 -38 -138.5 -58t-153.5 -19q-120 1 -201 54.5t-81 157.5q0 53 23.5 99.5t62.5 85t91 68.5t108 49v5h-394v144l191 31l-87 282h-509l-86 -282l191 -31v-144h-584v144l136 33q20 5 32.5 16.5t19.5 31.5l455 1342h355
l458 -1342q7 -20 20.5 -31t32.5 -17l125 -33v-144h-130q-104 -37 -167 -99t-63 -126q0 -52 37 -76.5t91 -24.5q28 0 56.5 6t55.5 17z" />
    <glyph glyph-name="aogonek" unicode="&#x105;" horiz-adv-x="1251" 
d="M1191 -442q-58 -38 -136.5 -58t-150.5 -19q-119 1 -198.5 54.5t-79.5 157.5q0 51 23 97t60.5 83.5t87 66t101.5 46.5v1q-56 10 -97.5 40.5t-65.5 87.5q-58 -66 -144.5 -102t-192.5 -36q-152 0 -242.5 77.5t-90.5 203.5q0 80 36.5 141t97.5 102.5t141.5 64.5t167.5 28
l204 11v112q0 122 -56 169t-161 47q-91 0 -169.5 -29.5t-144.5 -88.5l-82 71q49 129 175 204.5t328 75.5q242 0 351 -112.5t109 -330.5v-495q0 -31 13 -44.5t38 -16.5l99 -12v-135q-17 -4 -40 -10t-50 -12q-99 -37 -159 -98t-60 -125q0 -52 36 -76.5t90 -24.5q28 0 56 6
t55 17zM552 176q45 0 85.5 13t74.5 37v247l-110 -7q-97 -5 -132 -53t-35 -112q0 -63 27 -94t90 -31z" />
    <glyph glyph-name="Cacute" unicode="&#x106;" horiz-adv-x="1459" 
d="M809 -35q-360 0 -537.5 202.5t-177.5 579.5q0 216 55.5 376t156.5 264t244.5 154.5t317.5 50.5q119 0 249.5 -22t238.5 -62q7 -99 2 -213t-24 -239h-223l-59 262q-4 19 -15 40.5t-38 39.5q-28 19 -71 31t-90 12q-150 0 -234 -151t-84 -504q0 -327 79 -497t248 -170
q49 0 96.5 14.5t78.5 44.5q13 12 23.5 29.5t20.5 48.5l71 232l219 -19q5 -92 2.5 -198.5t-18.5 -219.5q-54 -18 -119 -34t-134 -27.5t-140.5 -18t-137.5 -6.5zM1252 1909q-54 -38 -129.5 -73t-158.5 -65.5t-169 -56.5t-161 -47l-63 126l530 340z" />
    <glyph glyph-name="cacute" unicode="&#x107;" horiz-adv-x="1139" 
d="M79 556q0 150 44 265t121.5 191.5t185.5 116t234 39.5q106 0 211 -25t174 -63q7 -101 0.5 -200.5t-24.5 -191.5h-175l-57 201q-10 35 -19.5 53.5t-22.5 31.5q-16 15 -41 25t-55 10q-79 0 -133 -93t-54 -312q0 -202 60 -305.5t203 -103.5q88 0 153.5 31.5t101.5 63.5
l77 -62q-37 -108 -153.5 -181t-297.5 -73q-138 0 -239 45t-166 123t-96.5 185t-31.5 229zM528 1251l-91 109l396 453l197 -184q-38 -47 -92.5 -97t-120 -98t-139.5 -95t-150 -88z" />
    <glyph glyph-name="Ccircumflex" unicode="&#x108;" horiz-adv-x="1459" 
d="M809 -35q-360 0 -537.5 202.5t-177.5 579.5q0 216 55.5 376t156.5 264t244.5 154.5t317.5 50.5q119 0 249.5 -22t238.5 -62q7 -99 2 -213t-24 -239h-223l-59 262q-4 19 -15 40.5t-38 39.5q-28 19 -71 31t-90 12q-150 0 -234 -151t-84 -504q0 -327 79 -497t248 -170
q49 0 96.5 14.5t78.5 44.5q13 12 23.5 29.5t20.5 48.5l71 232l219 -19q5 -92 2.5 -198.5t-18.5 -219.5q-54 -18 -119 -34t-134 -27.5t-140.5 -18t-137.5 -6.5zM492 1655l-97 111l320 326l221 10l344 -328l-102 -117l-355 201z" />
    <glyph glyph-name="ccircumflex" unicode="&#x109;" horiz-adv-x="1139" 
d="M79 556q0 150 44 265t121.5 191.5t185.5 116t234 39.5q106 0 211 -25t174 -63q7 -101 0.5 -200.5t-24.5 -191.5h-175l-57 201q-10 35 -19.5 53.5t-22.5 31.5q-16 15 -41 25t-55 10q-79 0 -133 -93t-54 -312q0 -202 60 -305.5t203 -103.5q88 0 153.5 31.5t101.5 63.5
l77 -62q-37 -108 -153.5 -181t-297.5 -73q-138 0 -239 45t-166 123t-96.5 185t-31.5 229zM312 1263l-110 104l301 392l217 19l330 -404l-116 -109l-323 252z" />
    <glyph glyph-name="Cdotaccent" unicode="&#x10a;" horiz-adv-x="1459" 
d="M809 -35q-360 0 -537.5 202.5t-177.5 579.5q0 216 55.5 376t156.5 264t244.5 154.5t317.5 50.5q119 0 249.5 -22t238.5 -62q7 -99 2 -213t-24 -239h-223l-59 262q-4 19 -15 40.5t-38 39.5q-28 19 -71 31t-90 12q-150 0 -234 -151t-84 -504q0 -327 79 -497t248 -170
q49 0 96.5 14.5t78.5 44.5q13 12 23.5 29.5t20.5 48.5l71 232l219 -19q5 -92 2.5 -198.5t-18.5 -219.5q-54 -18 -119 -34t-134 -27.5t-140.5 -18t-137.5 -6.5zM1039 1886q0 -84 -54.5 -134t-145.5 -50t-146 50t-55 134t55 134t146 50t145.5 -50t54.5 -134z" />
    <glyph glyph-name="cdotaccent" unicode="&#x10b;" horiz-adv-x="1139" 
d="M79 556q0 150 44 265t121.5 191.5t185.5 116t234 39.5q106 0 211 -25t174 -63q7 -101 0.5 -200.5t-24.5 -191.5h-175l-57 201q-10 35 -19.5 53.5t-22.5 31.5q-16 15 -41 25t-55 10q-79 0 -133 -93t-54 -312q0 -202 60 -305.5t203 -103.5q88 0 153.5 31.5t101.5 63.5
l77 -62q-37 -108 -153.5 -181t-297.5 -73q-138 0 -239 45t-166 123t-96.5 185t-31.5 229zM847 1480q0 -83 -53 -132.5t-142 -49.5q-90 0 -143.5 49.5t-53.5 132.5q0 81 53.5 129.5t143.5 48.5q89 0 142 -48.5t53 -129.5z" />
    <glyph glyph-name="Ccaron" unicode="&#x10c;" horiz-adv-x="1459" 
d="M809 -35q-360 0 -537.5 202.5t-177.5 579.5q0 216 55.5 376t156.5 264t244.5 154.5t317.5 50.5q119 0 249.5 -22t238.5 -62q7 -99 2 -213t-24 -239h-223l-59 262q-4 19 -15 40.5t-38 39.5q-28 19 -71 31t-90 12q-150 0 -234 -151t-84 -504q0 -327 79 -497t248 -170
q49 0 96.5 14.5t78.5 44.5q13 12 23.5 29.5t20.5 48.5l71 232l219 -19q5 -92 2.5 -198.5t-18.5 -219.5q-54 -18 -119 -34t-134 -27.5t-140.5 -18t-137.5 -6.5zM1183 2120l97 -111l-320 -326l-221 -10l-344 328l102 117l355 -201z" />
    <glyph glyph-name="ccaron" unicode="&#x10d;" horiz-adv-x="1139" 
d="M79 556q0 150 44 265t121.5 191.5t185.5 116t234 39.5q106 0 211 -25t174 -63q7 -101 0.5 -200.5t-24.5 -191.5h-175l-57 201q-10 35 -19.5 53.5t-22.5 31.5q-16 15 -41 25t-55 10q-79 0 -133 -93t-54 -312q0 -202 60 -305.5t203 -103.5q88 0 153.5 31.5t101.5 63.5
l77 -62q-37 -108 -153.5 -181t-297.5 -73q-138 0 -239 45t-166 123t-96.5 185t-31.5 229zM957 1812l110 -104l-301 -391l-217 -20l-329 404l115 109l323 -252z" />
    <glyph glyph-name="Dcaron" unicode="&#x10e;" horiz-adv-x="1689" 
d="M475 1562q101 0 186 6t172 6q380 0 571 -178.5t191 -562.5q0 -207 -53.5 -367.5t-154 -268.5t-247 -162.5t-331.5 -50.5q-34 1 -79 3.5t-90.5 5.5t-88.5 5t-72 2h-390v144l160 30q19 3 30.5 17t11.5 33v1106q0 19 -11 32t-29 17l-162 32v151h386zM671 161q25 -11 66 -16
t77 -5q86 1 154.5 33t115.5 105.5t72 196t25 301.5q0 304 -86.5 477t-288.5 173q-51 0 -88.5 -8t-46.5 -9v-1248zM1164 2120l97 -111l-320 -326l-221 -10l-344 328l102 117l355 -201z" />
    <glyph glyph-name="dcaron" unicode="&#x10f;" horiz-adv-x="1420" 
d="M660 172q40 0 82.5 10.5t78.5 29.5v777q-25 12 -56.5 18.5t-63.5 6.5q-54 0 -98.5 -21.5t-75 -71.5t-47.5 -134t-17 -209q-1 -218 50 -312t147 -94zM1090 -19q-87 0 -147 33t-93 100q-57 -63 -136.5 -100t-179.5 -37q-98 0 -181 33t-143 101t-94 174t-34 251
q0 307 154.5 469.5t438.5 162.5q37 0 75 -4t71 -11v366q0 23 -12 37.5t-34 18.5l-131 20v141q54 14 117 25.5t127.5 20t128 13.5t117.5 5l48 -45v-1527q0 -32 13.5 -45t37.5 -16l99 -12v-135q-37 -11 -107 -25t-135 -14zM1452 1287l-148 31l39 570l267 -30
q-10 -71 -26.5 -146.5t-37 -149t-45 -144t-49.5 -131.5z" />
    <glyph glyph-name="Dcroat" unicode="&#x110;" horiz-adv-x="1690" 
d="M1596 833q0 -207 -53.5 -367.5t-154 -268.5t-247 -162.5t-331.5 -50.5q-34 1 -79 3.5t-90.5 5.5t-88.5 5t-72 2h-390v144l160 30q19 3 30.5 17t11.5 33v489h-191v166h191v451q0 19 -11 32t-29 17l-162 32v151h386q101 0 186 6t172 6q380 0 571 -178.5t191 -562.5z
M815 140q86 1 154.5 33t115.5 105.5t72 196t25 301.5q0 304 -86.5 477t-288.5 173q-51 0 -88.5 -8t-46.5 -9v-530h254v-166h-254v-552q25 -11 66 -16t77 -5z" />
    <glyph glyph-name="dcroat" unicode="&#x111;" horiz-adv-x="1384" 
d="M660 172q40 0 82.5 10.5t78.5 29.5v748q-25 12 -56.5 18.5t-63.5 6.5q-54 0 -98.5 -20.5t-75 -68.5t-47.5 -128.5t-17 -199.5q-1 -213 50 -304.5t147 -91.5zM1090 -19q-87 0 -147 33t-93 100q-57 -63 -136.5 -100t-179.5 -37q-98 0 -181 32t-143 99t-94 171t-34 247
q0 297 154.5 455t438.5 158q37 0 75 -4t71 -11v169h-354v144h354v82q0 23 -12 37.5t-34 18.5l-131 20v141q54 14 117 25.5t127.5 20t128 13.5t117.5 5l48 -45v-318h145v-144h-145v-1065q0 -32 13.5 -45t37.5 -16l99 -12v-135q-37 -11 -107 -25t-135 -14z" />
    <glyph glyph-name="Emacron" unicode="&#x112;" horiz-adv-x="1452" 
d="M1297 1135h-178l-54 185q-7 26 -22 41t-37 24q-25 10 -71 16t-95 6h-169v-525l430 16v-205l-430 11v-541h211q49 0 102.5 6t78.5 16q22 9 33 23.5t21 41.5l86 248l177 -28q0 -120 -9 -234t-28 -236h-1254v144l156 29q23 4 34.5 18.5t11.5 37.5v1095q0 23 -11.5 37.5
t-34.5 19.5l-156 30v151h1202q13 -105 14 -211.5t-8 -215.5zM359 1746v206h769v-206h-769z" />
    <glyph glyph-name="emacron" unicode="&#x113;" horiz-adv-x="1184" 
d="M623 1019q-67 0 -110.5 -58.5t-55.5 -208.5h317q1 9 1 20.5v25.5q0 96 -36.5 158.5t-115.5 62.5zM1095 249q-40 -134 -168 -204.5t-307 -70.5q-138 0 -240 41t-168 117t-98 185t-32 243q0 296 148 451.5t418 155.5q119 0 206 -29t142 -80.5t81.5 -123t26.5 -154.5
q0 -38 -5 -82.5t-12 -79.5h-635q1 -220 61 -321.5t217 -101.5q82 0 159.5 28t127.5 84zM249 1355v206h735v-206h-735z" />
    <glyph glyph-name="Ebreve" unicode="&#x114;" horiz-adv-x="1452" 
d="M1297 1135h-178l-54 185q-7 26 -22 41t-37 24q-25 10 -71 16t-95 6h-169v-525l430 16v-205l-430 11v-541h211q49 0 102.5 6t78.5 16q22 9 33 23.5t21 41.5l86 248l177 -28q0 -120 -9 -234t-28 -236h-1254v144l156 29q23 4 34.5 18.5t11.5 37.5v1095q0 23 -11.5 37.5
t-34.5 19.5l-156 30v151h1202q13 -105 14 -211.5t-8 -215.5zM1168 2013q-38 -142 -153 -234.5t-275 -92.5q-82 0 -153 25.5t-125.5 69t-91 103.5t-50.5 129l142 75q53 -89 129 -127t160 -38q85 0 161 38.5t132 126.5z" />
    <glyph glyph-name="ebreve" unicode="&#x115;" horiz-adv-x="1184" 
d="M623 1019q-67 0 -110.5 -58.5t-55.5 -208.5h317q1 9 1 20.5v25.5q0 96 -36.5 158.5t-115.5 62.5zM1095 249q-40 -134 -168 -204.5t-307 -70.5q-138 0 -240 41t-168 117t-98 185t-32 243q0 296 148 451.5t418 155.5q119 0 206 -29t142 -80.5t81.5 -123t26.5 -154.5
q0 -38 -5 -82.5t-12 -79.5h-635q1 -220 61 -321.5t217 -101.5q82 0 159.5 28t127.5 84zM1032 1634q-34 -149 -149 -242.5t-274 -93.5q-80 0 -150 25.5t-123 70t-88 106.5t-46 134l142 73q50 -90 120.5 -131t155.5 -41q86 0 158 41t129 131z" />
    <glyph glyph-name="Edotaccent" unicode="&#x116;" horiz-adv-x="1452" 
d="M1297 1135h-178l-54 185q-7 26 -22 41t-37 24q-25 10 -71 16t-95 6h-169v-525l430 16v-205l-430 11v-541h211q49 0 102.5 6t78.5 16q22 9 33 23.5t21 41.5l86 248l177 -28q0 -120 -9 -234t-28 -236h-1254v144l156 29q23 4 34.5 18.5t11.5 37.5v1095q0 23 -11.5 37.5
t-34.5 19.5l-156 30v151h1202q13 -105 14 -211.5t-8 -215.5zM945 1886q0 -84 -54.5 -134t-145.5 -50t-146 50t-55 134t55 134t146 50t145.5 -50t54.5 -134z" />
    <glyph glyph-name="edotaccent" unicode="&#x117;" horiz-adv-x="1184" 
d="M623 1019q-67 0 -110.5 -58.5t-55.5 -208.5h317q1 9 1 20.5v25.5q0 96 -36.5 158.5t-115.5 62.5zM1095 249q-40 -134 -168 -204.5t-307 -70.5q-138 0 -240 41t-168 117t-98 185t-32 243q0 296 148 451.5t418 155.5q119 0 206 -29t142 -80.5t81.5 -123t26.5 -154.5
q0 -38 -5 -82.5t-12 -79.5h-635q1 -220 61 -321.5t217 -101.5q82 0 159.5 28t127.5 84zM836 1480q0 -83 -53 -132.5t-142 -49.5q-90 0 -143.5 49.5t-53.5 132.5q0 81 53.5 129.5t143.5 48.5q89 0 142 -48.5t53 -129.5z" />
    <glyph glyph-name="Eogonek" unicode="&#x118;" horiz-adv-x="1452" 
d="M1359 -442q-59 -38 -138.5 -58t-153.5 -19q-120 1 -201 54.5t-81 157.5q0 53 23.5 99.5t63 85t92 68.5t111.5 49v5h-986v144l156 29q23 4 34.5 18.5t11.5 37.5v1095q0 23 -11.5 37.5t-34.5 19.5l-156 30v151h1202q13 -105 14 -211.5t-8 -215.5h-178l-54 185q-7 26 -22 41
t-37 24q-25 10 -71 16t-95 6h-169v-525l430 16v-205l-430 11v-541h211q49 0 102.5 6t78.5 16q22 8 33 23t21 42l86 248l177 -28q0 -120 -9 -234t-28 -236h-1q-124 -29 -200 -94.5t-76 -131.5q0 -51 37.5 -75.5t93.5 -24.5q25 0 53.5 6t55.5 17z" />
    <glyph glyph-name="eogonek" unicode="&#x119;" horiz-adv-x="1185" 
d="M623 1019q-67 0 -110.5 -58.5t-55.5 -208.5h317q1 9 1 20.5v25.5q0 96 -36.5 158.5t-115.5 62.5zM1052 -442q-59 -38 -136.5 -58t-150.5 -19q-57 0 -108 13.5t-88.5 39.5t-59.5 65.5t-22 90.5q0 54 22.5 99.5t55.5 81t72.5 61.5t72.5 42v5q-22 -2 -44.5 -3.5t-45.5 -1.5
q-138 0 -240 41t-168 117t-98 185t-32 243q0 296 148 451.5t418 155.5q119 0 206 -29t142 -80.5t81.5 -123t26.5 -154.5q0 -38 -5 -82.5t-12 -79.5h-635q1 -220 61 -321.5t217 -101.5q82 0 159.5 28t127.5 84l82 -61q-17 -49 -50 -92t-85 -85q-3 -2 -5.5 -4.5t-5.5 -3.5
q-96 -81 -143 -149t-47 -131q0 -55 35 -81t85 -26q31 0 60.5 6t56.5 17z" />
    <glyph glyph-name="Ecaron" unicode="&#x11a;" horiz-adv-x="1452" 
d="M1297 1135h-178l-54 185q-7 26 -22 41t-37 24q-25 10 -71 16t-95 6h-169v-525l430 16v-205l-430 11v-541h211q49 0 102.5 6t78.5 16q22 9 33 23.5t21 41.5l86 248l177 -28q0 -120 -9 -234t-28 -236h-1254v144l156 29q23 4 34.5 18.5t11.5 37.5v1095q0 23 -11.5 37.5
t-34.5 19.5l-156 30v151h1202q13 -105 14 -211.5t-8 -215.5zM1089 2120l97 -111l-320 -326l-221 -10l-344 328l102 117l355 -201z" />
    <glyph glyph-name="ecaron" unicode="&#x11b;" horiz-adv-x="1184" 
d="M623 1019q-67 0 -110.5 -58.5t-55.5 -208.5h317q1 9 1 20.5v25.5q0 96 -36.5 158.5t-115.5 62.5zM1095 249q-40 -134 -168 -204.5t-307 -70.5q-138 0 -240 41t-168 117t-98 185t-32 243q0 296 148 451.5t418 155.5q119 0 206 -29t142 -80.5t81.5 -123t26.5 -154.5
q0 -38 -5 -82.5t-12 -79.5h-635q1 -220 61 -321.5t217 -101.5q82 0 159.5 28t127.5 84zM947 1812l110 -104l-301 -391l-217 -20l-329 404l115 109l323 -252z" />
    <glyph glyph-name="Gcircumflex" unicode="&#x11c;" horiz-adv-x="1595" 
d="M1359 -16l-196 146q-66 -69 -172.5 -115.5t-251.5 -46.5q-156 0 -276.5 54.5t-202 156.5t-123.5 250.5t-42 335.5q0 422 208 624.5t586 202.5q137 0 271 -26.5t235 -66.5q7 -98 1 -203.5t-22 -210.5h-230l-55 229q-8 31 -19 47t-30 31q-26 20 -67 34.5t-96 14.5
q-171 0 -256.5 -162.5t-85.5 -521.5q0 -287 68 -440.5t255 -153.5q64 0 117.5 16.5t95.5 45.5v408l-190 21v155h650v-155l-102 -17v-613zM553 1655l-97 111l320 326l221 10l344 -328l-102 -117l-355 201z" />
    <glyph glyph-name="gcircumflex" unicode="&#x11d;" horiz-adv-x="1335" 
d="M460 776q0 -136 39 -196.5t117 -60.5q82 0 115 66t33 191q0 138 -35 196t-112 58q-78 0 -117.5 -60.5t-39.5 -193.5zM1263 -93q0 -105 -48.5 -190t-137.5 -144.5t-216.5 -92t-284.5 -32.5q-136 0 -233.5 24t-159 65.5t-90.5 99t-29 123.5q0 101 61 162.5t166 96.5
q-69 30 -98.5 80t-29.5 111q0 78 40.5 130t108.5 82q-117 49 -165.5 138t-48.5 197q0 193 137 302t397 109q126 0 222 -27.5t157 -83.5q39 54 90 84.5t102 30.5q26 0 54.5 -6.5t47.5 -12.5v-245h-204q7 -28 11 -58t4 -64q0 -90 -29.5 -166t-92.5 -130t-162.5 -84t-237.5 -30
q-43 0 -82 3t-73 9q-14 -20 -20 -40t-6 -38q0 -54 49.5 -74t168.5 -20h202q208 0 319 -76t111 -233zM635 -390q122 0 189.5 58.5t67.5 168.5q0 79 -40 112.5t-137 33.5h-206q-15 0 -29.5 0.5t-27.5 1.5q-20 -31 -33 -72t-13 -90q0 -92 52 -152.5t177 -60.5zM298 1263
l-110 104l301 392l217 19l330 -404l-116 -109l-323 252z" />
    <glyph glyph-name="Gbreve" unicode="&#x11e;" horiz-adv-x="1595" 
d="M1359 -16l-196 146q-66 -69 -172.5 -115.5t-251.5 -46.5q-156 0 -276.5 54.5t-202 156.5t-123.5 250.5t-42 335.5q0 422 208 624.5t586 202.5q137 0 271 -26.5t235 -66.5q7 -98 1 -203.5t-22 -210.5h-230l-55 229q-8 31 -19 47t-30 31q-26 20 -67 34.5t-96 14.5
q-171 0 -256.5 -162.5t-85.5 -521.5q0 -287 68 -440.5t255 -153.5q64 0 117.5 16.5t95.5 45.5v408l-190 21v155h650v-155l-102 -17v-613zM1323 2013q-38 -142 -153 -234.5t-275 -92.5q-82 0 -153 25.5t-125.5 69t-91 103.5t-50.5 129l142 75q53 -89 129 -127t160 -38
q85 0 161 38.5t132 126.5z" />
    <glyph glyph-name="gbreve" unicode="&#x11f;" horiz-adv-x="1335" 
d="M460 776q0 -136 39 -196.5t117 -60.5q82 0 115 66t33 191q0 138 -35 196t-112 58q-78 0 -117.5 -60.5t-39.5 -193.5zM1263 -93q0 -105 -48.5 -190t-137.5 -144.5t-216.5 -92t-284.5 -32.5q-136 0 -233.5 24t-159 65.5t-90.5 99t-29 123.5q0 101 61 162.5t166 96.5
q-69 30 -98.5 80t-29.5 111q0 78 40.5 130t108.5 82q-117 49 -165.5 138t-48.5 197q0 193 137 302t397 109q126 0 222 -27.5t157 -83.5q39 54 90 84.5t102 30.5q26 0 54.5 -6.5t47.5 -12.5v-245h-204q7 -28 11 -58t4 -64q0 -90 -29.5 -166t-92.5 -130t-162.5 -84t-237.5 -30
q-43 0 -82 3t-73 9q-14 -20 -20 -40t-6 -38q0 -54 49.5 -74t168.5 -20h202q208 0 319 -76t111 -233zM635 -390q122 0 189.5 58.5t67.5 168.5q0 79 -40 112.5t-137 33.5h-206q-15 0 -29.5 0.5t-27.5 1.5q-20 -31 -33 -72t-13 -90q0 -92 52 -152.5t177 -60.5zM1028 1634
q-34 -149 -149 -242.5t-274 -93.5q-80 0 -150 25.5t-123 70t-88 106.5t-46 134l142 73q50 -90 120.5 -131t155.5 -41q86 0 158 41t129 131z" />
    <glyph glyph-name="Gdotaccent" unicode="&#x120;" horiz-adv-x="1595" 
d="M1359 -16l-196 146q-66 -69 -172.5 -115.5t-251.5 -46.5q-156 0 -276.5 54.5t-202 156.5t-123.5 250.5t-42 335.5q0 422 208 624.5t586 202.5q137 0 271 -26.5t235 -66.5q7 -98 1 -203.5t-22 -210.5h-230l-55 229q-8 31 -19 47t-30 31q-26 20 -67 34.5t-96 14.5
q-171 0 -256.5 -162.5t-85.5 -521.5q0 -287 68 -440.5t255 -153.5q64 0 117.5 16.5t95.5 45.5v408l-190 21v155h650v-155l-102 -17v-613zM1100 1886q0 -84 -54.5 -134t-145.5 -50t-146 50t-55 134t55 134t146 50t145.5 -50t54.5 -134z" />
    <glyph glyph-name="gdotaccent" unicode="&#x121;" horiz-adv-x="1335" 
d="M460 776q0 -136 39 -196.5t117 -60.5q82 0 115 66t33 191q0 138 -35 196t-112 58q-78 0 -117.5 -60.5t-39.5 -193.5zM1263 -93q0 -105 -48.5 -190t-137.5 -144.5t-216.5 -92t-284.5 -32.5q-136 0 -233.5 24t-159 65.5t-90.5 99t-29 123.5q0 101 61 162.5t166 96.5
q-69 30 -98.5 80t-29.5 111q0 78 40.5 130t108.5 82q-117 49 -165.5 138t-48.5 197q0 193 137 302t397 109q126 0 222 -27.5t157 -83.5q39 54 90 84.5t102 30.5q26 0 54.5 -6.5t47.5 -12.5v-245h-204q7 -28 11 -58t4 -64q0 -90 -29.5 -166t-92.5 -130t-162.5 -84t-237.5 -30
q-43 0 -82 3t-73 9q-14 -20 -20 -40t-6 -38q0 -54 49.5 -74t168.5 -20h202q208 0 319 -76t111 -233zM635 -390q122 0 189.5 58.5t67.5 168.5q0 79 -40 112.5t-137 33.5h-206q-15 0 -29.5 0.5t-27.5 1.5q-20 -31 -33 -72t-13 -90q0 -92 52 -152.5t177 -60.5zM832 1480
q0 -83 -53 -132.5t-142 -49.5q-90 0 -143.5 49.5t-53.5 132.5q0 81 53.5 129.5t143.5 48.5q89 0 142 -48.5t53 -129.5z" />
    <glyph glyph-name="Gcommaaccent" unicode="&#x122;" horiz-adv-x="1595" 
d="M1359 -16l-196 146q-66 -69 -172.5 -115.5t-251.5 -46.5q-156 0 -276.5 54.5t-202 156.5t-123.5 250.5t-42 335.5q0 422 208 624.5t586 202.5q137 0 271 -26.5t235 -66.5q7 -98 1 -203.5t-22 -210.5h-230l-55 229q-8 31 -19 47t-30 31q-26 20 -67 34.5t-96 14.5
q-171 0 -256.5 -162.5t-85.5 -521.5q0 -287 68 -440.5t255 -153.5q64 0 117.5 16.5t95.5 45.5v408l-190 21v155h650v-155l-102 -17v-613zM988 -311q-3 -104 -77 -183t-175 -125l-76 84q34 25 61.5 58t27.5 65q0 31 -15 45.5t-29 25.5q-19 16 -36.5 39.5t-17.5 65.5
q0 56 43 95.5t106 39.5q81 0 135.5 -59t52.5 -151z" />
    <glyph glyph-name="gcommaaccent" unicode="&#x123;" horiz-adv-x="1335" 
d="M460 776q0 -136 39 -196.5t117 -60.5q82 0 115 66t33 191q0 138 -35 196t-112 58q-78 0 -117.5 -60.5t-39.5 -193.5zM1263 -93q0 -105 -48.5 -190t-137.5 -144.5t-216.5 -92t-284.5 -32.5q-136 0 -233.5 24t-159 65.5t-90.5 99t-29 123.5q0 101 61 162.5t166 96.5
q-69 30 -98.5 80t-29.5 111q0 78 40.5 130t108.5 82q-117 49 -165.5 138t-48.5 197q0 193 137 302t397 109q126 0 222 -27.5t157 -83.5q39 54 90 84.5t102 30.5q26 0 54.5 -6.5t47.5 -12.5v-245h-204q7 -28 11 -58t4 -64q0 -90 -29.5 -166t-92.5 -130t-162.5 -84t-237.5 -30
q-43 0 -82 3t-73 9q-14 -20 -20 -40t-6 -38q0 -54 49.5 -74t168.5 -20h202q208 0 319 -76t111 -233zM635 -390q122 0 189.5 58.5t67.5 168.5q0 79 -40 112.5t-137 33.5h-206q-15 0 -29.5 0.5t-27.5 1.5q-20 -31 -33 -72t-13 -90q0 -92 52 -152.5t177 -60.5zM449 1507
q3 104 76.5 183t174.5 125l77 -84q-34 -25 -61.5 -58t-27.5 -65q0 -31 15 -45.5t29 -25.5q19 -16 36 -39.5t17 -65.5q0 -56 -42.5 -95.5t-105.5 -39.5q-81 0 -136 59t-52 151z" />
    <glyph glyph-name="Hcircumflex" unicode="&#x124;" horiz-adv-x="1889" 
d="M1800 1562v-151l-157 -30q-22 -5 -34 -20.5t-12 -37.5v-1094q0 -23 12 -37t35 -19l156 -29v-144h-739v144l111 29q22 6 34 19.5t12 36.5v473h-547v-473q0 -23 11.5 -37t33.5 -19l125 -29v-144h-752v144l156 29q23 5 34.5 19t11.5 37v1094q0 25 -11.5 39t-33.5 19l-157 30
v151h752v-151l-126 -30q-22 -5 -33 -19t-11 -39v-438h547v438q0 22 -11.5 37t-33.5 21l-113 30v151h740zM604 1655l-97 111l320 326l221 10l344 -328l-102 -117l-355 201z" />
    <glyph glyph-name="hcircumflex" unicode="&#x125;" horiz-adv-x="1467" 
d="M678 142v-142h-628v143l108 20q22 4 34.5 18.5t12.5 37.5v1310q0 23 -12 37.5t-34 18.5l-130 21v140q54 14 117 24.5t127 17t127 9.5t117 3l49 -47v-724q69 67 159 100t196 33q201 0 275 -112.5t74 -317.5v-513q0 -23 12 -37.5t34 -18.5l109 -20v-143h-628v142l67 20
q22 8 33.5 21t11.5 36v473q0 140 -41 198.5t-130 58.5q-41 0 -85.5 -12t-86.5 -36v-682q0 -23 11 -36t33 -21zM112 1862l-97 111l320 326l221 10l344 -328l-102 -117l-355 201z" />
    <glyph glyph-name="Hbar" unicode="&#x126;" horiz-adv-x="1890" 
d="M672 835h547v178h-547v-178zM842 144v-144h-752v144l156 29q23 4 34.5 18t11.5 37v785h-192v142h192v168q0 25 -11.5 39t-33.5 19l-157 30v151h752v-151l-126 -30q-22 -5 -33 -19t-11 -39v-168h547v168q0 22 -11.5 37t-33.5 21l-113 30v151h740v-151l-157 -30
q-22 -5 -34 -20.5t-12 -37.5v-168h193v-142h-193v-785q0 -23 12 -37t35 -18l156 -29v-144h-739v144l111 28q22 6 34 19.5t12 36.5v424h-547v-424q0 -23 11.5 -37t33.5 -19z" />
    <glyph glyph-name="hbar" unicode="&#x127;" horiz-adv-x="1467" 
d="M678 142v-142h-628v143l108 20q22 4 34.5 18.5t12.5 37.5v1066h-163v143h163v101q0 23 -12 37.5t-34 18.5l-130 21v140q54 14 117 24.5t127 17t127 9.5t117 3l49 -47v-325h329v-143h-329v-281q69 67 159 100t196 33q201 0 275 -112.5t74 -317.5v-488q0 -23 12 -37.5
t34 -18.5l109 -20v-143h-628v142l67 20q22 8 33.5 21t11.5 36v448q0 140 -41 198.5t-130 58.5q-41 0 -85.5 -12t-86.5 -36v-657q0 -23 11 -36t33 -21z" />
    <glyph glyph-name="Itilde" unicode="&#x128;" horiz-adv-x="962" 
d="M873 1562v-151l-156 -30q-23 -5 -34.5 -19.5t-11.5 -37.5v-1094q0 -23 11.5 -37.5t34.5 -18.5l156 -30v-144h-784v144l156 29q23 4 34.5 18.5t11.5 37.5v1095q0 23 -11.5 37.5t-34.5 19.5l-156 30v151h784zM946 1985q-15 -58 -43.5 -112t-67.5 -95t-89.5 -65.5
t-109.5 -24.5t-107.5 21t-89.5 45.5t-78 45.5t-75 21q-49 0 -90 -35t-75 -87l-106 59q16 58 44 112t67.5 94.5t90 65t109.5 24.5t107 -20.5t89 -45.5t78.5 -45.5t75.5 -20.5q48 0 89.5 34.5t75.5 86.5z" />
    <glyph glyph-name="itilde" unicode="&#x129;" horiz-adv-x="801" 
d="M596 1121v-902q0 -23 12.5 -37.5t34.5 -18.5l108 -20v-143h-671v143l108 20q22 4 34.5 18.5t12.5 37.5v659q0 22 -11 38t-33 20l-122 25v147q54 14 115.5 25t124 18t124 10.5t115.5 3.5zM796 1597q-15 -60 -42 -115.5t-64.5 -97.5t-85 -67.5t-103.5 -25.5q-50 0 -90 22
t-75 48.5t-66 48.5t-63 22q-43 0 -80.5 -35.5t-67.5 -84.5l-107 50q15 61 41.5 117t64 98t85 67.5t103.5 25.5q50 0 90 -22t75 -48.5t66 -48.5t63 -22q43 0 80.5 34.5t67.5 85.5z" />
    <glyph glyph-name="Imacron" unicode="&#x12a;" horiz-adv-x="962" 
d="M873 1562v-151l-156 -30q-23 -5 -34.5 -19.5t-11.5 -37.5v-1094q0 -23 11.5 -37.5t34.5 -18.5l156 -30v-144h-784v144l156 29q23 4 34.5 18.5t11.5 37.5v1095q0 23 -11.5 37.5t-34.5 19.5l-156 30v151h784zM96 1746v206h769v-206h-769z" />
    <glyph glyph-name="imacron" unicode="&#x12b;" horiz-adv-x="801" 
d="M596 1121v-902q0 -23 12.5 -37.5t34.5 -18.5l108 -20v-143h-671v143l108 20q22 4 34.5 18.5t12.5 37.5v659q0 22 -11 38t-33 20l-122 25v147q54 14 115.5 25t124 18t124 10.5t115.5 3.5zM36 1355v206h675v-206h-675z" />
    <glyph glyph-name="Ibreve" unicode="&#x12c;" horiz-adv-x="962" 
d="M873 1562v-151l-156 -30q-23 -5 -34.5 -19.5t-11.5 -37.5v-1094q0 -23 11.5 -37.5t34.5 -18.5l156 -30v-144h-784v144l156 29q23 4 34.5 18.5t11.5 37.5v1095q0 23 -11.5 37.5t-34.5 19.5l-156 30v151h784zM905 2013q-38 -142 -153 -234.5t-275 -92.5q-82 0 -153 25.5
t-125.5 69t-91 103.5t-50.5 129l142 75q53 -89 129 -127t160 -38q85 0 161 38.5t132 126.5z" />
    <glyph glyph-name="ibreve" unicode="&#x12d;" horiz-adv-x="801" 
d="M596 1121v-902q0 -23 12.5 -37.5t34.5 -18.5l108 -20v-143h-671v143l108 20q22 4 34.5 18.5t12.5 37.5v659q0 22 -11 38t-33 20l-122 25v147q54 14 115.5 25t124 18t124 10.5t115.5 3.5zM769 1634q-40 -149 -146 -242.5t-257 -93.5q-76 0 -141 25.5t-114.5 70t-83 106.5
t-48.5 134l142 68q46 -90 111.5 -131t144.5 -41q80 0 147 41t120 131z" />
    <glyph glyph-name="Iogonek" unicode="&#x12e;" horiz-adv-x="962" 
d="M760 -442q-59 -38 -138.5 -58t-153.5 -19q-120 1 -201 54.5t-81 157.5q0 53 23 99.5t61.5 85t89.5 68.5t105 49v5h-376v144l156 29q23 4 34.5 18.5t11.5 37.5v1095q0 23 -11.5 37.5t-34.5 19.5l-156 30v151h784v-151l-156 -30q-23 -5 -34.5 -19.5t-11.5 -37.5v-1094
q0 -23 11.5 -37.5t34.5 -18.5l156 -30v-144h-181q-101 -37 -163 -99t-62 -126q0 -52 37 -76.5t91 -24.5q28 0 56.5 6t55.5 17z" />
    <glyph glyph-name="iogonek" unicode="&#x12f;" horiz-adv-x="801" 
d="M693 -442q-59 -38 -138.5 -58t-153.5 -19q-120 1 -201 54.5t-81 157.5q0 53 23 99.5t62 85t90 68.5t106 49v5h-320v143l108 20q22 4 34.5 18.5t12.5 37.5v659q0 22 -11 38t-33 20l-122 25v147q54 14 115.5 25t124 18t124 10.5t115.5 3.5l48 -44v-902q0 -23 12.5 -37.5
t34.5 -18.5l108 -20v-143h-125q-101 -37 -163.5 -99t-62.5 -126q0 -52 37 -76.5t91 -24.5q28 0 56.5 6t55.5 17zM594 1480q0 -83 -53 -132.5t-142 -49.5q-90 0 -143.5 49.5t-53.5 132.5q0 81 53.5 129.5t143.5 48.5q89 0 142 -48.5t53 -129.5z" />
    <glyph glyph-name="Idotaccent" unicode="&#x130;" horiz-adv-x="962" 
d="M873 1562v-151l-156 -30q-23 -5 -34.5 -19.5t-11.5 -37.5v-1094q0 -23 11.5 -37.5t34.5 -18.5l156 -30v-144h-784v144l156 29q23 4 34.5 18.5t11.5 37.5v1095q0 23 -11.5 37.5t-34.5 19.5l-156 30v151h784zM682 1886q0 -84 -54.5 -134t-145.5 -50t-146 50t-55 134t55 134
t146 50t145.5 -50t54.5 -134z" />
    <glyph glyph-name="dotlessi" unicode="&#x131;" horiz-adv-x="801" 
d="M596 1121v-902q0 -23 12.5 -37.5t34.5 -18.5l108 -20v-143h-671v143l108 20q22 4 34.5 18.5t12.5 37.5v659q0 22 -11 38t-33 20l-122 25v147q54 14 115.5 25t124 18t124 10.5t115.5 3.5z" />
    <glyph glyph-name="IJ" unicode="&#x132;" horiz-adv-x="1849" 
d="M873 1562v-151l-156 -30q-23 -5 -34.5 -19.5t-11.5 -37.5v-1094q0 -23 11.5 -37.5t34.5 -18.5l156 -30v-144h-784v144l156 29q23 4 34.5 18.5t11.5 37.5v1095q0 23 -11.5 37.5t-34.5 19.5l-156 30v151h784zM1638 1381q-23 -6 -34.5 -20t-11.5 -37v-973
q0 -174 -26.5 -298.5t-95.5 -213.5t-191 -151t-311 -111l-64 152q100 52 161 102.5t93.5 114t43 149.5t10.5 209v1020q0 23 -12 37.5t-34 19.5l-156 30v151h764v-151z" />
    <glyph glyph-name="ij" unicode="&#x133;" horiz-adv-x="1521" 
d="M596 1121v-902q0 -23 12.5 -37.5t34.5 -18.5l108 -20v-143h-671v143l108 20q22 4 34.5 18.5t12.5 37.5v659q0 22 -11 38t-33 20l-122 25v147q54 14 115.5 25t124 18t124 10.5t115.5 3.5zM594 1480q0 -83 -53 -132.5t-142 -49.5q-90 0 -143.5 49.5t-53.5 132.5
q0 81 53.5 129.5t143.5 48.5q89 0 142 -48.5t53 -129.5zM1308 1165l48 -44v-1021q0 -181 -44 -285.5t-128 -172.5q-80 -66 -190.5 -108t-229.5 -73l-63 150q174 87 235 191t61 279l1 797q0 22 -11 38t-33 20l-124 25v147q54 14 115.5 25t123.5 18t123.5 10.5t115.5 3.5z
M1338 1480q0 -83 -53 -132.5t-142 -49.5q-90 0 -143.5 49.5t-53.5 132.5q0 81 53.5 129.5t143.5 48.5q89 0 142 -48.5t53 -129.5z" />
    <glyph glyph-name="Jcircumflex" unicode="&#x134;" horiz-adv-x="904" 
d="M693 1381q-23 -6 -34.5 -20t-11.5 -37v-973q0 -174 -26.5 -298.5t-95.5 -213.5t-191 -151t-311 -111l-64 152q100 52 161 102.5t93.5 114t43 149.5t10.5 209v1020q0 23 -12 37.5t-34 19.5l-156 30v151h764v-151zM101 1655l-97 111l320 326l221 10l344 -328l-102 -117
l-355 201z" />
    <glyph glyph-name="jcircumflex" unicode="&#x135;" horiz-adv-x="737" 
d="M525 1165l48 -44v-1021q0 -181 -44 -285.5t-128 -172.5q-80 -66 -190.5 -108t-229.5 -73l-63 150q174 87 235 191t61 279l1 797q0 22 -11 38t-33 20l-124 25v147q54 14 115.5 25t123.5 18t123.5 10.5t115.5 3.5zM60 1264l-110 98l261 392l217 19l290 -404l-116 -103
l-283 256z" />
    <glyph glyph-name="Kcommaaccent" unicode="&#x136;" horiz-adv-x="1675" 
d="M872 143v-143h-783v144l155 29q22 5 34.5 18.5t12.5 36.5v1096q0 23 -12 37.5t-34 19.5l-156 30v151h782v-151l-156 -30q-22 -5 -34 -19.5t-12 -37.5v-572l515 629l-176 30l-1 151h616v-150l-160 -31q-19 -4 -33 -11.5t-27 -20.5l-333 -378q58 -69 102 -143.5t100 -178.5
l221 -413q11 -20 27 -39.5t50 -28.5l95 -25v-143h-439q-43 0 -79.5 54.5t-77.5 142.5l-129 280q-34 75 -60.5 126.5t-50.5 90.5l-160 -187v-283q0 -23 12.5 -36.5t35.5 -17.5zM1095 -311q-3 -104 -77 -183t-175 -125l-76 84q34 25 61.5 58t27.5 65q0 31 -15 45.5t-29 25.5
q-19 16 -36.5 39.5t-17.5 65.5q0 56 43 95.5t106 39.5q81 0 135.5 -59t52.5 -151z" />
    <glyph glyph-name="kcommaaccent" unicode="&#x137;" horiz-adv-x="1426" 
d="M715 143v-143h-665v143l108 20q22 4 34.5 19t12.5 38v1299q0 23 -12 37.5t-34 18.5l-130 20v141q54 14 117 25.5t127 20t127 13.5t117 5l48 -44v-1178l369 390l-183 33v136h597v-136l-117 -29q-40 -10 -60.5 -18t-44.5 -31l-186 -182q35 -41 65.5 -91t64.5 -116l159 -307
q13 -26 27.5 -37t41.5 -18l107 -29v-143h-414q-51 0 -84.5 59t-67.5 137l-88 199q-13 28 -26.5 55.5t-27.5 52.5l-132 -129v-155q0 -23 12 -37.5t34 -18.5zM953 -311q-3 -104 -77 -183t-175 -125l-76 84q34 25 61.5 58t27.5 65q0 31 -15 45.5t-29 25.5q-19 16 -36.5 39.5
t-17.5 65.5q0 56 43 95.5t106 39.5q81 0 135.5 -59t52.5 -151z" />
    <glyph glyph-name="Lacute" unicode="&#x139;" horiz-adv-x="1417" 
d="M1083 255l99 323l189 -26q0 -127 -5 -268t-35 -284h-1242v144l155 29q23 4 35 18.5t12 37.5v1096q0 23 -12 37.5t-34 18.5l-156 30v151h834v-151l-205 -33q-23 -4 -35 -18t-12 -37v-1158h173q62 0 108.5 7.5t72.5 17.5q22 9 36.5 24t21.5 41zM1028 1909
q-54 -38 -129.5 -73t-158.5 -65.5t-169 -56.5t-161 -47l-63 126l530 340z" />
    <glyph glyph-name="lacute" unicode="&#x13a;" horiz-adv-x="784" 
d="M573 1755v-1536q0 -24 12 -38t35 -18l120 -21v-142h-696v143l121 20q22 4 34.5 18t12.5 37v1301q0 23 -12 37.5t-34 18.5l-131 20v141q54 14 117 25.5t127.5 20t128 13.5t117.5 5zM786 2128q-54 -38 -129.5 -73t-158.5 -65.5t-169 -56.5t-161 -47l-63 126l530 340z" />
    <glyph glyph-name="Lcommaaccent" unicode="&#x13b;" horiz-adv-x="1417" 
d="M1083 255l99 323l189 -26q0 -127 -5 -268t-35 -284h-1242v144l155 29q23 4 35 18.5t12 37.5v1096q0 23 -12 37.5t-34 18.5l-156 30v151h834v-151l-205 -33q-23 -4 -35 -18t-12 -37v-1158h173q62 0 108.5 7.5t72.5 17.5q22 9 36.5 24t21.5 41zM954 -311q-3 -104 -77 -183
t-175 -125l-76 84q34 25 61.5 58t27.5 65q0 31 -15 45.5t-29 25.5q-19 16 -36.5 39.5t-17.5 65.5q0 56 43 95.5t106 39.5q81 0 135.5 -59t52.5 -151z" />
    <glyph glyph-name="lcommaaccent" unicode="&#x13c;" horiz-adv-x="784" 
d="M573 1755v-1536q0 -24 12 -38t35 -18l120 -21v-142h-696v143l121 20q22 4 34.5 18t12.5 37v1301q0 23 -12 37.5t-34 18.5l-131 20v141q54 14 117 25.5t127.5 20t128 13.5t117.5 5zM558 -311q-3 -104 -77 -183t-175 -125l-76 84q34 25 61.5 58t27.5 65q0 31 -15 45.5
t-29 25.5q-19 16 -36.5 39.5t-17.5 65.5q0 56 43 95.5t106 39.5q81 0 135.5 -59t52.5 -151z" />
    <glyph glyph-name="Lcaron" unicode="&#x13d;" horiz-adv-x="1422" 
d="M1083 255l99 323l189 -26q0 -127 -5 -268t-35 -284h-1242v144l155 29q23 4 35 18.5t12 37.5v1096q0 23 -12 37.5t-34 18.5l-156 30v151h834v-151l-205 -33q-23 -4 -35 -18t-12 -37v-1158h173q62 0 108.5 7.5t72.5 17.5q22 9 36.5 24t21.5 41zM1155 1065l-148 31l39 570
l267 -30q-10 -71 -26.5 -146.5t-37 -149t-45 -144t-49.5 -131.5z" />
    <glyph glyph-name="lcaron" unicode="&#x13e;" horiz-adv-x="820" 
d="M573 1755v-1536q0 -24 12 -38t35 -18l120 -21v-142h-696v143l121 20q22 4 34.5 18t12.5 37v1301q0 23 -12 37.5t-34 18.5l-131 20v141q54 14 117 25.5t127.5 20t128 13.5t117.5 5zM842 1287l-148 31l39 570l267 -30q-10 -71 -26.5 -146.5t-37 -149t-45 -144t-49.5 -131.5
z" />
    <glyph glyph-name="Ldot" unicode="&#x13f;" horiz-adv-x="1431" 
d="M1083 255l99 323l189 -26q0 -127 -5 -268t-35 -284h-1242v144l155 29q23 4 35 18.5t12 37.5v1096q0 23 -12 37.5t-34 18.5l-156 30v151h834v-151l-205 -33q-23 -4 -35 -18t-12 -37v-1158h173q62 0 108.5 7.5t72.5 17.5q22 9 36.5 24t21.5 41zM1372 912q0 -84 -55 -134
t-146 -50t-146 50t-55 134t55 134t146 50t146 -50t55 -134z" />
    <glyph glyph-name="ldot" unicode="&#x140;" horiz-adv-x="995" 
d="M573 1755v-1536q0 -24 12 -38t35 -18l120 -21v-142h-696v143l121 20q22 4 34.5 18t12.5 37v1301q0 23 -12 37.5t-34 18.5l-131 20v141q54 14 117 25.5t127.5 20t128 13.5t117.5 5zM1080 759q0 -84 -55 -134t-146 -50t-146 50t-55 134t55 134t146 50t146 -50t55 -134z" />
    <glyph glyph-name="Lslash" unicode="&#x141;" horiz-adv-x="1419" 
d="M1333 0h-1242v144l155 29q23 4 35 18.5t12 37.5v360l-204 -80v177l204 78v561q0 23 -12 37.5t-34 18.5l-156 30v151h834v-151l-205 -33q-23 -4 -35 -18t-12 -37v-424l390 160v-183l-390 -153v-558h173q62 0 108.5 7.5t72.5 17.5q22 9 36.5 24t21.5 41l99 323l189 -26
q0 -127 -5 -268t-35 -284z" />
    <glyph glyph-name="lslash" unicode="&#x142;" horiz-adv-x="824" 
d="M765 0h-696v143l121 20q22 4 34.5 18t12.5 37v505l-210 -97v184l210 92v617q0 23 -12 37.5t-34 18.5l-131 20v141q54 14 117 25.5t127.5 20t128 13.5t117.5 5l48 -45v-716l207 100v-191l-207 -92v-637q0 -24 12 -38t35 -18l120 -21v-142z" />
    <glyph glyph-name="Nacute" unicode="&#x143;" horiz-adv-x="1807" 
d="M729 144v-144h-640v144l156 28q23 4 34.5 18.5t11.5 37.5v1096q0 23 -11.5 37.5t-34.5 19.5l-156 30v151h592l655 -1065v827q0 23 -12 38t-34 19l-166 30v151h613v-151l-145 -30q-23 -5 -34.5 -19.5t-11.5 -37.5v-1324h-343l-702 1152v-923q0 -23 12 -37.5t34 -18.5z
M1331 1909q-54 -38 -129.5 -73t-158.5 -65.5t-169 -56.5t-161 -47l-63 126l530 340z" />
    <glyph glyph-name="nacute" unicode="&#x144;" horiz-adv-x="1496" 
d="M708 142v-142h-628v142l109 21q22 4 34 18.5t12 37.5v659q0 22 -11 38t-33 20l-122 25v147q105 28 221 42.5t217 15.5l50 -45l21 -109q71 75 165 112.5t207 37.5q201 0 275 -112.5t74 -317.5v-513q0 -23 12 -37.5t34 -18.5l109 -20v-143h-628v142l67 20q22 8 33.5 21
t11.5 36v473q0 140 -41 198.5t-130 58.5q-41 0 -85 -12t-86 -36v-682q0 -23 11.5 -36.5t32.5 -20.5zM654 1251l-91 109l396 453l197 -184q-38 -47 -92.5 -97t-120 -98t-139.5 -95t-150 -88z" />
    <glyph glyph-name="Ncommaaccent" unicode="&#x145;" horiz-adv-x="1807" 
d="M729 144v-144h-640v144l156 28q23 4 34.5 18.5t11.5 37.5v1096q0 23 -11.5 37.5t-34.5 19.5l-156 30v151h592l655 -1065v827q0 23 -12 38t-34 19l-166 30v151h613v-151l-145 -30q-23 -5 -34.5 -19.5t-11.5 -37.5v-1324h-343l-702 1152v-923q0 -23 12 -37.5t34 -18.5z
M1136 -311q-3 -104 -77 -183t-175 -125l-76 84q34 25 61.5 58t27.5 65q0 31 -15 45.5t-29 25.5q-19 16 -36.5 39.5t-17.5 65.5q0 56 43 95.5t106 39.5q81 0 135.5 -59t52.5 -151z" />
    <glyph glyph-name="ncommaaccent" unicode="&#x146;" horiz-adv-x="1496" 
d="M708 142v-142h-628v142l109 21q22 4 34 18.5t12 37.5v659q0 22 -11 38t-33 20l-122 25v147q105 28 221 42.5t217 15.5l50 -45l21 -109q71 75 165 112.5t207 37.5q201 0 275 -112.5t74 -317.5v-513q0 -23 12 -37.5t34 -18.5l109 -20v-143h-628v142l67 20q22 8 33.5 21
t11.5 36v473q0 140 -41 198.5t-130 58.5q-41 0 -85 -12t-86 -36v-682q0 -23 11.5 -36.5t32.5 -20.5zM943 -311q-3 -104 -77 -183t-175 -125l-76 84q34 25 61.5 58t27.5 65q0 31 -15 45.5t-29 25.5q-19 16 -36.5 39.5t-17.5 65.5q0 56 43 95.5t106 39.5q81 0 135.5 -59
t52.5 -151z" />
    <glyph glyph-name="Ncaron" unicode="&#x147;" horiz-adv-x="1807" 
d="M729 144v-144h-640v144l156 28q23 4 34.5 18.5t11.5 37.5v1096q0 23 -11.5 37.5t-34.5 19.5l-156 30v151h592l655 -1065v827q0 23 -12 38t-34 19l-166 30v151h613v-151l-145 -30q-23 -5 -34.5 -19.5t-11.5 -37.5v-1324h-343l-702 1152v-923q0 -23 12 -37.5t34 -18.5z
M1262 2120l97 -111l-320 -326l-221 -10l-344 328l102 117l355 -201z" />
    <glyph glyph-name="ncaron" unicode="&#x148;" horiz-adv-x="1496" 
d="M708 142v-142h-628v142l109 21q22 4 34 18.5t12 37.5v659q0 22 -11 38t-33 20l-122 25v147q105 28 221 42.5t217 15.5l50 -45l21 -109q71 75 165 112.5t207 37.5q201 0 275 -112.5t74 -317.5v-513q0 -23 12 -37.5t34 -18.5l109 -20v-143h-628v142l67 20q22 8 33.5 21
t11.5 36v473q0 140 -41 198.5t-130 58.5q-41 0 -85 -12t-86 -36v-682q0 -23 11.5 -36.5t32.5 -20.5zM1083 1812l110 -104l-301 -391l-217 -20l-329 404l115 109l323 -252z" />
    <glyph glyph-name="napostrophe" unicode="&#x149;" horiz-adv-x="1562" 
d="M774 142v-142h-628v142l109 21q22 4 34 18.5t12 37.5v659q0 22 -11 38t-33 20l-122 25v147q105 28 221 42.5t217 15.5l50 -45l21 -109q71 75 165 112.5t207 37.5q201 0 275 -112.5t74 -317.5v-513q0 -23 12 -37.5t34 -18.5l109 -20v-143h-628v142l67 20q22 8 33.5 21
t11.5 36v473q0 140 -41 198.5t-130 58.5q-41 0 -85 -12t-86 -36v-682q0 -23 11.5 -36.5t32.5 -20.5zM311 1566q0 -138 -91 -250t-240 -178l-68 91q62 44 101 97.5t39 102.5q0 31 -12 44.5t-32 30.5q-22 19 -42.5 49t-20.5 78q0 72 52 116t118 44q79 0 137.5 -60.5
t58.5 -164.5z" />
    <glyph glyph-name="Eng" unicode="&#x14a;" horiz-adv-x="1807" 
d="M1067 -525q-59 0 -106 6.5t-92 14.5l-7 160q56 7 127 26.5t127 55.5q49 31 91.5 79.5t71.5 138.5l-778 1203v-929q0 -23 12 -37.5t34 -18.5l182 -30v-144h-640v144l156 29q23 4 34.5 18.5t11.5 37.5v1095q0 23 -11.5 37.5t-34.5 19.5l-156 30v151h592l655 -1040v802
q0 23 -12 38t-34 19l-166 30v151h613v-151l-145 -30q-23 -5 -34.5 -19.5t-11.5 -37.5l-1 -1217q0 -141 -24 -258.5t-79.5 -200t-147.5 -128t-227 -45.5z" />
    <glyph glyph-name="eng" unicode="&#x14b;" horiz-adv-x="1453" 
d="M835 -525q-38 0 -84.5 3t-85.5 10l-9 147q53 10 111.5 28.5t97.5 58.5q37 39 53 114.5t16 215.5v640q0 140 -41 198.5t-129 58.5q-42 0 -85 -12t-83 -36v-682q0 -23 11.5 -36.5t32.5 -20.5l68 -20v-142h-628v142l109 21q22 4 34 18.5t12 37.5v659q0 22 -11 38t-33 20
l-122 25v147q105 28 221 42.5t217 15.5l50 -45l21 -110q71 76 166.5 113.5t207.5 37.5q201 0 276 -112t75 -318v-707q0 -260 -109.5 -405t-358.5 -145z" />
    <glyph glyph-name="Omacron" unicode="&#x14c;" horiz-adv-x="1599" 
d="M773 -34q-176 0 -304.5 55t-211.5 156t-123 247t-40 327q0 199 47 356t139 265t229.5 165t315.5 57q176 0 305 -55t212 -156.5t123 -247.5t40 -327q0 -198 -47 -355.5t-139 -265t-229.5 -164.5t-316.5 -57zM804 1438q-146 0 -220 -156t-74 -512q0 -346 70.5 -497.5
t213.5 -151.5q144 0 219 158t75 515q0 346 -70.5 495t-213.5 149zM414 1746v206h769v-206h-769z" />
    <glyph glyph-name="omacron" unicode="&#x14d;" horiz-adv-x="1315" 
d="M81 558q0 167 45.5 284t124.5 189t188 104.5t234 32.5q262 0 411 -143t149 -442q0 -168 -45.5 -285t-124.5 -188.5t-187.5 -103.5t-234.5 -32q-261 0 -410.5 143t-149.5 441zM844 556q0 251 -40.5 356t-150.5 105q-91 0 -136.5 -94.5t-45.5 -337.5q0 -251 40.5 -356
t150.5 -105q91 0 136.5 95t45.5 337zM290 1355v206h735v-206h-735z" />
    <glyph glyph-name="Obreve" unicode="&#x14e;" horiz-adv-x="1599" 
d="M773 -34q-176 0 -304.5 55t-211.5 156t-123 247t-40 327q0 199 47 356t139 265t229.5 165t315.5 57q176 0 305 -55t212 -156.5t123 -247.5t40 -327q0 -198 -47 -355.5t-139 -265t-229.5 -164.5t-316.5 -57zM804 1438q-146 0 -220 -156t-74 -512q0 -346 70.5 -497.5
t213.5 -151.5q144 0 219 158t75 515q0 346 -70.5 495t-213.5 149zM1223 2013q-38 -142 -153 -234.5t-275 -92.5q-82 0 -153 25.5t-125.5 69t-91 103.5t-50.5 129l142 75q53 -89 129 -127t160 -38q85 0 161 38.5t132 126.5z" />
    <glyph glyph-name="obreve" unicode="&#x14f;" horiz-adv-x="1315" 
d="M81 558q0 167 45.5 284t124.5 189t188 104.5t234 32.5q262 0 411 -143t149 -442q0 -168 -45.5 -285t-124.5 -188.5t-187.5 -103.5t-234.5 -32q-261 0 -410.5 143t-149.5 441zM844 556q0 251 -40.5 356t-150.5 105q-91 0 -136.5 -94.5t-45.5 -337.5q0 -251 40.5 -356
t150.5 -105q91 0 136.5 95t45.5 337zM1073 1634q-34 -149 -149 -242.5t-274 -93.5q-80 0 -150 25.5t-123 70t-88 106.5t-46 134l142 73q50 -90 120.5 -131t155.5 -41q86 0 158 41t129 131z" />
    <glyph glyph-name="Ohungarumlaut" unicode="&#x150;" horiz-adv-x="1599" 
d="M773 -34q-176 0 -304.5 55t-211.5 156t-123 247t-40 327q0 199 47 356t139 265t229.5 165t315.5 57q176 0 305 -55t212 -156.5t123 -247.5t40 -327q0 -198 -47 -355.5t-139 -265t-229.5 -164.5t-316.5 -57zM804 1438q-146 0 -220 -156t-74 -512q0 -346 70.5 -497.5
t213.5 -151.5q144 0 219 158t75 515q0 346 -70.5 495t-213.5 149zM515 1647l-105 100l310 396l205 -164q-39 -43 -89.5 -87.5t-104.5 -87t-110 -83t-106 -74.5zM978 1648l-95 107l340 387l191 -178q-42 -40 -95.5 -83.5t-111 -85t-117 -80t-112.5 -67.5z" />
    <glyph glyph-name="ohungarumlaut" unicode="&#x151;" horiz-adv-x="1315" 
d="M81 558q0 167 45.5 284t124.5 189t188 104.5t234 32.5q262 0 411 -143t149 -442q0 -168 -45.5 -285t-124.5 -188.5t-187.5 -103.5t-234.5 -32q-261 0 -410.5 143t-149.5 441zM844 556q0 251 -40.5 356t-150.5 105q-91 0 -136.5 -94.5t-45.5 -337.5q0 -251 40.5 -356
t150.5 -105q91 0 136.5 95t45.5 337zM431 1273l-115 87l254 463l220 -125q-30 -51 -72 -109t-90 -114.5t-99 -109t-98 -92.5zM863 1273l-110 93l279 453l213 -136q-32 -49 -77.5 -105.5t-96 -112t-104.5 -105.5t-104 -87z" />
    <glyph glyph-name="OE" unicode="&#x152;" horiz-adv-x="2173" 
d="M815 124q49 0 101 16t96 55v1177q-43 34 -92.5 48.5t-95.5 14.5q-160 0 -237.5 -151.5t-77.5 -513.5q0 -353 74.5 -499.5t231.5 -146.5zM1012 0v0q-52 -11 -109 -17t-117 -6q-179 0 -310.5 52.5t-216 151t-125 243t-40.5 326.5q0 193 47 348t138.5 262t227.5 164.5
t312 57.5q51 0 104.5 -5t104.5 -15h983q13 -105 14 -211.5t-8 -215.5h-177l-55 185q-7 26 -21.5 41t-36.5 24q-26 10 -72 16t-95 6h-169v-525l430 16v-205l-430 11v-541h211q49 0 102.5 6t78.5 16q22 9 33 23.5t21 41.5l86 248l178 -28q-1 -120 -10 -234t-28 -236h-1051z
" />
    <glyph glyph-name="oe" unicode="&#x153;" horiz-adv-x="1947" 
d="M1386 1019q-68 0 -111 -58.5t-55 -208.5h318v46q0 96 -36.5 158.5t-115.5 62.5zM471 568q0 -236 40.5 -338.5t144.5 -102.5q47 0 82 21.5t57 73t33 137.5t11 214q0 240 -42 341t-144 101q-48 0 -82.5 -22t-56.5 -74t-32.5 -138t-10.5 -213zM1859 249
q-20 -68 -64.5 -119.5t-106 -86t-137.5 -52t-158 -17.5q-122 0 -213.5 36.5t-153.5 101.5q-70 -70 -170.5 -104t-227.5 -34q-124 0 -225.5 35t-172.5 107.5t-110 183.5t-39 262q0 164 45.5 280t123.5 188t184 105t227 33q126 0 221.5 -33t158.5 -99q69 64 165 97.5t215 33.5
q114 0 198.5 -29.5t139.5 -80.5t82 -122.5t27 -155.5q0 -37 -5 -81.5t-12 -79.5h-636q1 -220 61.5 -321.5t217.5 -101.5q81 0 159 28t127 84z" />
    <glyph glyph-name="Racute" unicode="&#x154;" horiz-adv-x="1655" 
d="M669 1423v-617q42 -5 86 -5h67q98 1 164.5 81t66.5 256q0 161 -64.5 228t-196.5 67q-34 0 -66 -3t-57 -7zM872 143v-143h-783v144l155 29q22 5 34.5 18.5t12.5 36.5v1097q0 23 -12 37t-34 19l-156 30v151h381q87 0 167.5 6t186.5 6q336 0 482.5 -96.5t146.5 -322.5
q0 -110 -29.5 -185t-76.5 -123.5t-107 -77t-120 -45.5q79 -34 135 -92t99 -155l108 -242q16 -34 31 -47t41 -20l95 -25v-143h-429q-44 0 -78.5 56t-70.5 146l-101 262q-27 67 -53.5 117t-54.5 81h-173v-438q0 -23 12.5 -36.5t35.5 -17.5zM1210 1909q-54 -38 -129.5 -73
t-158.5 -65.5t-169 -56.5t-161 -47l-63 126l530 340z" />
    <glyph glyph-name="racute" unicode="&#x155;" horiz-adv-x="1127" 
d="M814 142v-142h-734v143l108 20q22 4 34.5 18.5t12.5 37.5v658q0 23 -11 39t-33 20l-122 25v147q96 28 207 42.5t206 15.5l56 -44l38 -199q67 114 155 179.5t184 65.5q34 0 84 -9.5t75 -22.5q6 -43 7 -96.5t-3 -111t-12 -117.5t-21 -116h-158l-35 117q-12 37 -29.5 48
t-51.5 11q-35 1 -82 -14.5t-93 -53.5v-584q0 -24 12.5 -38.5t36.5 -17.5zM505 1251l-91 109l396 453l197 -184q-38 -47 -92.5 -97t-120 -98t-139.5 -95t-150 -88z" />
    <glyph glyph-name="Rcommaaccent" unicode="&#x156;" horiz-adv-x="1655" 
d="M669 1423v-617q42 -5 86 -5h67q98 1 164.5 81t66.5 256q0 161 -64.5 228t-196.5 67q-34 0 -66 -3t-57 -7zM872 143v-143h-783v144l155 29q22 5 34.5 18.5t12.5 36.5v1097q0 23 -12 37t-34 19l-156 30v151h381q87 0 167.5 6t186.5 6q336 0 482.5 -96.5t146.5 -322.5
q0 -110 -29.5 -185t-76.5 -123.5t-107 -77t-120 -45.5q79 -34 135 -92t99 -155l108 -242q16 -34 31 -47t41 -20l95 -25v-143h-429q-44 0 -78.5 56t-70.5 146l-101 262q-27 67 -53.5 117t-54.5 81h-173v-438q0 -23 12.5 -36.5t35.5 -17.5zM1089 -311q-3 -104 -77 -183
t-175 -125l-76 84q34 25 61.5 58t27.5 65q0 31 -15 45.5t-29 25.5q-19 16 -36.5 39.5t-17.5 65.5q0 56 43 95.5t106 39.5q81 0 135.5 -59t52.5 -151z" />
    <glyph glyph-name="rcommaaccent" unicode="&#x157;" horiz-adv-x="1127" 
d="M814 142v-142h-734v143l108 20q22 4 34.5 18.5t12.5 37.5v658q0 23 -11 39t-33 20l-122 25v147q96 28 207 42.5t206 15.5l56 -44l38 -199q67 114 155 179.5t184 65.5q34 0 84 -9.5t75 -22.5q6 -43 7 -96.5t-3 -111t-12 -117.5t-21 -116h-158l-35 117q-12 37 -29.5 48
t-51.5 11q-35 1 -82 -14.5t-93 -53.5v-584q0 -24 12.5 -38.5t36.5 -17.5zM619 -311q-3 -104 -77 -183t-175 -125l-76 84q34 25 61.5 58t27.5 65q0 31 -15 45.5t-29 25.5q-19 16 -36.5 39.5t-17.5 65.5q0 56 43 95.5t106 39.5q81 0 135.5 -59t52.5 -151z" />
    <glyph glyph-name="Rcaron" unicode="&#x158;" horiz-adv-x="1655" 
d="M669 1423v-617q42 -5 86 -5h67q98 1 164.5 81t66.5 256q0 161 -64.5 228t-196.5 67q-34 0 -66 -3t-57 -7zM872 143v-143h-783v144l155 29q22 5 34.5 18.5t12.5 36.5v1097q0 23 -12 37t-34 19l-156 30v151h381q87 0 167.5 6t186.5 6q336 0 482.5 -96.5t146.5 -322.5
q0 -110 -29.5 -185t-76.5 -123.5t-107 -77t-120 -45.5q79 -34 135 -92t99 -155l108 -242q16 -34 31 -47t41 -20l95 -25v-143h-429q-44 0 -78.5 56t-70.5 146l-101 262q-27 67 -53.5 117t-54.5 81h-173v-438q0 -23 12.5 -36.5t35.5 -17.5zM1141 2120l97 -111l-320 -326
l-221 -10l-344 328l102 117l355 -201z" />
    <glyph glyph-name="rcaron" unicode="&#x159;" horiz-adv-x="1127" 
d="M814 142v-142h-734v143l108 20q22 4 34.5 18.5t12.5 37.5v658q0 23 -11 39t-33 20l-122 25v147q96 28 207 42.5t206 15.5l56 -44l38 -199q67 114 155 179.5t184 65.5q34 0 84 -9.5t75 -22.5q6 -43 7 -96.5t-3 -111t-12 -117.5t-21 -116h-158l-35 117q-12 37 -29.5 48
t-51.5 11q-35 1 -82 -14.5t-93 -53.5v-584q0 -24 12.5 -38.5t36.5 -17.5zM934 1812l110 -104l-301 -391l-217 -20l-329 404l115 109l323 -252z" />
    <glyph glyph-name="Sacute" unicode="&#x15a;" horiz-adv-x="1322" 
d="M1237 442q0 -84 -32 -169.5t-102.5 -153t-185 -110t-276.5 -42.5q-155 0 -292 36t-236 83q-3 54 -1.5 113.5t5 117t10 111t14.5 97.5h215l39 -259q4 -23 13 -42t29 -35q30 -27 87 -52t126 -25q99 0 154.5 55t55.5 144q0 63 -26.5 112t-72 89t-107 75.5t-129.5 70.5
q-78 41 -151 83.5t-128 96t-88.5 125t-33.5 169.5t35.5 182.5t106 146t177.5 96.5t249 35q119 0 241 -23t212 -60q8 -99 1.5 -207.5t-22.5 -204.5h-209l-42 227q-6 29 -15.5 48t-27.5 32q-27 20 -70.5 32t-86.5 12q-90 0 -140.5 -50.5t-50.5 -132.5q0 -57 23 -100t65.5 -79
t104.5 -70t139 -74q86 -44 163 -93t134.5 -108t91.5 -132.5t34 -166.5zM1095 1909q-54 -38 -129.5 -73t-158.5 -65.5t-169 -56.5t-161 -47l-63 126l530 340z" />
    <glyph glyph-name="sacute" unicode="&#x15b;" horiz-adv-x="1119" 
d="M107 54q-10 80 -7.5 166t13.5 162h180l42 -148q10 -31 18.5 -48t27.5 -31q22 -15 61.5 -31t90.5 -16q75 0 115 39.5t40 90.5q0 41 -24 70.5t-65 55t-97.5 50.5t-120.5 56q-124 61 -201.5 137.5t-77.5 207.5q0 154 117 252.5t362 98.5q99 0 207.5 -18.5t186.5 -49.5
q7 -72 3 -154.5t-19 -157.5l-167 1l-44 139q-10 29 -20.5 44.5t-30.5 28.5q-25 16 -54 23t-60 8q-65 0 -105.5 -33t-40.5 -90q0 -38 20 -66.5t53 -51t77.5 -42t92.5 -40.5q72 -31 139 -65t117.5 -78t80.5 -102.5t30 -138.5q0 -89 -38 -156t-105 -111t-159.5 -66t-199.5 -22
q-128 0 -241.5 26.5t-196.5 59.5zM449 1251l-91 109l396 453l197 -184q-38 -47 -92.5 -97t-120 -98t-139.5 -95t-150 -88z" />
    <glyph glyph-name="Scircumflex" unicode="&#x15c;" horiz-adv-x="1322" 
d="M1237 442q0 -84 -32 -169.5t-102.5 -153t-185 -110t-276.5 -42.5q-155 0 -292 36t-236 83q-3 54 -1.5 113.5t5 117t10 111t14.5 97.5h215l39 -259q4 -23 13 -42t29 -35q30 -27 87 -52t126 -25q99 0 154.5 55t55.5 144q0 63 -26.5 112t-72 89t-107 75.5t-129.5 70.5
q-78 41 -151 83.5t-128 96t-88.5 125t-33.5 169.5t35.5 182.5t106 146t177.5 96.5t249 35q119 0 241 -23t212 -60q8 -99 1.5 -207.5t-22.5 -204.5h-209l-42 227q-6 29 -15.5 48t-27.5 32q-27 20 -70.5 32t-86.5 12q-90 0 -140.5 -50.5t-50.5 -132.5q0 -57 23 -100t65.5 -79
t104.5 -70t139 -74q86 -44 163 -93t134.5 -108t91.5 -132.5t34 -166.5zM335 1655l-97 111l320 326l221 10l344 -328l-102 -117l-355 201z" />
    <glyph glyph-name="scircumflex" unicode="&#x15d;" horiz-adv-x="1119" 
d="M107 54q-10 80 -7.5 166t13.5 162h180l42 -148q10 -31 18.5 -48t27.5 -31q22 -15 61.5 -31t90.5 -16q75 0 115 39.5t40 90.5q0 41 -24 70.5t-65 55t-97.5 50.5t-120.5 56q-124 61 -201.5 137.5t-77.5 207.5q0 154 117 252.5t362 98.5q99 0 207.5 -18.5t186.5 -49.5
q7 -72 3 -154.5t-19 -157.5l-167 1l-44 139q-10 29 -20.5 44.5t-30.5 28.5q-25 16 -54 23t-60 8q-65 0 -105.5 -33t-40.5 -90q0 -38 20 -66.5t53 -51t77.5 -42t92.5 -40.5q72 -31 139 -65t117.5 -78t80.5 -102.5t30 -138.5q0 -89 -38 -156t-105 -111t-159.5 -66t-199.5 -22
q-128 0 -241.5 26.5t-196.5 59.5zM233 1263l-110 104l301 392l217 19l330 -404l-116 -109l-323 252z" />
    <glyph glyph-name="Scedilla" unicode="&#x15e;" horiz-adv-x="1322" 
d="M1237 442q0 -84 -32 -169.5t-102.5 -153t-185 -110t-276.5 -42.5q-155 0 -292 36t-236 83q-3 54 -1.5 113.5t5 117t10 111t14.5 97.5h215l39 -259q4 -23 13 -42t29 -35q30 -27 87 -52t126 -25q99 0 154.5 55t55.5 144q0 63 -26.5 112t-72 89t-107 75.5t-129.5 70.5
q-78 41 -151 83.5t-128 96t-88.5 125t-33.5 169.5t35.5 182.5t106 146t177.5 96.5t249 35q119 0 241 -23t212 -60q8 -99 1.5 -207.5t-22.5 -204.5h-209l-42 227q-6 29 -15.5 48t-27.5 32q-27 20 -70.5 32t-86.5 12q-90 0 -140.5 -50.5t-50.5 -132.5q0 -57 23 -100t65.5 -79
t104.5 -70t139 -74q86 -44 163 -93t134.5 -108t91.5 -132.5t34 -166.5zM565 51h117l-40 -140h31q89 -2 144 -51t55 -133q0 -114 -110 -184.5t-286 -70.5q-16 0 -32 0.5t-32 1.5l-19 115q101 10 152.5 44.5t51.5 83.5q0 43 -32.5 65t-84.5 24z" />
    <glyph glyph-name="scedilla" unicode="&#x15f;" horiz-adv-x="1119" 
d="M107 54q-10 80 -7.5 166t13.5 162h180l42 -148q10 -31 18.5 -48t27.5 -31q22 -15 61.5 -31t90.5 -16q75 0 115 39.5t40 90.5q0 41 -24 70.5t-65 55t-97.5 50.5t-120.5 56q-124 61 -201.5 137.5t-77.5 207.5q0 154 117 252.5t362 98.5q99 0 207.5 -18.5t186.5 -49.5
q7 -72 3 -154.5t-19 -157.5l-167 1l-44 139q-10 29 -20.5 44.5t-30.5 28.5q-25 16 -54 23t-60 8q-65 0 -105.5 -33t-40.5 -90q0 -38 20 -66.5t53 -51t77.5 -42t92.5 -40.5q72 -31 139 -65t117.5 -78t80.5 -102.5t30 -138.5q0 -89 -38 -156t-105 -111t-159.5 -66t-199.5 -22
q-128 0 -241.5 26.5t-196.5 59.5zM473 51h117l-40 -140h31q89 -2 144 -51t55 -133q0 -114 -110 -184.5t-286 -70.5q-16 0 -32 0.5t-32 1.5l-19 115q101 10 152.5 44.5t51.5 83.5q0 43 -32.5 65t-84.5 24z" />
    <glyph glyph-name="Scaron" unicode="&#x160;" horiz-adv-x="1322" 
d="M1237 442q0 -84 -32 -169.5t-102.5 -153t-185 -110t-276.5 -42.5q-155 0 -292 36t-236 83q-3 54 -1.5 113.5t5 117t10 111t14.5 97.5h215l39 -259q4 -23 13 -42t29 -35q30 -27 87 -52t126 -25q99 0 154.5 55t55.5 144q0 63 -26.5 112t-72 89t-107 75.5t-129.5 70.5
q-78 41 -151 83.5t-128 96t-88.5 125t-33.5 169.5t35.5 182.5t106 146t177.5 96.5t249 35q119 0 241 -23t212 -60q8 -99 1.5 -207.5t-22.5 -204.5h-209l-42 227q-6 29 -15.5 48t-27.5 32q-27 20 -70.5 32t-86.5 12q-90 0 -140.5 -50.5t-50.5 -132.5q0 -57 23 -100t65.5 -79
t104.5 -70t139 -74q86 -44 163 -93t134.5 -108t91.5 -132.5t34 -166.5zM1026 2120l97 -111l-320 -326l-221 -10l-344 328l102 117l355 -201z" />
    <glyph glyph-name="scaron" unicode="&#x161;" horiz-adv-x="1119" 
d="M107 54q-10 80 -7.5 166t13.5 162h180l42 -148q10 -31 18.5 -48t27.5 -31q22 -15 61.5 -31t90.5 -16q75 0 115 39.5t40 90.5q0 41 -24 70.5t-65 55t-97.5 50.5t-120.5 56q-124 61 -201.5 137.5t-77.5 207.5q0 154 117 252.5t362 98.5q99 0 207.5 -18.5t186.5 -49.5
q7 -72 3 -154.5t-19 -157.5l-167 1l-44 139q-10 29 -20.5 44.5t-30.5 28.5q-25 16 -54 23t-60 8q-65 0 -105.5 -33t-40.5 -90q0 -38 20 -66.5t53 -51t77.5 -42t92.5 -40.5q72 -31 139 -65t117.5 -78t80.5 -102.5t30 -138.5q0 -89 -38 -156t-105 -111t-159.5 -66t-199.5 -22
q-128 0 -241.5 26.5t-196.5 59.5zM878 1812l110 -104l-301 -391l-217 -20l-329 404l115 109l323 -252z" />
    <glyph glyph-name="uni0162" unicode="&#x162;" horiz-adv-x="1610" 
d="M1280 0h-943v143l234 38q23 4 35.5 17.5t12.5 36.5v1172h-85q-40 0 -77 -5t-60 -14q-21 -8 -32 -21t-15 -32l-85 -345h-185q-17 154 -20.5 286t12.5 286h1472q16 -154 12.5 -288t-19.5 -284h-185l-89 346q-5 19 -16 31.5t-31 20.5q-23 10 -60 14.5t-77 4.5h-81v-1172
q0 -23 12.5 -36.5t35.5 -17.5l234 -38v-143zM750 51h117l-40 -140h31q89 -2 144 -51t55 -133q0 -114 -110 -184.5t-286 -70.5q-16 0 -32 0.5t-32 1.5l-19 115q101 10 152.5 44.5t51.5 83.5q0 43 -32.5 65t-84.5 24z" />
    <glyph glyph-name="uni0163" unicode="&#x163;" horiz-adv-x="949" 
d="M202 335v613l-154 28v131l125 26q27 5 40.5 18t22.5 38l111 316h200l13 -367h313v-185h-309v-537q0 -114 34 -157t101 -43q40 0 85.5 14.5t85.5 48.5l70 -79q-51 -111 -158.5 -164t-245.5 -53q-154 0 -244 74t-90 278zM436 51h117l-40 -140h31q89 -2 144 -51t55 -133
q0 -114 -110 -184.5t-286 -70.5q-16 0 -32 0.5t-32 1.5l-19 115q101 10 152.5 44.5t51.5 83.5q0 43 -32.5 65t-84.5 24z" />
    <glyph glyph-name="Tcaron" unicode="&#x164;" horiz-adv-x="1610" 
d="M1280 0h-943v143l234 38q23 4 35.5 17.5t12.5 36.5v1172h-85q-40 0 -77 -5t-60 -14q-21 -8 -32 -21t-15 -32l-85 -345h-185q-17 154 -20.5 286t12.5 286h1472q16 -154 12.5 -288t-19.5 -284h-185l-89 346q-5 19 -16 31.5t-31 20.5q-23 10 -60 14.5t-77 4.5h-81v-1172
q0 -23 12.5 -36.5t35.5 -17.5l234 -38v-143zM1150 2120l97 -111l-320 -326l-221 -10l-344 328l102 117l355 -201z" />
    <glyph glyph-name="tcaron" unicode="&#x165;" horiz-adv-x="949" 
d="M201 335v613l-154 28v131l125 26q27 5 40.5 18t22.5 38l111 316h200l13 -367h313v-185h-309v-537q0 -114 34 -157t101 -43q40 0 85.5 14.5t85.5 48.5l70 -79q-51 -111 -158.5 -164t-245.5 -53q-154 0 -244 74t-90 278zM828 1287l-148 31l39 570l267 -30
q-10 -71 -26.5 -146.5t-37 -149t-45 -144t-49.5 -131.5z" />
    <glyph glyph-name="Tbar" unicode="&#x166;" horiz-adv-x="1610" 
d="M1280 143v-143h-943v143l234 38q23 4 35.5 17.5t12.5 36.5v350h-241v165h241v657h-85q-40 0 -77 -5t-60 -14q-21 -8 -32 -21t-15 -32l-85 -345h-185q-17 154 -20.5 286t12.5 286h1472q16 -154 12.5 -288t-19.5 -284h-185l-89 346q-5 19 -16 31.5t-31 20.5
q-23 10 -60 14.5t-77 4.5h-81v-657h239v-165h-239v-350q0 -23 12.5 -36.5t35.5 -17.5z" />
    <glyph glyph-name="tbar" unicode="&#x167;" horiz-adv-x="952" 
d="M941 200q-51 -111 -158.5 -164t-245.5 -53q-154 0 -244 74t-90 278v240h-144v161h144v202l-154 28v141l125 26q27 5 40.5 18t22.5 38l111 316h200l13 -367h313v-195h-309v-207h299v-161h-299v-159q0 -114 34 -157t101 -43q40 0 85.5 14.5t85.5 48.5z" />
    <glyph glyph-name="Utilde" unicode="&#x168;" horiz-adv-x="1723" 
d="M1046 1562h599v-151l-110 -28q-22 -6 -33.5 -21t-11.5 -37v-747q0 -164 -43.5 -279.5t-123.5 -187t-194 -104t-254 -32.5q-325 0 -486 144.5t-161 471.5v734q0 22 -11 36.5t-33 21.5l-100 28v151h741v-151l-159 -34q-22 -4 -34 -19t-12 -37v-762q0 -204 70 -320t245 -116
q92 0 154 32t99.5 89.5t53.5 137.5t16 175v767q0 23 -12 37.5t-34 18.5l-166 31v151zM1353 1985q-15 -58 -43.5 -112t-67.5 -95t-89.5 -65.5t-109.5 -24.5t-107.5 21t-89.5 45.5t-78 45.5t-75 21q-49 0 -90 -35t-75 -87l-106 59q16 58 44 112t67.5 94.5t90 65t109.5 24.5
t107 -20.5t89 -45.5t78.5 -45.5t75.5 -20.5q48 0 89.5 34.5t75.5 86.5z" />
    <glyph glyph-name="utilde" unicode="&#x169;" horiz-adv-x="1447" 
d="M1154 -19q-87 0 -147 32.5t-93 100.5q-63 -66 -146.5 -101.5t-208.5 -35.5q-178 0 -268 96.5t-90 296.5v511q0 22 -11 37.5t-33 20.5l-107 27v148q52 12 111.5 22t120 16.5t120.5 9.5t112 3l48 -44v-704q0 -142 39 -192.5t121 -50.5q41 0 82 12.5t81 35.5v660
q0 22 -11 38t-33 21l-114 27v148q53 12 113.5 21.5t122 15.5t122 9t113.5 3l48 -44v-893q0 -32 13.5 -45t38.5 -16l98 -12v-135q-37 -11 -107 -25t-135 -14zM1151 1597q-15 -60 -42.5 -115.5t-65.5 -97.5t-87 -67.5t-107 -25.5q-56 0 -102 22t-85 48.5t-75 48.5t-72 22
q-46 0 -86 -38t-72 -92l-104 60q15 61 42 117t65 98t87 67.5t107 25.5q56 0 102 -22t85 -48.5t75 -48.5t72 -22q46 0 86 37.5t72 92.5z" />
    <glyph glyph-name="Umacron" unicode="&#x16a;" horiz-adv-x="1723" 
d="M1046 1562h599v-151l-110 -28q-22 -6 -33.5 -21t-11.5 -37v-747q0 -164 -43.5 -279.5t-123.5 -187t-194 -104t-254 -32.5q-325 0 -486 144.5t-161 471.5v734q0 22 -11 36.5t-33 21.5l-100 28v151h741v-151l-159 -34q-22 -4 -34 -19t-12 -37v-762q0 -204 70 -320t245 -116
q92 0 154 32t99.5 89.5t53.5 137.5t16 175v767q0 23 -12 37.5t-34 18.5l-166 31v151zM503 1746v206h769v-206h-769z" />
    <glyph glyph-name="umacron" unicode="&#x16b;" horiz-adv-x="1447" 
d="M1154 -19q-87 0 -147 32.5t-93 100.5q-63 -66 -146.5 -101.5t-208.5 -35.5q-178 0 -268 96.5t-90 296.5v511q0 22 -11 37.5t-33 20.5l-107 27v148q52 12 111.5 22t120 16.5t120.5 9.5t112 3l48 -44v-704q0 -142 39 -192.5t121 -50.5q41 0 82 12.5t81 35.5v660
q0 22 -11 38t-33 21l-114 27v148q53 12 113.5 21.5t122 15.5t122 9t113.5 3l48 -44v-893q0 -32 13.5 -45t38.5 -16l98 -12v-135q-37 -11 -107 -25t-135 -14zM334 1355v206h735v-206h-735z" />
    <glyph glyph-name="Ubreve" unicode="&#x16c;" horiz-adv-x="1723" 
d="M1046 1562h599v-151l-110 -28q-22 -6 -33.5 -21t-11.5 -37v-747q0 -164 -43.5 -279.5t-123.5 -187t-194 -104t-254 -32.5q-325 0 -486 144.5t-161 471.5v734q0 22 -11 36.5t-33 21.5l-100 28v151h741v-151l-159 -34q-22 -4 -34 -19t-12 -37v-762q0 -204 70 -320t245 -116
q92 0 154 32t99.5 89.5t53.5 137.5t16 175v767q0 23 -12 37.5t-34 18.5l-166 31v151zM1312 2013q-38 -142 -153 -234.5t-275 -92.5q-82 0 -153 25.5t-125.5 69t-91 103.5t-50.5 129l142 75q53 -89 129 -127t160 -38q85 0 161 38.5t132 126.5z" />
    <glyph glyph-name="ubreve" unicode="&#x16d;" horiz-adv-x="1447" 
d="M1154 -19q-87 0 -147 32.5t-93 100.5q-63 -66 -146.5 -101.5t-208.5 -35.5q-178 0 -268 96.5t-90 296.5v511q0 22 -11 37.5t-33 20.5l-107 27v148q52 12 111.5 22t120 16.5t120.5 9.5t112 3l48 -44v-704q0 -142 39 -192.5t121 -50.5q41 0 82 12.5t81 35.5v660
q0 22 -11 38t-33 21l-114 27v148q53 12 113.5 21.5t122 15.5t122 9t113.5 3l48 -44v-893q0 -32 13.5 -45t38.5 -16l98 -12v-135q-37 -11 -107 -25t-135 -14zM1117 1634q-34 -149 -149 -242.5t-274 -93.5q-80 0 -150 25.5t-123 70t-88 106.5t-46 134l142 73
q50 -90 120.5 -131t155.5 -41q86 0 158 41t129 131z" />
    <glyph glyph-name="Uring" unicode="&#x16e;" horiz-adv-x="1723" 
d="M1046 1562h599v-151l-110 -28q-22 -6 -33.5 -21t-11.5 -37v-747q0 -164 -43.5 -279.5t-123.5 -187t-194 -104t-254 -32.5q-325 0 -486 144.5t-161 471.5v734q0 22 -11 36.5t-33 21.5l-100 28v151h741v-151l-159 -34q-22 -4 -34 -19t-12 -37v-762q0 -204 70 -320t245 -116
q92 0 154 32t99.5 89.5t53.5 137.5t16 175v767q0 23 -12 37.5t-34 18.5l-166 31v151zM1208 1911q0 -62 -25.5 -111.5t-69 -84t-102.5 -53.5t-127 -19q-153 0 -235 73t-82 200q0 61 26 110.5t70.5 84t105 53t129.5 18.5q157 0 233.5 -76.5t76.5 -194.5zM764 1917
q0 -55 30.5 -95.5t93.5 -40.5q60 0 91.5 31t31.5 94q0 60 -29.5 98.5t-92.5 38.5q-60 0 -92.5 -31t-32.5 -95z" />
    <glyph glyph-name="uring" unicode="&#x16f;" horiz-adv-x="1447" 
d="M1154 -19q-87 0 -147 32.5t-93 100.5q-63 -66 -146.5 -101.5t-208.5 -35.5q-178 0 -268 96.5t-90 296.5v511q0 22 -11 37.5t-33 20.5l-107 27v148q52 12 111.5 22t120 16.5t120.5 9.5t112 3l48 -44v-704q0 -142 39 -192.5t121 -50.5q41 0 82 12.5t81 35.5v660
q0 22 -11 38t-33 21l-114 27v148q53 12 113.5 21.5t122 15.5t122 9t113.5 3l48 -44v-893q0 -32 13.5 -45t38.5 -16l98 -12v-135q-37 -11 -107 -25t-135 -14zM1012 1531q0 -59 -24.5 -107t-67 -81.5t-100 -51.5t-122.5 -18q-149 0 -228 70.5t-79 192.5q0 59 25.5 106.5
t68.5 80.5t101.5 51t125.5 18q152 0 226 -74t74 -187zM584 1537q0 -53 29.5 -91.5t88.5 -38.5q57 0 87 29.5t30 89.5q0 57 -28 94t-88 37q-57 0 -88 -29.5t-31 -90.5z" />
    <glyph glyph-name="Uhungarumlaut" unicode="&#x170;" horiz-adv-x="1723" 
d="M1046 1562h599v-151l-110 -28q-22 -6 -33.5 -21t-11.5 -37v-747q0 -164 -43.5 -279.5t-123.5 -187t-194 -104t-254 -32.5q-325 0 -486 144.5t-161 471.5v734q0 22 -11 36.5t-33 21.5l-100 28v151h741v-151l-159 -34q-22 -4 -34 -19t-12 -37v-762q0 -204 70 -320t245 -116
q92 0 154 32t99.5 89.5t53.5 137.5t16 175v767q0 23 -12 37.5t-34 18.5l-166 31v151zM604 1647l-105 100l310 396l205 -164q-39 -43 -89.5 -87.5t-104.5 -87t-110 -83t-106 -74.5zM1067 1648l-95 107l340 387l191 -178q-42 -40 -95.5 -83.5t-111 -85t-117 -80t-112.5 -67.5z
" />
    <glyph glyph-name="uhungarumlaut" unicode="&#x171;" horiz-adv-x="1447" 
d="M1154 -19q-87 0 -147 32.5t-93 100.5q-63 -66 -146.5 -101.5t-208.5 -35.5q-178 0 -268 96.5t-90 296.5v511q0 22 -11 37.5t-33 20.5l-107 27v148q52 12 111.5 22t120 16.5t120.5 9.5t112 3l48 -44v-704q0 -142 39 -192.5t121 -50.5q41 0 82 12.5t81 35.5v660
q0 22 -11 38t-33 21l-114 27v148q53 12 113.5 21.5t122 15.5t122 9t113.5 3l48 -44v-893q0 -32 13.5 -45t38.5 -16l98 -12v-135q-37 -11 -107 -25t-135 -14zM475 1273l-115 87l254 463l220 -125q-30 -51 -72 -109t-90 -114.5t-99 -109t-98 -92.5zM907 1273l-110 93l279 453
l213 -136q-32 -49 -77.5 -105.5t-96 -112t-104.5 -105.5t-104 -87z" />
    <glyph glyph-name="Uogonek" unicode="&#x172;" horiz-adv-x="1725" 
d="M1284 -442q-59 -38 -139 -58t-153 -19q-120 1 -201 55t-81 155q0 54 24 99t61.5 80t83 60.5t88.5 41.5v6q-22 -1 -45 -2t-47 -1q-325 0 -486 144.5t-161 471.5v734q0 22 -11 36.5t-33 21.5l-100 28v151h741v-151l-159 -34q-22 -4 -34 -19t-12 -37v-762q0 -204 70 -320
t245 -116q92 0 154 32t99.5 89.5t53.5 137.5t16 175v767q0 23 -12 37.5t-34 18.5l-166 31v151h599v-151l-110 -28q-22 -6 -33.5 -21t-11.5 -37v-747q0 -183 -55 -312t-164 -198q-127 -82 -203.5 -153.5t-76.5 -143.5q0 -50 35 -73.5t91 -23.5q25 0 56 6t58 17z" />
    <glyph glyph-name="uogonek" unicode="&#x173;" horiz-adv-x="1447" 
d="M1375 -442q-58 -38 -136.5 -58t-150.5 -19q-119 1 -198.5 54.5t-79.5 157.5q0 51 23 97t60.5 83.5t87 66t101.5 46.5v1q-58 11 -100.5 42.5t-67.5 84.5q-63 -66 -146.5 -101.5t-208.5 -35.5q-178 0 -268 96.5t-90 296.5v511q0 22 -11 37.5t-33 20.5l-107 27v148
q52 12 111.5 22t120 16.5t120.5 9.5t112 3l48 -44v-704q0 -142 39 -192.5t121 -50.5q41 0 82 12.5t81 35.5v660q0 22 -11 38t-33 21l-114 27v148q53 12 113.5 21.5t122 15.5t122 9t113.5 3l48 -44v-893q0 -32 13.5 -45t38.5 -16l98 -12v-135q-16 -5 -39.5 -11t-51.5 -11
q-99 -37 -158.5 -98.5t-59.5 -124.5q0 -52 36 -76.5t90 -24.5q28 0 56 6t55 17z" />
    <glyph glyph-name="Wcircumflex" unicode="&#x174;" horiz-adv-x="2323" 
d="M1424 -6l-260 910l-245 -910h-340l-409 1337q-7 19 -19 32.5t-31 17.5l-132 30v151h732v-151l-172 -36l279 -1066l245 894l-43 128q-6 19 -18.5 31t-30.5 19l-91 30v151h711v-151l-198 -36l270 -1042l271 1042l-172 36v151h557v-151l-140 -30q-20 -4 -32.5 -16.5
t-18.5 -34.5l-373 -1336h-340zM829 1655l-97 111l320 326l221 10l344 -328l-102 -117l-355 201z" />
    <glyph glyph-name="wcircumflex" unicode="&#x175;" horiz-adv-x="1882" 
d="M446 -16l-310 942q-7 20 -19 30.5t-33 17.5l-73 23v141h608v-144l-139 -31l177 -636l214 811h290l225 -810l169 635l-146 31v144h453v-141l-73 -23q-20 -6 -33 -17t-20 -32l-286 -941h-280l-233 759l-205 -759h-286zM670 1263l-110 104l301 392l217 19l330 -404
l-116 -109l-323 252z" />
    <glyph glyph-name="Ycircumflex" unicode="&#x176;" horiz-adv-x="1511" 
d="M1198 0h-866v143l190 38q23 4 35 17.5t12 36.5v377l-413 727q-10 17 -23.5 27t-32.5 14l-124 31v151h761v-151l-157 -40l279 -540l260 541l-175 39v151h558v-151l-115 -29q-19 -4 -33 -13.5t-23 -27.5l-370 -729v-377q0 -23 12 -36.5t35 -17.5l190 -38v-143zM444 1655
l-97 111l320 326l221 10l344 -328l-102 -117l-355 201z" />
    <glyph glyph-name="ycircumflex" unicode="&#x177;" horiz-adv-x="1299" 
d="M325 -518q-69 0 -142.5 8.5t-133.5 19.5v169q115 18 206.5 38.5t164 54.5t129.5 88.5t103 139.5h-146l-356 920q-8 22 -22.5 34t-36.5 19l-76 24v141l666 -1v-144l-148 -32l229 -673l215 674l-142 32v144h455v-141l-76 -24q-24 -7 -37 -18.5t-21 -34.5l-331 -938
q-89 -251 -206.5 -375.5t-293.5 -124.5zM385 1263l-110 104l301 392l217 19l330 -404l-116 -109l-323 252z" />
    <glyph glyph-name="Ydieresis" unicode="&#x178;" horiz-adv-x="1511" 
d="M1198 0h-866v143l190 38q23 4 35 17.5t12 36.5v377l-413 727q-10 17 -23.5 27t-32.5 14l-124 31v151h761v-151l-157 -40l279 -540l260 541l-175 39v151h558v-151l-115 -29q-19 -4 -33 -13.5t-23 -27.5l-370 -729v-377q0 -23 12 -36.5t35 -17.5l190 -38v-143zM1226 1858
q0 -78 -45.5 -125.5t-121.5 -47.5t-122 47.5t-46 125.5t46 124.5t122 46.5t121.5 -46.5t45.5 -124.5zM688 1858q0 -78 -46 -125.5t-121 -47.5q-77 0 -123 47.5t-46 125.5t46 124.5t123 46.5q75 0 121 -46.5t46 -124.5z" />
    <glyph glyph-name="Zacute" unicode="&#x179;" horiz-adv-x="1426" 
d="M1283 0h-1161l-73 125l835 1289h-189q-62 0 -108.5 -6t-72.5 -16q-22 -9 -36 -24.5t-23 -40.5l-91 -278h-211q-4 126 4 261t30 255h1091l52 -128l-812 -1272h260q63 0 109.5 6t71.5 16q21 8 35.5 23.5t23.5 41.5l102 293l203 -27q1 -52 -1 -118.5t-7 -136t-13.5 -138
t-18.5 -125.5zM1173 1909q-54 -38 -129.5 -73t-158.5 -65.5t-169 -56.5t-161 -47l-63 126l530 340z" />
    <glyph glyph-name="zacute" unicode="&#x17a;" horiz-adv-x="1191" 
d="M1081 0h-964l-59 129l633 867h-133q-37 0 -77 -2.5t-68 -7.5q-24 -4 -39 -13.5t-22 -38.5l-49 -200h-164q-14 99 -18.5 206t2.5 198h932l55 -128l-620 -866h122q46 0 95.5 2.5t87.5 9.5q24 4 39 14.5t22 31.5l71 220l159 -18q11 -101 9 -203.5t-14 -200.5zM489 1251
l-91 109l396 453l197 -184q-38 -47 -92.5 -97t-120 -98t-139.5 -95t-150 -88z" />
    <glyph glyph-name="Zdotaccent" unicode="&#x17b;" horiz-adv-x="1426" 
d="M1283 0h-1161l-73 125l835 1289h-189q-62 0 -108.5 -6t-72.5 -16q-22 -9 -36 -24.5t-23 -40.5l-91 -278h-211q-4 126 4 261t30 255h1091l52 -128l-812 -1272h260q63 0 109.5 6t71.5 16q21 8 35.5 23.5t23.5 41.5l102 293l203 -27q1 -52 -1 -118.5t-7 -136t-13.5 -138
t-18.5 -125.5zM960 1886q0 -84 -54.5 -134t-145.5 -50t-146 50t-55 134t55 134t146 50t145.5 -50t54.5 -134z" />
    <glyph glyph-name="zdotaccent" unicode="&#x17c;" horiz-adv-x="1191" 
d="M1081 0h-964l-59 129l633 867h-133q-37 0 -77 -2.5t-68 -7.5q-24 -4 -39 -13.5t-22 -38.5l-49 -200h-164q-14 99 -18.5 206t2.5 198h932l55 -128l-620 -866h122q46 0 95.5 2.5t87.5 9.5q24 4 39 14.5t22 31.5l71 220l159 -18q11 -101 9 -203.5t-14 -200.5zM807 1480
q0 -83 -53 -132.5t-142 -49.5q-90 0 -143.5 49.5t-53.5 132.5q0 81 53.5 129.5t143.5 48.5q89 0 142 -48.5t53 -129.5z" />
    <glyph glyph-name="Zcaron" unicode="&#x17d;" horiz-adv-x="1426" 
d="M1283 0h-1161l-73 125l835 1289h-189q-62 0 -108.5 -6t-72.5 -16q-22 -9 -36 -24.5t-23 -40.5l-91 -278h-211q-4 126 4 261t30 255h1091l52 -128l-812 -1272h260q63 0 109.5 6t71.5 16q21 8 35.5 23.5t23.5 41.5l102 293l203 -27q1 -52 -1 -118.5t-7 -136t-13.5 -138
t-18.5 -125.5zM1104 2120l97 -111l-320 -326l-221 -10l-344 328l102 117l355 -201z" />
    <glyph glyph-name="zcaron" unicode="&#x17e;" horiz-adv-x="1191" 
d="M1081 0h-964l-59 129l633 867h-133q-37 0 -77 -2.5t-68 -7.5q-24 -4 -39 -13.5t-22 -38.5l-49 -200h-164q-14 99 -18.5 206t2.5 198h932l55 -128l-620 -866h122q46 0 95.5 2.5t87.5 9.5q24 4 39 14.5t22 31.5l71 220l159 -18q11 -101 9 -203.5t-14 -200.5zM918 1812
l110 -104l-301 -391l-217 -20l-329 404l115 109l323 -252z" />
    <glyph glyph-name="uni018F" unicode="&#x18f;" horiz-adv-x="1553" 
d="M720 -32q-137 0 -253.5 36.5t-200.5 111.5t-131 192t-47 276q0 60 6 118.5t11 72.5l939 -1q-4 149 -26.5 271.5t-66 208.5t-110 133.5t-156.5 47.5q-59 0 -103.5 -17.5t-69.5 -39.5q-22 -19 -31.5 -38.5t-13.5 -40.5l-51 -259h-221q-29 99 -41 212t-15 200
q99 65 242.5 102.5t298.5 37.5q175 0 320 -51t247 -152.5t158 -255t56 -356.5q0 -195 -52.5 -346.5t-148.5 -253.5t-233.5 -155.5t-306.5 -53.5zM744 124q76 0 130 34.5t89.5 96.5t54 150.5t24.5 195.5l-548 1q-3 -25 -5.5 -57.5t-2.5 -64.5q0 -70 13.5 -134.5t44 -113.5
t80 -78.5t120.5 -29.5z" />
    <glyph glyph-name="uni0192" unicode="&#x192;" horiz-adv-x="1196" 
d="M404 -342q-68 -72 -168.5 -121.5t-213.5 -80.5l-80 148q82 54 133.5 114.5t81.5 133.5t45.5 165.5t26.5 210.5l32 348l-168 31v136l187 34l6 50q13 108 69 213.5t140 187.5t190.5 133t221.5 51q63 0 130 -16t123 -50q-7 -112 -24.5 -206t-39.5 -187h-180l-21 166
q-2 19 -9 33.5t-20 24.5q-13 11 -30 16t-35 5q-66 0 -104 -53t-48 -170l-18 -201h301v-193h-314l-32 -353q-12 -130 -30.5 -224t-42.5 -160t-52 -110.5t-57 -75.5z" />
    <glyph glyph-name="uni01FC" unicode="&#x1fc;" horiz-adv-x="2144" 
d="M906 1392l-284 -674h378v674h-94zM591 144v-144h-611v144l152 33q19 4 31.5 16t19.5 31l498 1147l-255 41v150h1556q13 -105 14 -211.5t-8 -215.5h-178l-54 185q-7 26 -21.5 41t-36.5 24q-26 10 -72 16t-95 6h-169v-535l430 16v-204l-430 11v-532h211q49 0 102.5 6
t78.5 16q22 9 33 23.5t21 41.5l86 248l178 -28q-1 -120 -10 -234t-28 -236h-1236v144l156 29q23 4 34.5 18.5t11.5 37.5v319h-450l-158 -375zM1589 1909q-54 -38 -129.5 -73t-158.5 -65.5t-169 -56.5t-161 -47l-63 126l530 340z" />
    <glyph glyph-name="uni01FD" unicode="&#x1fd;" horiz-adv-x="1793" 
d="M1236 1019q-64 0 -110.5 -59t-59.5 -208h317q1 9 1 20.5v25.5q0 95 -36.5 158t-111.5 63zM1704 249q-21 -71 -67 -123t-108 -85.5t-138.5 -50t-157.5 -16.5q-149 0 -253 50.5t-167 140.5q-63 -88 -167.5 -138t-235.5 -50q-165 0 -255 77t-90 202q0 81 36.5 142.5
t97.5 103.5t141.5 65.5t167.5 27.5l204 12v110q0 118 -60.5 167t-163.5 49q-83 0 -162.5 -29.5t-144.5 -88.5l-82 71q49 134 176.5 207t299.5 73q113 0 190.5 -32t126.5 -90q67 59 160.5 91t212.5 32q115 0 200 -29.5t140 -80.5t81.5 -122.5t26.5 -155.5q0 -37 -5 -81.5
t-12 -79.5h-635q1 -227 69 -325t212 -98q78 0 156 28t128 84zM552 176q56 0 109.5 22.5t101.5 60.5q-19 47 -31 101t-16 113l-114 -7q-98 -6 -132.5 -54t-34.5 -111t27 -94t90 -31zM836 1251l-91 109l396 453l197 -184q-38 -47 -92.5 -97t-120 -98t-139.5 -95t-150 -88z" />
    <glyph glyph-name="Scommaaccent" unicode="&#x218;" horiz-adv-x="1322" 
d="M1237 442q0 -84 -32 -169.5t-102.5 -153t-185 -110t-276.5 -42.5q-155 0 -292 36t-236 83q-3 54 -1.5 113.5t5 117t10 111t14.5 97.5h215l39 -259q4 -23 13 -42t29 -35q30 -27 87 -52t126 -25q99 0 154.5 55t55.5 144q0 63 -26.5 112t-72 89t-107 75.5t-129.5 70.5
q-78 41 -151 83.5t-128 96t-88.5 125t-33.5 169.5t35.5 182.5t106 146t177.5 96.5t249 35q119 0 241 -23t212 -60q8 -99 1.5 -207.5t-22.5 -204.5h-209l-42 227q-6 29 -15.5 48t-27.5 32q-27 20 -70.5 32t-86.5 12q-90 0 -140.5 -50.5t-50.5 -132.5q0 -57 23 -100t65.5 -79
t104.5 -70t139 -74q86 -44 163 -93t134.5 -108t91.5 -132.5t34 -166.5zM796 -311q-3 -104 -77 -183t-175 -125l-76 84q34 25 61.5 58t27.5 65q0 31 -15 45.5t-29 25.5q-19 16 -36.5 39.5t-17.5 65.5q0 56 43 95.5t106 39.5q81 0 135.5 -59t52.5 -151z" />
    <glyph glyph-name="scommaaccent" unicode="&#x219;" horiz-adv-x="1119" 
d="M107 54q-10 80 -7.5 166t13.5 162h180l42 -148q10 -31 18.5 -48t27.5 -31q22 -15 61.5 -31t90.5 -16q75 0 115 39.5t40 90.5q0 41 -24 70.5t-65 55t-97.5 50.5t-120.5 56q-124 61 -201.5 137.5t-77.5 207.5q0 154 117 252.5t362 98.5q99 0 207.5 -18.5t186.5 -49.5
q7 -72 3 -154.5t-19 -157.5l-167 1l-44 139q-10 29 -20.5 44.5t-30.5 28.5q-25 16 -54 23t-60 8q-65 0 -105.5 -33t-40.5 -90q0 -38 20 -66.5t53 -51t77.5 -42t92.5 -40.5q72 -31 139 -65t117.5 -78t80.5 -102.5t30 -138.5q0 -89 -38 -156t-105 -111t-159.5 -66t-199.5 -22
q-128 0 -241.5 26.5t-196.5 59.5zM704 -311q-3 -104 -77 -183t-175 -125l-76 84q34 25 61.5 58t27.5 65q0 31 -15 45.5t-29 25.5q-19 16 -36.5 39.5t-17.5 65.5q0 56 43 95.5t106 39.5q81 0 135.5 -59t52.5 -151z" />
    <glyph glyph-name="uni021A" unicode="&#x21a;" horiz-adv-x="1610" 
d="M1280 0h-943v143l234 38q23 4 35.5 17.5t12.5 36.5v1172h-85q-40 0 -77 -5t-60 -14q-21 -8 -32 -21t-15 -32l-85 -345h-185q-17 154 -20.5 286t12.5 286h1472q16 -154 12.5 -288t-19.5 -284h-185l-89 346q-5 19 -16 31.5t-31 20.5q-23 10 -60 14.5t-77 4.5h-81v-1172
q0 -23 12.5 -36.5t35.5 -17.5l234 -38v-143zM981 -311q-3 -104 -77 -183t-175 -125l-76 84q34 25 61.5 58t27.5 65q0 31 -15 45.5t-29 25.5q-19 16 -36.5 39.5t-17.5 65.5q0 56 43 95.5t106 39.5q81 0 135.5 -59t52.5 -151z" />
    <glyph glyph-name="uni021B" unicode="&#x21b;" horiz-adv-x="949" 
d="M201 335v613l-154 28v131l125 26q27 5 40.5 18t22.5 38l111 316h200l13 -367h313v-185h-309v-537q0 -114 34 -157t101 -43q40 0 85.5 14.5t85.5 48.5l70 -79q-51 -111 -158.5 -164t-245.5 -53q-154 0 -244 74t-90 278zM666 -311q-3 -104 -77 -183t-175 -125l-76 84
q34 25 61.5 58t27.5 65q0 31 -15 45.5t-29 25.5q-19 16 -36.5 39.5t-17.5 65.5q0 56 43 95.5t106 39.5q81 0 135.5 -59t52.5 -151z" />
    <glyph glyph-name="dotlessj" unicode="&#x237;" horiz-adv-x="735" 
d="M525 1165l48 -44v-1021q0 -181 -44 -285.5t-128 -172.5q-80 -66 -190.5 -108t-229.5 -73l-63 150q174 87 235 191t61 279l1 797q0 22 -11 38t-33 20l-124 25v147q54 14 115.5 25t123.5 18t123.5 10.5t115.5 3.5z" />
    <glyph glyph-name="uni0259" unicode="&#x259;" horiz-adv-x="1180" 
d="M543 -26q-225 0 -345 115t-120 335q0 50 5.5 100t12.5 84h630q-12 169 -77.5 253.5t-209.5 84.5q-77 0 -143 -23t-115 -66l-81 76q60 111 179 172.5t281 61.5q134 0 235.5 -42.5t168.5 -119.5t100.5 -186.5t33.5 -242.5q0 -284 -145 -443t-410 -159zM562 122
q35 0 65.5 14.5t52.5 53t35.5 107.5t14.5 178h-313q-3 -19 -4.5 -41t-1.5 -51q0 -146 42.5 -203.5t108.5 -57.5z" />
    <glyph glyph-name="uni02BC" unicode="&#x2bc;" horiz-adv-x="752" 
d="M548 1566q0 -138 -91 -250t-240 -178l-68 91q62 44 101 97.5t39 102.5q0 31 -12 44.5t-32 30.5q-22 19 -42.5 49t-20.5 78q0 72 52 116t118 44q79 0 137.5 -60.5t58.5 -164.5z" />
    <glyph glyph-name="circumflex" unicode="&#x2c6;" horiz-adv-x="1000" 
d="M185 1263l-110 104l301 392l217 19l330 -404l-116 -109l-323 252z" />
    <glyph glyph-name="caron" unicode="&#x2c7;" horiz-adv-x="1000" 
d="M830 1812l110 -104l-301 -391l-217 -20l-329 404l115 109l323 -252z" />
    <glyph glyph-name="uni02C9" unicode="&#x2c9;" horiz-adv-x="1000" 
d="M132 1358v206h735v-206h-735z" />
    <glyph glyph-name="breve" unicode="&#x2d8;" horiz-adv-x="1000" 
d="M915 1634q-34 -149 -149 -242.5t-274 -93.5q-80 0 -150 25.5t-123 70t-88 106.5t-46 134l142 73q50 -90 120.5 -131t155.5 -41q86 0 158 41t129 131z" />
    <glyph glyph-name="dotaccent" unicode="&#x2d9;" horiz-adv-x="1000" 
d="M720 1480q0 -83 -53 -132.5t-142 -49.5q-90 0 -143.5 49.5t-53.5 132.5q0 81 53.5 129.5t143.5 48.5q89 0 142 -48.5t53 -129.5z" />
    <glyph glyph-name="ring" unicode="&#x2da;" horiz-adv-x="1000" 
d="M810 1531q0 -59 -24.5 -107t-67 -81.5t-100 -51.5t-122.5 -18q-149 0 -228 70.5t-79 192.5q0 59 25.5 106.5t68.5 80.5t101.5 51t125.5 18q152 0 226 -74t74 -187zM382 1537q0 -53 29.5 -91.5t88.5 -38.5q57 0 87 29.5t30 89.5q0 57 -28 94t-88 37q-57 0 -88 -29.5
t-31 -90.5z" />
    <glyph glyph-name="ogonek" unicode="&#x2db;" horiz-adv-x="1000" 
d="M782 -442q-58 -38 -136.5 -58t-150.5 -19q-119 1 -198.5 54.5t-79.5 157.5q0 102 86.5 183.5t218.5 126.5l102 35l129 -26q-116 -34 -188 -100.5t-72 -136.5q0 -52 36.5 -76.5t90.5 -24.5q27 0 55.5 6t54.5 17z" />
    <glyph glyph-name="tilde" unicode="&#x2dc;" horiz-adv-x="1000" 
d="M949 1597q-15 -60 -42.5 -115.5t-65.5 -97.5t-87 -67.5t-107 -25.5q-56 0 -102 22t-85 48.5t-75 48.5t-72 22q-46 0 -86 -38t-72 -92l-104 60q15 61 42 117t65 98t87 67.5t107 25.5q56 0 102 -22t85 -48.5t75 -48.5t72 -22q46 0 86 37.5t72 92.5z" />
    <glyph glyph-name="hungarumlaut" unicode="&#x2dd;" horiz-adv-x="1000" 
d="M273 1273l-115 87l254 463l220 -125q-30 -51 -72 -109t-90 -114.5t-99 -109t-98 -92.5zM705 1273l-110 93l279 453l213 -136q-32 -49 -77.5 -105.5t-96 -112t-104.5 -105.5t-104 -87z" />
    <glyph glyph-name="gravecomb" unicode="&#x300;" 
d="M-142 1813l382 -446l-97 -116q-149 82 -277.5 181.5t-204.5 196.5z" />
    <glyph glyph-name="acutecomb" unicode="&#x301;" 
d="M-99 1251l-91 109l396 453l197 -184q-38 -47 -92.5 -97t-120 -98t-139.5 -95t-150 -88z" />
    <glyph glyph-name="uni0302" unicode="&#x302;" 
d="M-315 1263l-110 104l301 392l217 19l330 -404l-116 -109l-323 252z" />
    <glyph glyph-name="tildecomb" unicode="&#x303;" 
d="M449 1597q-15 -60 -42.5 -115.5t-65.5 -97.5t-87 -67.5t-107 -25.5q-56 0 -102 22t-85 48.5t-75 48.5t-72 22q-46 0 -86 -38t-72 -92l-104 60q15 61 42 117t65 98t87 67.5t107 25.5q56 0 102 -22t85 -48.5t75 -48.5t72 -22q46 0 86 37.5t72 92.5z" />
    <glyph glyph-name="uni0304" unicode="&#x304;" 
d="M-368 1355v206h735v-206h-735z" />
    <glyph glyph-name="uni0306" unicode="&#x306;" 
d="M415 1634q-34 -149 -149 -242.5t-274 -93.5q-80 0 -150 25.5t-123 70t-88 106.5t-46 134l142 73q50 -90 120.5 -131t155.5 -41q86 0 158 41t129 131z" />
    <glyph glyph-name="uni0307" unicode="&#x307;" 
d="M220 1480q0 -83 -53 -132.5t-142 -49.5q-90 0 -143.5 49.5t-53.5 132.5q0 81 53.5 129.5t143.5 48.5q89 0 142 -48.5t53 -129.5z" />
    <glyph glyph-name="uni0308" unicode="&#x308;" 
d="M408 1483q0 -78 -45.5 -125t-121.5 -47t-122 47t-46 125t46 124.5t122 46.5t121.5 -46.5t45.5 -124.5zM-73 1483q0 -78 -46 -125t-121 -47q-77 0 -123 47t-46 125t46 124.5t123 46.5q75 0 121 -46.5t46 -124.5z" />
    <glyph glyph-name="uni030A" unicode="&#x30a;" 
d="M310 1531q0 -59 -24.5 -107t-67 -81.5t-100 -51.5t-122.5 -18q-149 0 -228 70.5t-79 192.5q0 59 25.5 106.5t68.5 80.5t101.5 51t125.5 18q152 0 226 -74t74 -187zM-118 1537q0 -53 29.5 -91.5t88.5 -38.5q57 0 87 29.5t30 89.5q0 57 -28 94t-88 37q-57 0 -88 -29.5
t-31 -90.5z" />
    <glyph glyph-name="uni030B" unicode="&#x30b;" 
d="M-227 1273l-115 87l254 463l220 -125q-30 -51 -72 -109t-90 -114.5t-99 -109t-98 -92.5zM205 1273l-110 93l279 453l213 -136q-32 -49 -77.5 -105.5t-96 -112t-104.5 -105.5t-104 -87z" />
    <glyph glyph-name="uni030C" unicode="&#x30c;" 
d="M330 1812l110 -104l-301 -391l-217 -20l-329 404l115 109l323 -252z" />
    <glyph glyph-name="uni0326" unicode="&#x326;" 
d="M176 -311q-3 -104 -77 -183t-175 -125l-76 84q34 25 61.5 58t27.5 65q0 31 -15 45.5t-29 25.5q-19 16 -36.5 39.5t-17.5 65.5q0 56 43 95.5t106 39.5q81 0 135.5 -59t52.5 -151z" />
    <glyph glyph-name="uni0327" unicode="&#x327;" 
d="M-55 51h117l-40 -140h31q89 -2 144 -51t55 -133q0 -114 -110 -184.5t-286 -70.5q-16 0 -32 0.5t-32 1.5l-19 115q101 10 152.5 44.5t51.5 83.5q0 43 -32.5 65t-84.5 24z" />
    <glyph glyph-name="uni0328" unicode="&#x328;" 
d="M282 -442q-58 -38 -136.5 -58t-150.5 -19q-119 1 -198.5 54.5t-79.5 157.5q0 102 86.5 183.5t218.5 126.5l102 35l129 -26q-116 -34 -188 -100.5t-72 -136.5q0 -52 36.5 -76.5t90.5 -24.5q27 0 55.5 6t54.5 17z" />
    <glyph glyph-name="uni0394" unicode="&#x394;" horiz-adv-x="1521" 
d="M1395 1h-1268l-66 169l521 1397h355l523 -1397zM296 220h754l-380 1081z" />
    <glyph glyph-name="uni03A9" unicode="&#x3a9;" horiz-adv-x="1984" 
d="M939 192l-96 -192h-715q-24 122 -37 244.5t-15 242.5l178 28l96 -230q11 -27 22.5 -41.5t32.5 -23.5q25 -9 77 -19t103 -11l108 -4q-95 48 -175.5 121.5t-138 164.5t-90 200t-32.5 227q0 159 58 288t159 218t240 137.5t299 48.5q154 0 287 -44.5t230 -128.5t152 -207
t55 -278q0 -122 -35 -234.5t-95 -208t-142 -173.5t-175 -131l103 4q61 1 109.5 11t72.5 19q19 8 30.5 21t25.5 44l101 230l177 -28q-4 -120 -20 -242.5t-41 -244.5h-684l-95 192q149 153 200.5 324t51.5 320q0 119 -21.5 224.5t-63 183.5t-105 123t-147.5 45
q-73 0 -131 -35.5t-97.5 -99.5t-61 -154.5t-21.5 -200.5q0 -173 56 -360.5t210 -369.5z" />
    <glyph glyph-name="uni03BC" unicode="&#x3bc;" horiz-adv-x="1438" 
d="M475 -440l-265 -100l-49 44q1 97 2.5 212.5t2.5 229.5t1.5 220t0.5 184q0 116 -1.5 213.5t-3.5 188t-4 182t-4 195.5l286 37l48 -44l-11 -558q0 -81 20 -138t51 -92.5t69 -52t74 -16.5q62 0 124 46.5t95 146.5l-8 671l274 37l48 -44l-30 -770q-4 -96 27 -128t75 -32h124
v-125q-50 -37 -121.5 -65t-131.5 -28q-90 0 -154 68t-81 199q-39 -127 -118 -197t-174 -70q-60 0 -121.5 33t-103.5 107z" />
    <glyph glyph-name="pi" unicode="&#x3c0;" horiz-adv-x="1488" 
d="M276 -47l-212 184l1 64q130 54 251 200t201 406l13 43h-100q-89 0 -142.5 -39t-96.5 -107l-127 58q48 196 150 284.5t297 89.5l893 4l49 -43l-75 -247h-265l-19 -485q-4 -78 13 -119t66 -41q30 0 79.5 13t95.5 34l47 -127q-35 -35 -80 -64t-93.5 -50t-99.5 -32.5
t-97 -11.5q-101 0 -156 58.5t-55 177.5q0 45 7.5 114.5t14.5 126.5l51 406h-178l-43 -227q-45 -229 -136.5 -395t-253.5 -275z" />
    <glyph glyph-name="Wgrave" unicode="&#x1e80;" horiz-adv-x="2323" 
d="M1424 -6l-260 910l-245 -910h-340l-409 1337q-7 19 -19 32.5t-31 17.5l-132 30v151h732v-151l-172 -36l279 -1066l245 894l-43 128q-6 19 -18.5 31t-30.5 19l-91 30v151h711v-151l-198 -36l270 -1042l271 1042l-172 36v151h557v-151l-140 -30q-20 -4 -32.5 -16.5
t-18.5 -34.5l-373 -1336h-340zM945 2143l510 -353l-72 -130q-74 24 -157 53t-162.5 62t-152.5 70.5t-126 77.5z" />
    <glyph glyph-name="wgrave" unicode="&#x1e81;" horiz-adv-x="1882" 
d="M446 -16l-310 942q-7 20 -19 30.5t-33 17.5l-73 23v141h608v-144l-139 -31l177 -636l214 811h290l225 -810l169 635l-146 31v144h453v-141l-73 -23q-20 -6 -33 -17t-20 -32l-286 -941h-280l-233 759l-205 -759h-286zM843 1813l382 -446l-97 -116q-149 82 -277.5 181.5
t-204.5 196.5z" />
    <glyph glyph-name="Wacute" unicode="&#x1e82;" horiz-adv-x="2323" 
d="M1424 -6l-260 910l-245 -910h-340l-409 1337q-7 19 -19 32.5t-31 17.5l-132 30v151h732v-151l-172 -36l279 -1066l245 894l-43 128q-6 19 -18.5 31t-30.5 19l-91 30v151h711v-151l-198 -36l270 -1042l271 1042l-172 36v151h557v-151l-140 -30q-20 -4 -32.5 -16.5
t-18.5 -34.5l-373 -1336h-340zM1589 1909q-54 -38 -129.5 -73t-158.5 -65.5t-169 -56.5t-161 -47l-63 126l530 340z" />
    <glyph glyph-name="wacute" unicode="&#x1e83;" horiz-adv-x="1882" 
d="M446 -16l-310 942q-7 20 -19 30.5t-33 17.5l-73 23v141h608v-144l-139 -31l177 -636l214 811h290l225 -810l169 635l-146 31v144h453v-141l-73 -23q-20 -6 -33 -17t-20 -32l-286 -941h-280l-233 759l-205 -759h-286zM886 1251l-91 109l396 453l197 -184
q-38 -47 -92.5 -97t-120 -98t-139.5 -95t-150 -88z" />
    <glyph glyph-name="Wdieresis" unicode="&#x1e84;" horiz-adv-x="2323" 
d="M1424 -6l-260 910l-245 -910h-340l-409 1337q-7 19 -19 32.5t-31 17.5l-132 30v151h732v-151l-172 -36l279 -1066l245 894l-43 128q-6 19 -18.5 31t-30.5 19l-91 30v151h711v-151l-198 -36l270 -1042l271 1042l-172 36v151h557v-151l-140 -30q-20 -4 -32.5 -16.5
t-18.5 -34.5l-373 -1336h-340zM1611 1858q0 -78 -45.5 -125.5t-121.5 -47.5t-122 47.5t-46 125.5t46 124.5t122 46.5t121.5 -46.5t45.5 -124.5zM1073 1858q0 -78 -46 -125.5t-121 -47.5q-77 0 -123 47.5t-46 125.5t46 124.5t123 46.5q75 0 121 -46.5t46 -124.5z" />
    <glyph glyph-name="wdieresis" unicode="&#x1e85;" horiz-adv-x="1882" 
d="M446 -16l-310 942q-7 20 -19 30.5t-33 17.5l-73 23v141h608v-144l-139 -31l177 -636l214 811h290l225 -810l169 635l-146 31v144h453v-141l-73 -23q-20 -6 -33 -17t-20 -32l-286 -941h-280l-233 759l-205 -759h-286zM1393 1483q0 -78 -45.5 -125t-121.5 -47t-122 47
t-46 125t46 124.5t122 46.5t121.5 -46.5t45.5 -124.5zM912 1483q0 -78 -46 -125t-121 -47q-77 0 -123 47t-46 125t46 124.5t123 46.5q75 0 121 -46.5t46 -124.5z" />
    <glyph glyph-name="uni1E9E" unicode="&#x1e9e;" horiz-adv-x="1760" 
d="M1142 -30q-56 0 -113.5 6.5t-111.5 17.5t-101.5 25.5t-82.5 30.5q-4 44 -2.5 97.5t6 108.5t11.5 110.5t16 105.5h211l35 -251q3 -23 9.5 -37t24.5 -27q19 -14 48 -24t60 -10q70 0 117 54t47 167q0 93 -32.5 161.5t-87 116.5t-126.5 80.5t-149 55.5l-34 64l283 498
q-58 50 -136 83.5t-150 33.5q-137 0 -207 -120t-70 -320v-997h-570v144l156 29q25 5 35.5 20.5t10.5 35.5v678q0 169 47 298t133 214t210 128.5t276 43.5q68 0 144 -8.5t153.5 -25t156 -40t150.5 -52.5l16 -72l-292 -429q89 -29 171.5 -75t145 -110t100 -149.5t37.5 -192.5
q0 -106 -38.5 -192.5t-109 -147.5t-172 -94t-225.5 -33z" />
    <glyph glyph-name="Ygrave" unicode="&#x1ef2;" horiz-adv-x="1511" 
d="M1198 0h-866v143l190 38q23 4 35 17.5t12 36.5v377l-413 727q-10 17 -23.5 27t-32.5 14l-124 31v151h761v-151l-157 -40l279 -540l260 541l-175 39v151h558v-151l-115 -29q-19 -4 -33 -13.5t-23 -27.5l-370 -729v-377q0 -23 12 -36.5t35 -17.5l190 -38v-143zM560 2143
l510 -353l-72 -130q-74 24 -157 53t-162.5 62t-152.5 70.5t-126 77.5z" />
    <glyph glyph-name="ygrave" unicode="&#x1ef3;" horiz-adv-x="1299" 
d="M325 -518q-69 0 -142.5 8.5t-133.5 19.5v169q115 18 206.5 38.5t164 54.5t129.5 88.5t103 139.5h-146l-356 920q-8 22 -22.5 34t-36.5 19l-76 24v141l666 -1v-144l-148 -32l229 -673l215 674l-142 32v144h455v-141l-76 -24q-24 -7 -37 -18.5t-21 -34.5l-331 -938
q-89 -251 -206.5 -375.5t-293.5 -124.5zM558 1813l382 -446l-97 -116q-149 82 -277.5 181.5t-204.5 196.5z" />
    <glyph glyph-name="enspace" unicode="&#x2002;" horiz-adv-x="1177" 
 />
    <glyph glyph-name="uni2003" unicode="&#x2003;" horiz-adv-x="1982" 
 />
    <glyph glyph-name="uni2009" unicode="&#x2009;" horiz-adv-x="357" 
 />
    <glyph glyph-name="endash" unicode="&#x2013;" horiz-adv-x="1434" 
d="M129 479v233h1177v-233h-1177z" />
    <glyph glyph-name="emdash" unicode="&#x2014;" horiz-adv-x="2239" 
d="M129 479v233h1982v-233h-1982z" />
    <glyph glyph-name="quoteleft" unicode="&#x2018;" horiz-adv-x="585" 
d="M72 1417q0 85 31.5 164t83.5 145t119 118.5t137 86.5l68 -85q-72 -63 -124.5 -137.5t-52.5 -140.5q0 -43 19.5 -56.5t47.5 -32.5q31 -22 56 -60t25 -94q0 -81 -52.5 -131.5t-136.5 -50.5q-97 0 -159 73t-62 201z" />
    <glyph glyph-name="quoteright" unicode="&#x2019;" horiz-adv-x="585" 
d="M523 1638q0 -86 -31.5 -164.5t-83.5 -145t-119 -119t-137 -86.5l-68 86q72 62 125 137t53 141q0 43 -20 56.5t-48 32.5q-31 22 -56 59.5t-25 93.5q0 81 52.5 131.5t136.5 50.5q97 0 159 -72.5t62 -200.5z" />
    <glyph glyph-name="quotesinglbase" unicode="&#x201a;" horiz-adv-x="636" 
d="M519 185q0 -86 -31.5 -164.5t-83.5 -145t-119 -119t-137 -86.5l-68 86q72 62 125 137t53 141q0 43 -20 56.5t-48 32.5q-31 22 -56 59.5t-25 93.5q0 81 52.5 131.5t136.5 50.5q97 0 159 -72.5t62 -200.5z" />
    <glyph glyph-name="quotedblleft" unicode="&#x201c;" horiz-adv-x="1070" 
d="M557 1417q0 85 31.5 164t83.5 145t119 118.5t137 86.5l68 -85q-72 -63 -124.5 -137.5t-52.5 -140.5q0 -43 19.5 -56.5t47.5 -32.5q31 -22 56 -60t25 -94q0 -81 -52.5 -131.5t-136.5 -50.5q-97 0 -159 73t-62 201zM72 1417q0 85 31.5 164t83.5 145t119 118.5t137 86.5
l68 -85q-72 -63 -124.5 -137.5t-52.5 -140.5q0 -43 19.5 -56.5t47.5 -32.5q31 -22 56 -60t25 -94q0 -81 -52.5 -131.5t-136.5 -50.5q-97 0 -159 73t-62 201z" />
    <glyph glyph-name="quotedblright" unicode="&#x201d;" horiz-adv-x="1070" 
d="M523 1638q0 -86 -31.5 -164.5t-83.5 -145t-119 -119t-137 -86.5l-68 86q72 62 125 137t53 141q0 43 -20 56.5t-48 32.5q-31 22 -56 59.5t-25 93.5q0 81 52.5 131.5t136.5 50.5q97 0 159 -72.5t62 -200.5zM1008 1638q0 -86 -31.5 -164.5t-83.5 -145t-119 -119t-137 -86.5
l-68 86q72 62 125 137t53 141q0 43 -20 56.5t-48 32.5q-31 22 -56 59.5t-25 93.5q0 81 52.5 131.5t136.5 50.5q97 0 159 -72.5t62 -200.5z" />
    <glyph glyph-name="quotedblbase" unicode="&#x201e;" horiz-adv-x="1121" 
d="M519 185q0 -86 -31.5 -164.5t-83.5 -145t-119 -119t-137 -86.5l-68 86q72 62 125 137t53 141q0 43 -20 56.5t-48 32.5q-31 22 -56 59.5t-25 93.5q0 81 52.5 131.5t136.5 50.5q97 0 159 -72.5t62 -200.5zM1004 185q0 -86 -31.5 -164.5t-83.5 -145t-119 -119t-137 -86.5
l-68 86q72 62 125 137t53 141q0 43 -20 56.5t-48 32.5q-31 22 -56 59.5t-25 93.5q0 81 52.5 131.5t136.5 50.5q97 0 159 -72.5t62 -200.5z" />
    <glyph glyph-name="dagger" unicode="&#x2020;" horiz-adv-x="999" 
d="M575 -255h-151l-82 1244q-4 16 -14 26.5t-27 15.5l-241 66v144l266 -9l-16 248v191h379v-191l-16 -248l265 9v-144l-239 -66q-17 -5 -27.5 -15.5t-14.5 -26.5z" />
    <glyph glyph-name="daggerdbl" unicode="&#x2021;" horiz-adv-x="1027" 
d="M588 -255h-151l-51 780q-4 17 -14.5 28.5t-28.5 16.5l-270 77v144l296 -10l-14 208q-4 16 -14 26.5t-27 15.5l-241 66v144l266 -9l-16 248v191h379v-191l-16 -248l265 9v-144l-239 -66q-17 -5 -27.5 -15.5t-14.5 -26.5l-14 -208l295 10v-144l-269 -77q-19 -5 -29 -16.5
t-14 -28.5z" />
    <glyph glyph-name="bullet" unicode="&#x2022;" horiz-adv-x="959" 
d="M769 633q0 -124 -79 -198.5t-211 -74.5q-131 0 -210 74.5t-79 198.5t79 198t210 74q132 0 211 -74t79 -198z" />
    <glyph glyph-name="ellipsis" unicode="&#x2026;" horiz-adv-x="1872" 
d="M513 168q0 -84 -55 -134t-146 -50t-146 50t-55 134t55 134t146 50t146 -50t55 -134zM1761 168q0 -84 -55 -134t-146 -50t-146 50t-55 134t55 134t146 50t146 -50t55 -134zM1137 168q0 -84 -55 -134t-146 -50t-146 50t-55 134t55 134t146 50t146 -50t55 -134z" />
    <glyph glyph-name="perthousand" unicode="&#x2030;" horiz-adv-x="3015" 
d="M903 1143q0 -113 -35 -199.5t-94 -143.5t-137 -86t-164 -29q-192 0 -298 118.5t-106 311.5q0 113 35 199.5t94 143.5t137.5 86t164.5 29q191 0 297 -118.5t106 -311.5zM671 0h-237l969 1562h237zM353 1146q0 -165 36.5 -244t104.5 -79q61 0 92.5 68.5t31.5 220.5
q0 164 -36 243.5t-105 79.5q-61 0 -92.5 -68.5t-31.5 -220.5zM2948 445q0 -114 -35 -200.5t-94 -143.5t-137 -86t-164 -29q-192 0 -298 118.5t-106 311.5q0 114 35 200t94 143t137.5 86t164.5 29q191 0 297 -118t106 -311zM2004 445q0 -114 -35 -200.5t-94 -143.5t-137 -86
t-164 -29q-192 0 -298 118.5t-106 311.5q0 114 35 200t94 143t137.5 86t164.5 29q191 0 297 -118t106 -311zM2398 447q0 -164 36.5 -243.5t104.5 -79.5q61 0 92.5 68.5t31.5 221.5q0 163 -36 242.5t-105 79.5q-61 0 -92.5 -68t-31.5 -221zM1454 447q0 -164 36.5 -243.5
t104.5 -79.5q61 0 92.5 68.5t31.5 221.5q0 163 -36 242.5t-105 79.5q-61 0 -92.5 -68t-31.5 -221z" />
    <glyph glyph-name="minute" unicode="&#x2032;" horiz-adv-x="562" 
d="M322 1114h-227l99 679h324z" />
    <glyph glyph-name="second" unicode="&#x2033;" horiz-adv-x="1087" 
d="M322 1114h-227l99 679h324zM847 1114h-227l99 679h324z" />
    <glyph glyph-name="guilsinglleft" unicode="&#x2039;" horiz-adv-x="851" 
d="M667 74l-596 456v160l596 464l101 -125l-315 -420l316 -413z" />
    <glyph glyph-name="guilsinglright" unicode="&#x203a;" horiz-adv-x="851" 
d="M184 74l-102 122l316 413l-315 420l101 125l596 -464v-160z" />
    <glyph glyph-name="fraction" unicode="&#x2044;" horiz-adv-x="397" 
d="M-167 0h-238l969 1562h237z" />
    <glyph glyph-name="foursuperior" unicode="&#x2074;" horiz-adv-x="1040" 
d="M976 812h-169v-188h-251l-1 188h-426l-83 109q115 176 213 354t177 354h243l38 -49q-71 -136 -130.5 -236.5t-111.5 -173.5t-99.5 -125t-94.5 -93l280 17l44 236h202v-221l169 11v-183z" />
    <glyph glyph-name="Euro" unicode="&#x20ac;" horiz-adv-x="1524" 
d="M1375 52q-46 -19 -103.5 -33.5t-118 -24t-122 -14t-115.5 -4.5q-264 0 -414 122t-190 359h-236v142h222q-1 13 -1 26.5v26.5q0 26 1 51t3 49h-209v142h228q54 258 224 381.5t421 123.5q103 0 216 -19.5t208 -55.5q7 -87 1 -185.5t-23 -208.5h-201l-46 196
q-10 41 -21 61.5t-31 35.5q-24 17 -58.5 26.5t-71.5 9.5q-104 0 -165 -85t-79 -280h362v-142h-370q-1 -16 -1 -32v-32v-45.5t1 -43.5h354v-142h-344q19 -167 75 -254t158 -87q44 0 84.5 17t62.5 37q13 12 23 29t17 39l71 200l205 -17q5 -78 1.5 -173t-18.5 -196z" />
    <glyph glyph-name="uni20B9" unicode="&#x20b9;" horiz-adv-x="1308" 
d="M1151 131v-131h-396q-43 0 -73.5 47.5t-60.5 119.5l-88 213q-24 58 -50 99.5t-77 59.5h-287v143h220q120 0 181.5 47.5t74.5 163.5h-476v135h478q-7 113 -64.5 161.5t-199.5 48.5h-214v143h1083v-135h-310q48 -37 74.5 -91.5t31.5 -126.5h192v-135h-198
q-19 -104 -85.5 -179t-183.5 -108q78 -27 121.5 -83.5t68.5 -114.5l87 -195q13 -28 25.5 -40t35.5 -18z" />
    <glyph glyph-name="uni20BA" unicode="&#x20ba;" horiz-adv-x="1424" 
d="M577 0h-251v489l-227 -96v150l227 96v149l-226 -96v150l226 96v443h357v-291l309 131v-150l-309 -131v-150l308 131v-150l-308 -131v-443q181 0 250.5 110t69.5 317l339 39q2 -17 4 -41.5t2 -52.5q0 -128 -43 -233t-135 -179.5t-239.5 -115.5t-353.5 -41z" />
    <glyph glyph-name="uni20BD" unicode="&#x20bd;" horiz-adv-x="1484" 
d="M708 1238v-479h82q108 0 179 61.5t71 201.5q0 122 -55 175.5t-154 53.5q-38 0 -71 -5.5t-52 -7.5zM991 144v-144h-829v144l160 30q19 4 31 17.5t12 32.5v112h-231v138h231v147h-231v138h231v389q0 18 -11.5 31.5t-28.5 17.5l-163 33v151h380q52 0 148.5 5.5t195.5 4.5
q275 -3 401.5 -87t126.5 -266q0 -196 -145.5 -306.5t-427.5 -110.5h-133v-147h434v-138h-434v-112q0 -19 16 -33t29 -15z" />
    <glyph glyph-name="uni2113" unicode="&#x2113;" horiz-adv-x="1196" 
d="M642 -24q-110 0 -191 53.5t-132 154.5q-46 -29 -96.5 -57t-103.5 -55l-69 135q57 31 111 64.5t104 67.5q-14 63 -21.5 136t-7.5 154q0 225 52.5 418t138.5 332.5t199 218.5t232 79q133 0 211.5 -96.5t78.5 -264.5q0 -104 -33 -221.5t-102 -239t-177 -246t-255 -242.5
q28 -81 71 -121t94 -40q61 0 115.5 49t94.5 118l105 -61q-54 -149 -162 -242.5t-257 -93.5zM533 731q0 -43 1.5 -83t5.5 -77q138 149 213.5 328t75.5 393q0 110 -21 163t-58 53q-45 0 -84.5 -70t-69 -181t-46.5 -250t-17 -276z" />
    <glyph glyph-name="trademark" unicode="&#x2122;" horiz-adv-x="2366" 
d="M782 740h-536v88l101 20q18 4 28 14.5t10 29.5v561h-80q-22 0 -34 -9t-17 -27l-48 -173h-105q-6 92 -2.5 169.5t15.5 148.5h794q8 -71 9 -151.5t-4 -166.5h-104l-40 171q-4 19 -15.5 28.5t-34.5 9.5h-85v-560q0 -19 10.5 -30t28.5 -15l109 -20v-88zM1919 846l-66 557
l-200 -665h-171l-216 677l-73 -569l107 -18v-88h-348v88l71 19q16 4 25 11.5t13 32.5l73 515q3 19 -7.5 29.5t-30.5 14.5l-77 15v97h455l148 -516l153 516h418v-97l-70 -14q-19 -4 -29 -15.5t-8 -30.5l65 -513q3 -18 13 -29t27 -15l68 -20v-88h-444v88z" />
    <glyph glyph-name="uni2126" unicode="&#x2126;" horiz-adv-x="1985" 
d="M937 192l-96 -192h-715q-24 122 -37 244.5t-15 242.5l178 28l96 -230q11 -27 22.5 -41.5t32.5 -23.5q25 -9 77 -19t103 -11l108 -4q-95 48 -175.5 121.5t-138 164.5t-90 200t-32.5 227q0 159 58 288t159 218t240 137.5t299 48.5q154 0 287 -44.5t230 -128.5t152 -207
t55 -278q0 -122 -35 -234.5t-95 -208t-142 -173.5t-175 -131l103 4q61 1 109.5 11t72.5 19q19 8 30.5 21t25.5 44l101 230l177 -28q-4 -120 -20 -242.5t-41 -244.5h-684l-95 192q149 153 200.5 324t51.5 320q0 119 -21.5 224.5t-63 183.5t-105 123t-147.5 45
q-73 0 -131 -35.5t-97.5 -99.5t-61 -154.5t-21.5 -200.5q0 -173 56 -360.5t210 -369.5z" />
    <glyph glyph-name="estimated" unicode="&#x212e;" horiz-adv-x="1393" 
d="M485 1146v-376h458v405q-31 26 -86.5 41.5t-117.5 15.5q-72 0 -140.5 -22t-113.5 -64zM1222 98q-70 -53 -187.5 -92t-260.5 -39q-156 0 -282 52t-214 144.5t-135.5 223.5t-47.5 287q0 149 44 277.5t127 221.5t205 146.5t278 53.5q251 0 401.5 -142t159.5 -402
q0 -63 -1.5 -114.5t-10.5 -89.5l-813 1v-403q48 -47 129.5 -74t179.5 -27q123 0 214 34t143 71z" />
    <glyph glyph-name="uni2190" unicode="&#x2190;" horiz-adv-x="1567" 
d="M862 339l-159 -158l-604 604l604 604l159 -158l-346 -344l166 18h752l-1 -238h-751l-166 17z" />
    <glyph glyph-name="uni2191" unicode="&#x2191;" horiz-adv-x="1567" 
d="M903 879v-750h-238v750l18 168l-346 -347l-158 159l603 604l1 -1v1l605 -604l-158 -159l-345 346z" />
    <glyph glyph-name="uni2192" unicode="&#x2192;" horiz-adv-x="1548" 
d="M854 181l-159 158l346 345l-166 -17h-751l-1 238h752l166 -18l-346 344l159 158l604 -604z" />
    <glyph glyph-name="uni2193" unicode="&#x2193;" horiz-adv-x="1567" 
d="M783 145v1l-1 -1l-603 604l158 159l346 -347l-18 168v750h238v-750l-18 -167l345 346l158 -159z" />
    <glyph glyph-name="uni2194" unicode="&#x2194;" horiz-adv-x="2609" 
d="M2528 785l-605 -604l-159 158l346 345l-167 -17h-1261l-166 17l346 -345l-159 -158l-604 604l604 604l159 -158l-346 -344l166 18h1261l166 -18l-345 344l159 158z" />
    <glyph glyph-name="uni2195" unicode="&#x2195;" horiz-adv-x="1567" 
d="M783 1992l604 -604l-158 -159l-344 346l17 -167v-1260l-17 -167l344 346l158 -160l-604 -603l-604 603l158 160l345 -346l-18 167v1260l18 167l-345 -346l-158 159z" />
    <glyph glyph-name="partialdiff" unicode="&#x2202;" horiz-adv-x="1359" 
d="M560 -24q-230 0 -355 130t-125 349q0 137 47 244.5t127 179.5t187.5 110t226.5 38q63 0 125.5 -12t117.5 -39q-12 105 -40 208t-78 183.5t-125.5 130.5t-181.5 50q-65 0 -126.5 -20t-116.5 -57l-69 114q70 83 185 135t264 52q153 0 275.5 -57.5t206 -164t128.5 -260.5
t45 -345q0 -185 -43.5 -360.5t-131.5 -310t-224 -216.5t-319 -82zM651 181q77 0 129 59t83 149t44 198.5t13 206.5q-44 35 -97 50.5t-104 15.5q-64 0 -113.5 -28.5t-83 -77.5t-51 -115.5t-17.5 -141.5q0 -61 12 -118t36 -101t61.5 -70.5t87.5 -26.5z" />
    <glyph glyph-name="uni2206" unicode="&#x2206;" horiz-adv-x="1522" 
d="M1395 1h-1268l-66 169l521 1397h355l523 -1397zM296 220h754l-380 1081z" />
    <glyph glyph-name="product" unicode="&#x220f;" horiz-adv-x="1772" 
d="M1492 1326v-1331q0 -23 11.5 -37.5t34.5 -18.5l156 -29v-144h-718v144l93 27q22 7 33 21.5t11 36.5v1402h-454v-1402q0 -23 11 -37.5t33 -20.5l106 -27v-144h-731v144l156 29q23 4 34.5 18.5t11.5 37.5v1330q0 23 -11.5 37.5t-34.5 18.5l-156 30v151h1616v-151l-156 -29
q-23 -4 -34.5 -18.5t-11.5 -37.5z" />
    <glyph glyph-name="summation" unicode="&#x2211;" horiz-adv-x="1462" 
d="M1364 330q-1 -131 -11.5 -277t-29.5 -287h-1205l-52 115l548 750l-535 807l62 124h1135q14 -105 18 -225t-8 -254h-178l-71 235q-9 28 -23 43t-36 24q-25 10 -70.5 16t-96.5 6h-273l412 -647l-551 -772h466q51 0 103.5 7t77.5 17q22 10 33 26t20 44l89 283z" />
    <glyph glyph-name="minus" unicode="&#x2212;" horiz-adv-x="1177" 
d="M133 499v227h911v-227h-911z" />
    <glyph glyph-name="uni2215" unicode="&#x2215;" horiz-adv-x="397" 
d="M-167 0h-238l969 1562h237z" />
    <glyph glyph-name="bulletoperator" unicode="&#x2219;" horiz-adv-x="985" 
d="M706 612q0 -93 -58.5 -150t-154.5 -57t-154.5 57t-58.5 150q0 94 58.5 150.5t154.5 56.5t154.5 -56.5t58.5 -150.5z" />
    <glyph glyph-name="radical" unicode="&#x221a;" horiz-adv-x="1537" 
d="M570 -391l-317 784q-11 28 -29.5 34.5t-46.5 0.5l-162 -31l-53 127q41 34 103 71.5t129.5 71.5t133.5 61.5t116 42.5l65 -36l271 -785l544 1920h239l-688 -2224z" />
    <glyph glyph-name="infinity" unicode="&#x221e;" horiz-adv-x="1979" 
d="M1380 135q-131 0 -236 65.5t-224 214.5q-69 -113 -180 -193t-255 -80q-86 0 -158 30.5t-123 85.5t-79.5 131.5t-28.5 167.5q0 105 38 196.5t105 158.5t159.5 105.5t200.5 38.5q131 0 235.5 -65.5t223.5 -214.5q69 113 180.5 193t255.5 80q86 0 158 -30.5t123 -85.5
t79.5 -131.5t28.5 -167.5q0 -105 -38 -196.5t-105 -158.5t-159.5 -105.5t-200.5 -38.5zM586 379q61 0 125.5 31.5t133.5 101.5q-121 155 -201 248t-161 93q-63 0 -105 -55.5t-42 -142.5q0 -57 18.5 -107.5t51.5 -88t79.5 -59t100.5 -21.5zM1496 338q63 0 105 55.5t42 142.5
q0 57 -18.5 107.5t-51.5 88t-79.5 59t-101.5 21.5q-61 0 -125.5 -31.5t-132.5 -101.5q120 -154 200.5 -247.5t161.5 -93.5z" />
    <glyph glyph-name="integral" unicode="&#x222b;" horiz-adv-x="980" 
d="M803 1q0 -133 -40 -233.5t-107 -167t-154.5 -100t-181.5 -33.5q-98 0 -186 33.5t-146 92.5l78 124q45 -24 85.5 -36t80.5 -12q81 0 138.5 60.5t57.5 215.5q0 131 -39 308t-86 362t-86 366t-39 319q0 133 40 234t107 167.5t154.5 100t181.5 33.5q96 0 184.5 -33.5
t146.5 -92.5l-78 -124q-45 24 -85 36t-80 12q-81 0 -138.5 -61t-57.5 -215q0 -131 39 -308t86 -362.5t86 -366.5t39 -319z" />
    <glyph glyph-name="approxequal" unicode="&#x2248;" horiz-adv-x="1309" 
d="M1184 475q-57 -136 -152 -211.5t-198 -75.5q-59 0 -115 21.5t-108 47t-101 47t-96 21.5q-60 0 -111.5 -36.5t-94.5 -86.5l-100 79q57 137 152 212t199 75q59 0 114.5 -21.5t107.5 -46.5t101 -46.5t96 -21.5q60 0 112 36t95 86zM1184 943q-57 -136 -152 -211.5t-198 -75.5
q-59 0 -115 21.5t-108 47t-101 47t-96 21.5q-60 0 -111.5 -36.5t-94.5 -86.5l-100 79q57 137 152 212t199 75q59 0 114.5 -21.5t107.5 -46.5t101 -46.5t96 -21.5q60 0 112 36t95 86z" />
    <glyph glyph-name="notequal" unicode="&#x2260;" horiz-adv-x="1139" 
d="M1039 272h-517l-96 -243h-179l96 243h-243v227h333l90 227h-423v227h513l100 253h179l-100 -253h247v-227h-337l-90 -227h427v-227z" />
    <glyph glyph-name="lessequal" unicode="&#x2264;" horiz-adv-x="1167" 
d="M943 338l-837 401v189l837 402l94 -222l-649 -272l649 -273zM1045 0h-919v218h919v-218z" />
    <glyph glyph-name="greaterequal" unicode="&#x2265;" horiz-adv-x="1167" 
d="M223 338l-93 222l650 271l-650 273l93 226l838 -402v-189zM1041 0h-919v218h919v-218z" />
    <glyph glyph-name="uni25CA" unicode="&#x25ca;" horiz-adv-x="1247" 
d="M624 -31l-436 607l-131 195l436 595l134 181l430 -592l130 -189l-429 -610zM625 391l16 21l242 356l-14 22l-242 339l-17 -21l-241 -339l14 -26z" />
    <glyph glyph-name="NULL" 
 />
    <glyph glyph-name="uni0302.case" 
d="M-346 1655l-97 111l320 326l221 10l344 -328l-102 -117l-355 201z" />
    <glyph glyph-name="uni0302.narrow" 
d="M-275 1264l-110 98l261 392l217 19l290 -404l-116 -103l-283 256z" />
    <glyph glyph-name="uni030C.case" 
d="M345 2120l97 -111l-320 -326l-221 -10l-344 328l102 117l355 -201z" />
    <glyph glyph-name="uni030C.calt" 
d="M270 1287l-148 31l39 570l267 -30q-10 -71 -26.5 -146.5t-37 -149t-45 -144t-49.5 -131.5z" />
    <glyph glyph-name="uni0304.case" 
d="M-385 1746v206h769v-206h-769z" />
    <glyph glyph-name="uni0304.narrow" 
d="M-338 1355v206h675v-206h-675z" />
    <glyph glyph-name="uni0306.case" 
d="M424 2013q-38 -142 -153 -234.5t-275 -92.5q-82 0 -153 25.5t-125.5 69t-91 103.5t-50.5 129l142 75q53 -89 129 -127t160 -38q85 0 161 38.5t132 126.5z" />
    <glyph glyph-name="uni0306.narrow" 
d="M395 1634q-40 -149 -146 -242.5t-257 -93.5q-76 0 -141 25.5t-114.5 70t-83 106.5t-48.5 134l142 68q46 -90 111.5 -131t144.5 -41q80 0 147 41t120 131z" />
    <glyph glyph-name="uni0308.case" 
d="M436 1858q0 -78 -45.5 -125.5t-121.5 -47.5t-122 47.5t-46 125.5t46 124.5t122 46.5t121.5 -46.5t45.5 -124.5zM-102 1858q0 -78 -46 -125.5t-121 -47.5q-77 0 -123 47.5t-46 125.5t46 124.5t123 46.5q75 0 121 -46.5t46 -124.5z" />
    <glyph glyph-name="acutecomb.case" 
d="M414 1910q-54 -38 -129.5 -73t-158.5 -65.5t-169 -56.5t-161 -47l-63 126l530 340z" />
    <glyph glyph-name="gravecomb.case" 
d="M-230 2144l510 -353l-72 -130q-74 24 -157 53t-162.5 62t-152.5 70.5t-126 77.5z" />
    <glyph glyph-name="uni0307.case" 
d="M201 1886q0 -84 -54.5 -134t-145.5 -50t-146 50t-55 134t55 134t146 50t145.5 -50t54.5 -134z" />
    <glyph glyph-name="uni030A.case" 
d="M320 1911q0 -62 -25.5 -111.5t-69 -84t-102.5 -53.5t-127 -19q-153 0 -235 73t-82 200q0 61 26 110.5t70.5 84t105 53t129.5 18.5q157 0 233.5 -76.5t76.5 -194.5zM-124 1917q0 -55 30.5 -95.5t93.5 -40.5q60 0 91.5 31t31.5 94q0 60 -29.5 98.5t-92.5 38.5
q-60 0 -92.5 -31t-32.5 -95z" />
    <glyph glyph-name="uni030A.case.low" 
d="M320 1792q0 -62 -25.5 -111.5t-69 -84t-102.5 -53.5t-127 -19q-153 0 -235 73t-82 200q0 61 26 110.5t70.5 84t105 53t129.5 18.5q157 0 233.5 -76.5t76.5 -194.5zM-128 1798q0 -57 31.5 -98.5t96.5 -41.5q61 0 94 31.5t33 97.5q0 61 -30.5 101t-95.5 40q-62 0 -95.5 -32
t-33.5 -98z" />
    <glyph glyph-name="tildecomb.case" 
d="M465 1985q-15 -58 -43.5 -112t-67.5 -95t-89.5 -65.5t-109.5 -24.5t-107.5 21t-89.5 45.5t-78 45.5t-75 21q-49 0 -90 -35t-75 -87l-106 59q16 58 44 112t67.5 94.5t90 65t109.5 24.5t107 -20.5t89 -45.5t78.5 -45.5t75.5 -20.5q48 0 89.5 34.5t75.5 86.5z" />
    <glyph glyph-name="tildecomb.narrow" 
d="M422 1597q-15 -60 -42 -115.5t-64.5 -97.5t-85 -67.5t-103.5 -25.5q-50 0 -90 22t-75 48.5t-66 48.5t-63 22q-43 0 -80.5 -35.5t-67.5 -84.5l-107 50q15 61 41.5 117t64 98t85 67.5t103.5 25.5q50 0 90 -22t75 -48.5t66 -48.5t63 -22q43 0 80.5 34.5t67.5 85.5z" />
    <glyph glyph-name="uni030B.case" 
d="M-284 1647l-105 100l310 396l205 -164q-39 -43 -89.5 -87.5t-104.5 -87t-110 -83t-106 -74.5zM179 1648l-95 107l340 387l191 -178q-42 -40 -95.5 -83.5t-111 -85t-117 -80t-112.5 -67.5z" />
    <glyph glyph-name="uni0312" 
d="M-164 1507q3 104 76.5 183t174.5 125l77 -84q-34 -25 -61.5 -58t-27.5 -65q0 -31 15 -45.5t29 -25.5q19 -16 36 -39.5t17 -65.5q0 -56 -42.5 -95.5t-105.5 -39.5q-81 0 -136 59t-52 151z" />
    <glyph glyph-name="Iacute_J.NLD" horiz-adv-x="1866" 
d="M873 1562v-151l-156 -30q-23 -5 -34.5 -19.5t-11.5 -37.5v-1094q0 -23 11.5 -37.5t34.5 -18.5l156 -30v-144h-784v144l156 29q23 4 34.5 18.5t11.5 37.5v1095q0 23 -11.5 37.5t-34.5 19.5l-156 30v151h784zM895 1909q-54 -38 -129.5 -73t-158.5 -65.5t-169 -56.5
t-161 -47l-63 126l530 340zM1655 1381q-23 -6 -34.5 -20t-11.5 -37v-973q0 -174 -26.5 -298.5t-95.5 -213.5t-191 -151t-311 -111l-64 152q100 52 161 102.5t93.5 114t43 149.5t10.5 209v1020q0 23 -12 37.5t-34 19.5l-156 30v151h764v-151zM1823 1910q-54 -38 -129.5 -73
t-158.5 -65.5t-169 -56.5t-161 -47l-63 126l530 340z" />
    <glyph glyph-name="iacute_j.NLD" horiz-adv-x="1538" 
d="M596 1121v-902q0 -23 12.5 -37.5t34.5 -18.5l108 -20v-143h-671v143l108 20q22 4 34.5 18.5t12.5 37.5v659q0 22 -11 38t-33 20l-122 25v147q54 14 115.5 25t124 18t124 10.5t115.5 3.5zM275 1251l-91 109l396 453l197 -184q-38 -47 -92.5 -97t-120 -98t-139.5 -95
t-150 -88zM1326 1165l48 -44v-1021q0 -181 -44 -285.5t-128 -172.5q-80 -66 -190.5 -108t-229.5 -73l-63 150q174 87 235 191t61 279l1 797q0 22 -11 38t-33 20l-124 25v147q54 14 115.5 25t123.5 18t123.5 10.5t115.5 3.5zM1037 1251l-91 109l396 453l197 -184
q-38 -47 -92.5 -97t-120 -98t-139.5 -95t-150 -88z" />
    <glyph glyph-name="zero.tf" horiz-adv-x="1265" 
d="M613 -31q-157 0 -265.5 53t-175.5 147t-96.5 224t-29.5 283q0 190 45 329.5t125 229.5t192 133.5t244 43.5q156 0 265 -52.5t175.5 -145.5t96.5 -222.5t30 -282.5q0 -191 -45 -331t-125 -230.5t-192 -134.5t-244 -44zM628 1257q-93 0 -139 -115.5t-46 -400.5
q0 -334 45 -475t149 -141q92 0 138.5 116.5t46.5 403.5q0 333 -45 472.5t-149 139.5z" />
    <glyph glyph-name="one.tf" horiz-adv-x="1265" 
d="M854 1383v-1154q0 -23 12 -37t34 -18l193 -33v-141h-876v141l238 34q23 3 35.5 17.5t12.5 37.5v838q-23 -4 -56 -8.5t-69 -8.5t-71.5 -6.5t-63.5 -2.5l-26 150q59 14 124.5 39t127 55t115 63t89.5 64z" />
    <glyph glyph-name="two.tf" horiz-adv-x="1265" 
d="M1120 0h-987l-66 187q173 146 294.5 255.5t196.5 195t109.5 156.5t34.5 141q0 104 -62.5 157t-145.5 53q-75 0 -144.5 -43t-129.5 -123l-107 99q29 70 76 131.5t111.5 106t147 70.5t181.5 26q97 0 181 -29t145.5 -83t97 -132t35.5 -174q0 -97 -40 -188t-124.5 -182.5
t-219.5 -189.5t-323 -210h226q57 0 117 5.5t92 12.5q27 6 44 18t26 31l93 200l184 -21q0 -56 -3 -118t-8 -123t-13.5 -120t-18.5 -109z" />
    <glyph glyph-name="three.tf" horiz-adv-x="1265" 
d="M1141 405q0 -100 -46 -181t-123.5 -137.5t-181 -87.5t-218.5 -31q-90 0 -163.5 17.5t-132 45.5t-104.5 63t-80 70l92 127q57 -44 134.5 -76.5t174.5 -32.5q104 0 179 57.5t76 178.5q1 89 -53 152t-144 74q-31 -7 -74 -17t-73 -15l-41 156q58 14 115 36.5t101.5 54.5
t72.5 76t28 101q0 63 -41.5 106t-107.5 43q-82 0 -155.5 -42t-113.5 -88l-108 101q34 50 80 96.5t106.5 81.5t137 56t170.5 21q80 0 155 -19t132 -58.5t91.5 -102t34.5 -148.5q0 -64 -29.5 -120.5t-76 -101t-105.5 -76.5t-117 -47q68 3 140.5 -15t131.5 -59t97.5 -106
t38.5 -153z" />
    <glyph glyph-name="four.tf" horiz-adv-x="1265" 
d="M1222 241h-212v-241h-330v241h-600l-69 154q145 228 275 475.5t252 513.5h312l50 -63q-88 -172 -163.5 -312.5t-146 -252t-142.5 -197t-154 -148.5l389 21l36 306l291 15v-304l212 11v-219z" />
    <glyph glyph-name="five.tf" horiz-adv-x="1265" 
d="M185 295q63 -51 139.5 -82t157.5 -31q120 0 196 71.5t76 191.5q0 108 -62 175.5t-170 67.5q-59 0 -110.5 -20t-103.5 -45l-116 77l53 681h823l-29 -259h-593l-44 -313q63 54 141 73t150 19q204 0 328.5 -116.5t124.5 -310.5q0 -115 -45 -209t-122.5 -159.5t-183 -101.5
t-224.5 -36q-148 0 -276 53.5t-203 146.5z" />
    <glyph glyph-name="six.tf" horiz-adv-x="1265" 
d="M1200 473q0 -108 -37 -201t-106 -160t-170.5 -105.5t-229.5 -38.5q-130 0 -236.5 41.5t-181.5 122t-116.5 200.5t-41.5 274q0 181 55.5 330.5t151.5 254.5t228 163t283 58q83 0 168 -17t151 -57l-51 -150q-45 15 -89.5 22.5t-80.5 7.5q-163 0 -281.5 -111t-146.5 -322
q49 50 136.5 84.5t188.5 34.5q94 0 169.5 -32t128 -88.5t80.5 -136.5t28 -174zM672 127q77 0 125.5 73t48.5 213q0 146 -57 219.5t-147 73.5q-37 0 -89.5 -11.5t-91.5 -35.5v-92q0 -216 59 -328t152 -112z" />
    <glyph glyph-name="seven.tf" horiz-adv-x="1265" 
d="M977 1167h-281q-64 0 -126 -6t-96 -16q-25 -6 -37.5 -17t-21.5 -36l-88 -237h-184q-12 127 -6.5 265.5t20.5 260.5h958l83 -178q-96 -128 -174.5 -260.5t-135.5 -276.5t-93 -308.5t-47 -357.5h-327l-52 54q9 159 61.5 315t135 298t189.5 269.5t222 230.5z" />
    <glyph glyph-name="eight.tf" horiz-adv-x="1265" 
d="M619 -32q-124 0 -226 24.5t-173.5 71t-111 114.5t-39.5 154q0 122 75.5 215.5t200.5 136.5q-83 56 -144.5 138t-61.5 204q0 173 135.5 279t369.5 106q107 0 196 -23.5t151.5 -66t97.5 -103t35 -134.5q0 -107 -68.5 -188.5t-174.5 -124.5q61 -31 118 -68.5t100.5 -85
t70 -108t26.5 -138.5q0 -95 -40.5 -170t-115.5 -126.5t-182 -79t-239 -27.5zM467 1112q0 -92 75 -151.5t185 -113.5q51 47 68.5 105.5t17.5 104.5q0 101 -52 152.5t-133 51.5q-73 0 -117 -40t-44 -109zM634 120q95 0 143.5 53.5t48.5 122.5q0 52 -26 93t-70.5 75t-104.5 66
t-127 66h-0.5t-2.5 1q-50 -43 -77.5 -104.5t-27.5 -130.5q0 -60 20.5 -105.5t54.5 -76t78 -45.5t91 -15z" />
    <glyph glyph-name="nine.tf" horiz-adv-x="1265" 
d="M623 675q37 0 89 11.5t90 34.5v85q0 205 -57 326t-156 121q-84 0 -128 -80t-44 -209q0 -141 56.5 -215t149.5 -74zM508 -32q-99 0 -199 27.5t-172 84.5l56 144q48 -25 111 -42t135 -17q63 0 124 24.5t110 77t82.5 135t43.5 197.5q-49 -50 -137 -86.5t-187 -36.5
q-97 0 -174 32t-129.5 88.5t-80.5 135t-28 171.5q0 109 36.5 203t105 161.5t170 106t229.5 38.5q129 0 236.5 -42t183 -124t117 -206.5t41.5 -288.5q0 -188 -52.5 -335t-143.5 -246t-214.5 -150.5t-263.5 -51.5z" />
    <glyph glyph-name="dollar.tf" horiz-adv-x="1265" 
d="M689 -209h-197v232q-110 11 -207.5 39t-166.5 59q-5 97 3 204.5t23 184.5h212l38 -214q4 -24 14 -38t25 -27q28 -23 79 -43.5t117 -20.5q87 0 137.5 40.5t50.5 106.5q0 47 -26 82.5t-69.5 66t-102.5 58t-124 57.5q-75 35 -142 73.5t-116.5 85t-79 106t-29.5 135.5
q0 73 28.5 139t85 117.5t143.5 85t202 41.5v230h197v-233q82 -8 161.5 -26t140.5 -41q7 -87 1 -183.5t-21 -182.5h-206l-42 191q-5 25 -13.5 40.5t-25.5 28.5q-24 18 -61.5 27t-80.5 9q-84 0 -127.5 -38t-43.5 -95q0 -45 25 -78t67.5 -61t101 -54.5t124.5 -57.5
q173 -82 281 -174t108 -240q0 -69 -27 -138t-85 -125t-150.5 -94.5t-221.5 -47.5v-227z" />
    <glyph glyph-name="Euro.tf" horiz-adv-x="1265" 
d="M1177 52q-47 -19 -103 -33t-113.5 -23.5t-115.5 -14.5t-109 -5q-251 0 -388.5 117t-171.5 364h-183v142h172q-1 12 -1 24.5v25.5q0 27 1 52.5t2 50.5h-168v142h185q48 266 204.5 385.5t393.5 119.5q93 0 197.5 -19t193.5 -56q7 -87 1 -185.5t-23 -208.5h-201l-46 196
q-9 38 -16 58.5t-19 35.5q-18 22 -46 30.5t-59 8.5q-91 0 -145 -82t-70 -283h304v-142h-310q-1 -16 -1 -33.5v-35.5v-43t1 -41h299v-142h-291q15 -170 62.5 -255.5t135.5 -85.5q37 0 72 13t60 35q16 14 26.5 35t20.5 54l56 188l205 -17q7 -78 5.5 -175.5t-17.5 -196.5z" />
    <glyph glyph-name="cent.tf" horiz-adv-x="1265" 
d="M1123 258q-41 -95 -145 -162.5t-246 -83.5v-221h-197v225q-107 18 -186 70t-130.5 127.5t-76.5 172.5t-25 203q0 138 38.5 246t106.5 183.5t162 120.5t204 58v217h197v-219q87 -10 163.5 -35.5t127.5 -54.5q7 -101 0.5 -196t-25.5 -188h-184l-48 202q-7 34 -17 52.5
t-25 31.5q-17 16 -44.5 26t-60.5 10q-86 0 -146 -98.5t-60 -294.5q0 -205 67.5 -314.5t202.5 -109.5q99 0 161 36.5t100 74.5z" />
    <glyph glyph-name="sterling.tf" horiz-adv-x="1265" 
d="M1215 275q0 -84 -25 -143.5t-67 -96t-98 -53t-118 -16.5q-74 0 -139.5 23.5t-125.5 51t-119 51t-119 23.5q-58 -49 -131.5 -84t-151.5 -50l-89 180q84 47 146.5 126t62.5 228v100h-191v155h191v64q0 130 30.5 237.5t91.5 182.5t154.5 116.5t218.5 41.5q110 0 201.5 -25
t158.5 -54q7 -94 1 -186t-22 -190h-202l-47 203q-4 19 -13 38t-28 38q-15 15 -34.5 22.5t-40.5 7.5q-18 0 -36.5 -11.5t-33.5 -41t-24 -82t-9 -133.5v-228h281v-155h-281v-24q0 -132 -29.5 -217.5t-63.5 -133.5q55 0 119 -16t119 -16q72 0 112 26.5t59 87.5q12 37 19.5 83.5
t11.5 95.5h229q10 -47 21 -106.5t11 -119.5z" />
    <glyph glyph-name="yen.tf" horiz-adv-x="1265" 
d="M1050 127v-127h-789v127l183 35q21 4 32 15.5t11 33.5v97h-327v143h327v141h-327v142h269l-275 461q-9 15 -21.5 22.5t-29.5 11.5l-114 26v126h674v-126l-132 -34l207 -406l189 409l-142 33v125h491v-125l-105 -24q-18 -4 -30.5 -12t-21.5 -24l-245 -463h276v-142h-327
v-141h327v-143h-327v-97q0 -22 11.5 -33.5t32.5 -15.5z" />
    <glyph glyph-name="uni20BA.tf" horiz-adv-x="1265" 
d="M484 0h-251v490l-202 -84v150l202 84v149l-201 -84v150l201 84v442h357v-293l269 113v-150l-269 -113v-149l268 112v-150l-268 -112v-442q147 0 203.5 104.5t56.5 302.5l339 39q2 -17 4 -41.5t2 -52.5q0 -123 -39.5 -225t-124.5 -173.5t-221 -111t-326 -39.5z" />
    <glyph glyph-name="uni20BD.tf" horiz-adv-x="1265" 
d="M621 1238v-479h52q82 0 136 61.5t54 201.5q0 122 -39 175.5t-110 53.5q-29 0 -54 -5.5t-39 -7.5zM904 144v-144h-819v144l160 30q19 4 31 17.5t12 32.5v112h-216v138h216v147h-216v138h216v389q0 18 -11.5 31.5t-28.5 17.5l-163 33v151h370q48 0 136 5.5t178 4.5
q244 -3 356 -87t112 -266q0 -196 -130.5 -306.5t-382.5 -110.5h-103v-147h384v-138h-384v-112q0 -19 16 -33t29 -15z" />
    <glyph glyph-name="uni20B9.tf" horiz-adv-x="1265" 
d="M1127 131v-131h-396q-43 0 -73.5 47.5t-60.5 119.5l-88 213q-24 58 -50 99.5t-77 59.5h-287v143h220q120 0 181.5 47.5t74.5 163.5h-476v135h478q-7 113 -64.5 161.5t-199.5 48.5h-214v143h1083v-135h-310q48 -37 74.5 -91.5t31.5 -126.5h192v-135h-198
q-19 -104 -85.5 -179t-183.5 -108q78 -27 121.5 -83.5t68.5 -114.5l87 -195q13 -28 25.5 -40t35.5 -18z" />
    <glyph glyph-name="one.dnom" horiz-adv-x="1073" 
d="M719 987v-765q0 -23 9.5 -34t33.5 -15l203 -32v-141h-777v141l220 32q24 4 35 15t11 35l1 507q-57 -20 -125.5 -30.5t-135.5 -13.5l-30 133q96 24 197.5 75.5t188.5 122.5z" />
    <glyph glyph-name="two.dnom" horiz-adv-x="1073" 
d="M915 0h-770l-36 118q104 71 191.5 139t150 134.5t98 133.5t35.5 134q0 74 -44 122.5t-130 48.5q-59 0 -116.5 -26t-105.5 -72l-66 66q14 40 44.5 79t76.5 69.5t110.5 49.5t145.5 19q93 0 164 -25.5t118 -68t70.5 -99.5t23.5 -120q0 -87 -41 -165.5t-106 -145.5t-147 -122
t-162 -96h154q105 0 143 17.5t48 40.5l56 118l141 -16q-2 -36 -5.5 -79t-9.5 -87.5t-13.5 -87.5t-17.5 -79z" />
    <glyph glyph-name="three.dnom" horiz-adv-x="1073" 
d="M125 117l64 107q46 -28 114 -48t137 -20q91 0 145 39t54 108q0 66 -52 98t-154 32h-102l1 125h21q125 0 182.5 43t57.5 109q0 69 -51 98t-117 29q-54 0 -107 -17.5t-99 -53.5l-62 75q22 46 61 79t87 54t102 31t107 10q74 0 138.5 -18t111.5 -50.5t74.5 -79.5t27.5 -104
q0 -49 -20.5 -89t-54 -69.5t-76 -49t-85.5 -27.5q56 0 111 -14.5t97.5 -44.5t69 -76t26.5 -108q0 -61 -29 -115.5t-83.5 -95.5t-135.5 -65t-184 -24q-122 0 -218 34.5t-159 97.5z" />
    <glyph glyph-name="four.dnom" horiz-adv-x="1073" 
d="M985 188h-169v-188h-251l-1 188h-426l-83 109q115 176 213 354t177 354h243l38 -49q-71 -136 -130.5 -236.5t-111.5 -173.5t-99.5 -125t-94.5 -93l280 17l44 236h202v-221l169 11v-183z" />
    <glyph glyph-name="one.numr" horiz-adv-x="1073" 
d="M711 1611v-765q0 -23 9.5 -34t33.5 -15l203 -32v-141h-777v141l220 32q24 4 35 15t11 35l1 507q-57 -20 -125.5 -30.5t-135.5 -13.5l-30 133q96 24 197.5 75.5t188.5 122.5z" />
    <glyph glyph-name="two.numr" horiz-adv-x="1073" 
d="M921 624h-770l-36 118q104 71 191.5 139t150 134.5t98 133.5t35.5 134q0 74 -44 122.5t-130 48.5q-59 0 -116.5 -26t-105.5 -72l-66 66q14 40 44.5 79t76.5 69.5t110.5 49.5t145.5 19q93 0 164 -25.5t118 -68t70.5 -99.5t23.5 -120q0 -87 -41 -165.5t-106 -145.5
t-147 -122t-162 -96h154q105 0 143 17.5t48 40.5l56 118l141 -16q-2 -36 -5.5 -79t-9.5 -87.5t-13.5 -87.5t-17.5 -79z" />
    <glyph glyph-name="three.numr" horiz-adv-x="1073" 
d="M132 740l64 107q46 -28 114 -48t137 -20q91 0 145 39t54 108q0 66 -52 98t-154 32h-102l1 125h21q125 0 182.5 43t57.5 109q0 69 -51 98t-117 29q-54 0 -107 -17.5t-99 -53.5l-62 75q22 46 61 79t87 54t102 31t107 10q74 0 138.5 -18t111.5 -50.5t74.5 -79.5t27.5 -104
q0 -49 -20.5 -89t-54 -69.5t-76 -49t-85.5 -27.5q56 0 111 -14.5t97.5 -44.5t69 -76t26.5 -108q0 -61 -29 -115.5t-83.5 -95.5t-135.5 -65t-184 -24q-122 0 -218 34.5t-159 97.5z" />
    <glyph glyph-name="four.numr" horiz-adv-x="1073" 
d="M993 812h-169v-188h-251l-1 188h-426l-83 109q115 176 213 354t177 354h243l38 -49q-71 -136 -130.5 -236.5t-111.5 -173.5t-99.5 -125t-94.5 -93l280 17l44 236h202v-221l169 11v-183z" />
    <glyph glyph-name="dotlessiogonek" horiz-adv-x="801" 
d="M693 -442q-59 -38 -138.5 -58t-153.5 -19q-120 1 -201 54.5t-81 157.5q0 53 23 99.5t62 85t90 68.5t106 49v5h-320v143l108 20q22 4 34.5 18.5t12.5 37.5v659q0 22 -11 38t-33 20l-122 25v147q54 14 115.5 25t124 18t124 10.5t115.5 3.5l48 -44v-902q0 -23 12.5 -37.5
t34.5 -18.5l108 -20v-143h-125q-101 -37 -163.5 -99t-62.5 -126q0 -52 37 -76.5t91 -24.5q28 0 56.5 6t55.5 17z" />
    <glyph glyph-name="__periodcentered.CAT" horiz-adv-x="211" 
d="M296 759q0 -84 -55 -134t-146 -50t-146 50t-55 134t55 134t146 50t146 -50t55 -134z" />
    <glyph glyph-name="__periodcentered.CAT.case" horiz-adv-x="14" 
d="M-20 913q0 -84 -55 -134t-146 -50t-146 50t-55 134t55 134t146 50t146 -50t55 -134z" />
    </font>
</defs>
</svg>
