<svg xmlns="http://www.w3.org/2000/svg" viewBox="0 0 277.43 366.63"><defs><style>.cls-1{fill:#2c00b9;}.cls-2{fill:#f4d3d0;}.cls-2,.cls-3,.cls-5,.cls-6,.cls-7{stroke:#2c00b9;}.cls-2,.cls-3,.cls-7{stroke-miterlimit:10;}.cls-2,.cls-3{stroke-width:11.76px;}.cls-3{fill:#ff6cbd;}.cls-4{fill:#efbdbb;}.cls-5,.cls-6{fill:#ff674a;stroke-linejoin:round;stroke-width:5.88px;}.cls-6{stroke-linecap:round;}.cls-7{fill:none;stroke-width:2.94px;}</style></defs><title>Fichier 3</title><g id="Calque_2" data-name="Calque 2"><g id="Calque_1-2" data-name="Calque 1"><path class="cls-1" d="M106.5,24.2h65.91a74.9,74.9,0,0,1,74.9,74.9V342.15A6.81,6.81,0,0,1,240.5,349H38.41a6.81,6.81,0,0,1-6.81-6.81V99.1A74.9,74.9,0,0,1,106.5,24.2Z"/><rect class="cls-2" x="113.95" y="290.15" width="49.53" height="49.53"/><path class="cls-3" d="M114,321.52h49.53a0,0,0,0,1,0,0v36.25a3,3,0,0,1-3,3H116.94a3,3,0,0,1-3-3V321.52A0,0,0,0,1,114,321.52Z"/><circle class="cls-2" cx="233.92" cy="168.99" r="37.63"/><circle class="cls-2" cx="43.51" cy="168.99" r="37.63"/><path class="cls-2" d="M179.15,289.49h0a85.13,85.13,0,0,1-73.81,0l-2.52-1.21a85.12,85.12,0,0,1-48-70.57l-6.75-93.17A76,76,0,0,1,50,100.43c8.13-32.3,31.38-46.63,78.63-46.63h19.59c44,0,67.4,11.84,77.4,40.22a75.82,75.82,0,0,1,4,27.07l-2.22,93.71A85.13,85.13,0,0,1,179.15,289.49Z"/><ellipse class="cls-4" cx="91.02" cy="186.58" rx="21.95" ry="8.71"/><ellipse class="cls-4" cx="187.89" cy="186.58" rx="21.95" ry="8.71"/><path class="cls-5" d="M134.16,30.76S159.55,2.94,201.55,2.94C201.55,2.94,203.14,48.89,134.16,30.76Z"/><path class="cls-6" d="M140,31.43S160.39,21,175.09,21.51"/><path class="cls-5" d="M143.27,30.76S117.89,2.94,75.88,2.94C75.88,2.94,74.29,48.89,143.27,30.76Z"/><path class="cls-6" d="M143.27,31.43S122.92,21,108.22,21.51"/><circle class="cls-5" cx="138.72" cy="31.43" r="14.04"/><path class="cls-7" d="M64.14,155l3.74-4.21c13.05-14.71,29.7-14.71,42.75,0l3.74,4.21"/><circle class="cls-1" cx="89.26" cy="149.4" r="10.53"/><path class="cls-7" d="M164.54,155l3.74-4.21c13-14.71,29.7-14.71,42.75,0l3.74,4.21"/><circle class="cls-1" cx="189.65" cy="149.4" r="10.53"/><path class="cls-1" d="M179.71,254.82c0,7.59-17.76,13.73-39.67,13.73s-39.67-6.14-39.67-13.73"/></g></g></svg>