<svg xmlns="http://www.w3.org/2000/svg" viewBox="0 0 283.31 327.73"><defs><style>.cls-1{fill:#2c00b9;}.cls-2{fill:#f4c4a4;}.cls-2,.cls-3,.cls-4,.cls-5{stroke:#2c00b9;stroke-miterlimit:10;}.cls-2,.cls-3,.cls-4{stroke-width:11.76px;}.cls-3{fill:#6e98ff;}.cls-4{fill:#f4d3d0;}.cls-5{fill:none;stroke-width:2.94px;}.cls-6{fill:#efbdbb;}</style></defs><title>Fichier 2</title><g id="Calque_2" data-name="Calque 2"><g id="Calque_1-2" data-name="Calque 1"><path class="cls-1" d="M166.94,0H116.38c-49,0-88.75,35.69-88.75,79.71V257.9c0,18.86,17,34.14,38,34.14s38-15.28,38-34.14c0,18.86,17,34.14,38,34.14s38-15.28,38-34.14c0,18.86,17,34.14,38,34.14s38-15.28,38-34.14V79.71C255.68,35.69,216,0,166.94,0Z"/><rect class="cls-2" x="116.89" y="251.25" width="49.53" height="49.53"/><path class="cls-3" d="M116.89,282.62h49.53a0,0,0,0,1,0,0v36.25a3,3,0,0,1-3,3H119.88a3,3,0,0,1-3-3V282.62A0,0,0,0,1,116.89,282.62Z"/><circle class="cls-4" cx="239.8" cy="127.28" r="37.63"/><circle class="cls-4" cx="43.51" cy="127.28" r="37.63"/><path class="cls-4" d="M198,244.07l-16.69,6.52a108.7,108.7,0,0,1-79.2,0l-16.7-6.52A65.21,65.21,0,0,1,43.9,183.34V109.71a79.56,79.56,0,0,1,79.56-79.56h36.4a79.56,79.56,0,0,1,79.55,79.56v73.63A65.2,65.2,0,0,1,198,244.07Z"/><circle class="cls-1" cx="197.41" cy="133.94" r="11.27"/><line class="cls-5" x1="197.41" y1="133.94" x2="214.03" y2="117.33"/><circle class="cls-1" cx="89.76" cy="133.94" r="11.27"/><line class="cls-5" x1="89.76" y1="133.94" x2="73.15" y2="117.33"/><ellipse class="cls-6" cx="84.47" cy="169.57" rx="21.95" ry="8.71"/><ellipse class="cls-6" cx="198.84" cy="169.57" rx="21.95" ry="8.71"/><path class="cls-1" d="M120.25,224.21a12.68,12.68,0,1,1,25.36,0"/><path class="cls-1" d="M137.71,224.21a12.68,12.68,0,1,1,25.35,0"/><path class="cls-1" d="M149.85,223a8.2,8.2,0,0,1-16.39,0"/><circle class="cls-1" cx="103.73" cy="214.23" r="2.7"/></g></g></svg>