<?xml version="1.0" encoding="UTF-8"?>
<svg width="54px" height="40px" viewBox="0 0 54 40" version="1.1" xmlns="http://www.w3.org/2000/svg" xmlns:xlink="http://www.w3.org/1999/xlink">
    <title>library</title>
    <desc>Created with Sketch.</desc>
    <defs>
        <polygon id="path-1" points="0 0.158666667 53.9965895 0.158666667 53.9965895 4 0 4"></polygon>
        <polygon id="path-3" points="0 40 54 40 54 0 0 0"></polygon>
    </defs>
    <g id="Symbols" stroke="none" stroke-width="1" fill="none" fill-rule="evenodd">
        <g id="library">
            <g id="Page-1">
                <g id="Group-3" transform="translate(0.000000, 36.000000)">
                    <mask id="mask-2" fill="white">
                        <use xlink:href="#path-1"></use>
                    </mask>
                    <g id="Clip-2"></g>
                    <path d="M51.9502737,4 L2.04716842,4 C0.916010526,4 -0.000568421053,3.14 -0.000568421053,2.08 C-0.000568421053,1.01866667 0.916010526,0.158666667 2.04716842,0.158666667 L51.9502737,0.158666667 C53.0814316,0.158666667 53.9965895,1.01866667 53.9965895,2.08 C53.9965895,3.14 53.0814316,4 51.9502737,4" id="Fill-1" fill="#fff" mask="url(#mask-2)"></path>
                </g>
                <path d="M10.2539683,33 L3.74454829,33 C2.78029966,33 2,32.2665803 2,31.3619829 L2,5.63801708 C2,4.73341971 2.78029966,4 3.74454829,4 L10.2539683,4 C11.2167334,4 12,4.73341971 12,5.63801708 L12,31.3619829 C12,32.2665803 11.2167334,33 10.2539683,33" id="Fill-4" fill="#fff"></path>
                <mask id="mask-4" fill="white">
                    <use xlink:href="#path-3"></use>
                </mask>
                <g id="Clip-7"></g>
                <polygon id="Fill-6" fill="#484fff" mask="url(#mask-4)" points="2 9 12 9 12 8 2 8"></polygon>
                <polygon id="Fill-8" fill="#484fff" mask="url(#mask-4)" points="2 29 12 29 12 28 2 28"></polygon>
                <path d="M50.2539683,33 L43.7445483,33 C42.7817831,33 42,32.2665803 42,31.3619829 L42,5.63801708 C42,4.73341971 42.7817831,4 43.7445483,4 L50.2539683,4 C51.2167334,4 52,4.73341971 52,5.63801708 L52,31.3619829 C52,32.2665803 51.2167334,33 50.2539683,33" id="Fill-9" fill="#fff" mask="url(#mask-4)"></path>
                <polygon id="Fill-10" fill="#484fff" mask="url(#mask-4)" points="42 9 52 9 52 8 42 8"></polygon>
                <polygon id="Fill-11" fill="#484fff" mask="url(#mask-4)" points="42 29 52 29 52 28 42 28"></polygon>
                <path d="M22.252744,33 L15.7457728,33 C14.7816672,33 14,32.263873 14,31.3559365 L14,1.64406349 C14,0.736126984 14.7816672,0 15.7457728,0 L22.252744,0 C23.2168496,0 24,0.736126984 24,1.64406349 L24,31.3559365 C24,32.263873 23.2168496,33 22.252744,33" id="Fill-12" fill="#fff" mask="url(#mask-4)"></path>
                <path d="M20,4.5 C20,5.32904884 19.3287613,6 18.4993571,6 C17.6699529,6 17,5.32904884 17,4.5 C17,3.6722365 17.6699529,3 18.4993571,3 C19.3287613,3 20,3.6722365 20,4.5" id="Fill-13" fill="#484fff" mask="url(#mask-4)"></path>
                <path d="M38.8579869,32.1808546 L33.5534498,33.9179452 C32.6868879,34.2027373 31.7558246,33.7224162 31.4739816,32.8453697 L25.0813344,12.9212528 C24.7994914,12.0442062 25.2734363,11.1034003 26.1428027,10.8186081 L31.4459375,9.08151755 C32.3139017,8.79814225 33.244965,9.2770465 33.5254058,10.154093 L39.9194552,30.0796268 C40.1998959,30.9552565 39.7245488,31.8960624 38.8579869,32.1808546" id="Fill-14" fill="#fff" mask="url(#mask-4)"></path>
                <path d="M28.5093683,14 C28.2947262,14 28.093669,13.8611284 28.0243858,13.6425088 C27.9388006,13.3702654 28.085518,13.0815225 28.3545,12.9935247 L31.3350371,12.0241734 C31.6013021,11.9389255 31.8879445,12.0860469 31.9762466,12.3569153 C32.0604733,12.6277836 31.9137558,12.9179015 31.6461324,13.0058994 L28.6642367,13.9752506 C28.6126139,13.9917502 28.5609911,14 28.5093683,14" id="Fill-15" fill="#484fff" mask="url(#mask-4)"></path>
                <path d="M29.5974389,16 C29.3456897,16 29.1098739,15.8186179 29.028613,15.5330757 C28.928232,15.1774949 29.1003138,14.8003637 29.4142037,14.6854285 L31.2194691,14.0317345 C31.5429192,13.920391 31.8695559,14.1107524 31.9715303,14.4663332 C32.0719113,14.8201182 31.8982362,15.1990452 31.5859396,15.3139804 L29.7806742,15.9676745 C29.7185335,15.9892248 29.6579862,16 29.5974389,16" id="Fill-16" fill="#484fff" mask="url(#mask-4)"></path>
            </g>
        </g>
    </g>
</svg>
