<svg xmlns="http://www.w3.org/2000/svg" viewBox="0 0 283.31 363.38"><defs><style>.cls-1{fill:#2c00b9;}.cls-2{fill:#f4d3d0;}.cls-2,.cls-3,.cls-5,.cls-6,.cls-7{stroke:#2c00b9;stroke-miterlimit:10;}.cls-2,.cls-3{stroke-width:11.76px;}.cls-3{fill:#6effa9;}.cls-4{fill:#efbdbb;}.cls-5,.cls-6{fill:none;}.cls-5{stroke-width:2.94px;}.cls-6,.cls-7{stroke-width:5.88px;}.cls-7{fill:#fff;opacity:0.3;}</style></defs><title>Fichier 7</title><g id="Calque_2" data-name="Calque 2"><g id="Calque_1-2" data-name="Calque 1"><ellipse class="cls-1" cx="141.66" cy="151.52" rx="111.09" ry="134.55"/><rect class="cls-2" x="117.14" y="287.26" width="49.53" height="49.53"/><path class="cls-3" d="M116.65,318.28h49.53a0,0,0,0,1,0,0v36.25a3,3,0,0,1-3,3H119.63a3,3,0,0,1-3-3V318.28A0,0,0,0,1,116.65,318.28Z"/><circle class="cls-2" cx="239.8" cy="156.48" r="37.63"/><circle class="cls-2" cx="43.51" cy="156.48" r="37.63"/><path class="cls-2" d="M181.26,279.79l-13.17,5.15a72.55,72.55,0,0,1-52.87,0l-13.16-5.15A91.45,91.45,0,0,1,43.9,194.62h0V123.15A37.1,37.1,0,0,1,81,86.05H202.31a37.1,37.1,0,0,1,37.1,37.1v71.47A91.45,91.45,0,0,1,181.26,279.79Z"/><ellipse class="cls-4" cx="93.22" cy="191.12" rx="21.95" ry="8.71"/><ellipse class="cls-4" cx="190.09" cy="191.12" rx="21.95" ry="8.71"/><circle class="cls-1" cx="196.86" cy="158.99" r="14.31"/><line class="cls-5" x1="173.62" y1="139.9" x2="217.72" y2="139.66"/><line class="cls-5" x1="65.6" y1="139.9" x2="109.7" y2="139.66"/><circle class="cls-1" cx="87.65" cy="158.99" r="14.31"/><path class="cls-5" d="M110.57,251h0a113.81,113.81,0,0,0,62.17,0h0"/><circle class="cls-6" cx="192.66" cy="160.96" r="42.11"/><circle class="cls-7" cx="192.66" cy="160.96" r="42.11"/><circle class="cls-6" cx="90.65" cy="160.96" r="42.11"/><circle class="cls-7" cx="90.65" cy="160.96" r="42.11"/><path class="cls-1" d="M248.72,115.6,212.58,75.94l-97.2-17.62,18.54-30.71c13-21.54,40-32,66.31-25.84h0C275.65,24.54,268.4,83,248.72,115.6Z"/><path class="cls-1" d="M48.78,91.54H157.87l-9.41,22c-6.59,15.47-27,26.08-50.1,26.08h0c-35,0-60.08-23.5-50.1-46.89Z"/></g></g></svg>