<svg xmlns="http://www.w3.org/2000/svg" viewBox="0 0 307.68 326.18"><defs><style>.cls-1{fill:#f4c4a4;}.cls-1,.cls-2,.cls-4,.cls-5{stroke:#2c00b9;}.cls-1,.cls-2,.cls-4{stroke-miterlimit:10;}.cls-1,.cls-2{stroke-width:11.76px;}.cls-2{fill:#ffcd69;}.cls-3{fill:#2c00b9;}.cls-4,.cls-5{fill:none;}.cls-4{stroke-width:2.94px;}.cls-5{stroke-linecap:round;}.cls-5,.cls-6,.cls-7{stroke-linejoin:round;stroke-width:5.88px;}.cls-6{fill:#fff;stroke:#ff674a;}.cls-7{fill:#ff674a;stroke:#fff;}.cls-8{fill:#e0aa85;}</style></defs><title>Fichier 6</title><g id="Calque_2" data-name="Calque 2"><g id="Calque_1-2" data-name="Calque 1"><rect class="cls-1" x="113.22" y="246.42" width="49.53" height="49.53"/><path class="cls-2" d="M113.22,277.79h49.53a0,0,0,0,1,0,0V314a3,3,0,0,1-3,3H116.2a3,3,0,0,1-3-3V277.79A0,0,0,0,1,113.22,277.79Z"/><circle class="cls-3" cx="137.98" cy="93.15" r="93.15"/><circle class="cls-3" cx="215.25" cy="87.01" r="60.67"/><circle class="cls-3" cx="258.94" cy="161.44" r="47.04"/><circle class="cls-3" cx="276.51" cy="221.01" r="31.17"/><circle class="cls-3" cx="276.51" cy="271.49" r="25.26"/><circle class="cls-3" cx="264.82" cy="308.32" r="17.86"/><circle class="cls-1" cx="233.92" cy="138.63" r="37.63"/><circle class="cls-1" cx="43.51" cy="138.63" r="37.63"/><path class="cls-1" d="M138.71,252h0A97.68,97.68,0,0,1,41.6,143.87l4.71-43.56c4.61-42.72,27.28-61.37,81.19-61.37h19.58c52.16,0,75.37,16.63,81.64,57.72l6.55,43A97.67,97.67,0,0,1,138.71,252Z"/><path class="cls-4" d="M171.19,114.11s5.87-10.18,19.8-10.18,19.8,10.18,19.8,10.18"/><path class="cls-3" d="M174.22,126.86a23.6,23.6,0,0,1,8.39-8.07,17,17,0,0,1,16.76,0,23.46,23.46,0,0,1,8.39,8.1,23.46,23.46,0,0,1-8.39,8.1,17,17,0,0,1-16.76,0A23.6,23.6,0,0,1,174.22,126.86Z"/><path class="cls-4" d="M65.17,114.11S71,103.93,85,103.93s19.79,10.18,19.79,10.18"/><path class="cls-3" d="M68.2,126.86a23.58,23.58,0,0,1,8.38-8.07A17.34,17.34,0,0,1,85,116.57a17.15,17.15,0,0,1,8.38,2.19,23.37,23.37,0,0,1,8.38,8.1,23.37,23.37,0,0,1-8.38,8.1A17.15,17.15,0,0,1,85,137.15a17.34,17.34,0,0,1-8.39-2.22A23.58,23.58,0,0,1,68.2,126.86Z"/><path class="cls-5" d="M196.66,186.52c0,20.35-26.27,36.85-58.68,36.85S79.3,206.87,79.3,186.52"/><path class="cls-5" d="M192.82,183.11c.83.28,12.9,6.82,12.9,6.82"/><path class="cls-5" d="M83.13,183.11c-.83.28-12.89,6.82-12.89,6.82"/><line class="cls-6" x1="199.97" y1="60.31" x2="237.13" y2="30.58"/><circle class="cls-7" cx="191.96" cy="64.17" r="13.69"/><ellipse class="cls-8" cx="80.79" cy="156.18" rx="21.95" ry="8.71"/><ellipse class="cls-8" cx="195.16" cy="156.18" rx="21.95" ry="8.71"/></g></g></svg>